<?xml version="1.0" encoding="UTF-8" standalone="no"?>
<!-- Created with Inkscape (http://www.inkscape.org/) -->

<svg
   xmlns:dc="http://purl.org/dc/elements/1.1/"
   xmlns:cc="http://creativecommons.org/ns#"
   xmlns:rdf="http://www.w3.org/1999/02/22-rdf-syntax-ns#"
   xmlns:svg="http://www.w3.org/2000/svg"
   xmlns="http://www.w3.org/2000/svg"
   xmlns:sodipodi="http://sodipodi.sourceforge.net/DTD/sodipodi-0.dtd"
   xmlns:inkscape="http://www.inkscape.org/namespaces/inkscape"
   version="1.1"
   id="svg2"
   xml:space="preserve"
   width="273.72"
   height="273.72"
   viewBox="0 0 273.72 273.72"
   sodipodi:docname="609_blue.svg"
   inkscape:version="0.92.4 (5da689c313, 2019-01-14)"><metadata
     id="metadata8"><rdf:RDF><cc:Work
         rdf:about=""><dc:format>image/svg+xml</dc:format><dc:type
           rdf:resource="http://purl.org/dc/dcmitype/StillImage" /><dc:title></dc:title></cc:Work></rdf:RDF></metadata><defs
     id="defs6" /><sodipodi:namedview
     pagecolor="#ffffff"
     bordercolor="#666666"
     borderopacity="1"
     objecttolerance="10"
     gridtolerance="10"
     guidetolerance="10"
     inkscape:pageopacity="0"
     inkscape:pageshadow="2"
     inkscape:window-width="1920"
     inkscape:window-height="1057"
     id="namedview4"
     showgrid="false"
     inkscape:zoom="2.4386556"
     inkscape:cx="66.295015"
     inkscape:cy="183.42065"
     inkscape:window-x="-8"
     inkscape:window-y="-8"
     inkscape:window-maximized="1"
     inkscape:current-layer="g10" /><g
     id="g10"
     inkscape:groupmode="layer"
     inkscape:label="ink_ext_XXXXXX"
     transform="matrix(1.3333333,0,0,-1.3333333,0,273.72)"><path
       style="fill:#1476c6;fill-opacity:1;fill-rule:nonzero;stroke:none;stroke-width:0.13333333"
       d="M 136.85742 6.28125 C 64.74129 6.28125 6.2773438 64.74533 6.2773438 136.86133 C 6.2773438 208.97879 64.74129 267.44336 136.85742 267.44336 C 208.97475 267.44336 267.43945 208.97879 267.43945 136.86133 C 267.43945 64.74533 208.97475 6.28125 136.85742 6.28125 z M 73.167969 46.173828 L 118.85547 46.173828 L 89.318359 75.712891 L 178.20508 75.712891 C 190.83974 75.712891 201.08398 85.955797 201.08398 98.591797 L 201.08398 233.57227 L 169.23047 233.57227 L 169.23047 111.87695 C 169.23047 109.35029 167.18292 107.30273 164.65625 107.30273 L 89.318359 107.30273 L 118.85547 136.83984 L 73.167969 136.83984 L 27.833984 91.505859 L 73.167969 46.173828 z "
       transform="matrix(0.75000002,0,0,-0.75000002,0,205.29001)"
       id="path18" /></g></svg>