<?xml version="1.0" encoding="UTF-8" standalone="no"?>
<!-- Created with Inkscape (http://www.inkscape.org/) -->

<svg
   xmlns:dc="http://purl.org/dc/elements/1.1/"
   xmlns:cc="http://creativecommons.org/ns#"
   xmlns:rdf="http://www.w3.org/1999/02/22-rdf-syntax-ns#"
   xmlns:svg="http://www.w3.org/2000/svg"
   xmlns="http://www.w3.org/2000/svg"
   xmlns:sodipodi="http://sodipodi.sourceforge.net/DTD/sodipodi-0.dtd"
   xmlns:inkscape="http://www.inkscape.org/namespaces/inkscape"
   version="1.1"
   id="svg2"
   xml:space="preserve"
   width="273.72"
   height="273.72"
   viewBox="0 0 273.72 273.72"
   sodipodi:docname="609_base.svg"
   inkscape:version="0.92.4 (5da689c313, 2019-01-14)"><metadata
     id="metadata8"><rdf:RDF><cc:Work
         rdf:about=""><dc:format>image/svg+xml</dc:format><dc:type
           rdf:resource="http://purl.org/dc/dcmitype/StillImage" /><dc:title></dc:title></cc:Work></rdf:RDF></metadata><defs
     id="defs6" /><sodipodi:namedview
     pagecolor="#ffffff"
     bordercolor="#666666"
     borderopacity="1"
     objecttolerance="10"
     gridtolerance="10"
     guidetolerance="10"
     inkscape:pageopacity="0"
     inkscape:pageshadow="2"
     inkscape:window-width="1920"
     inkscape:window-height="1057"
     id="namedview4"
     showgrid="false"
     inkscape:zoom="0.86219494"
     inkscape:cx="-7.5388983"
     inkscape:cy="136.86"
     inkscape:window-x="-8"
     inkscape:window-y="-8"
     inkscape:window-maximized="1"
     inkscape:current-layer="g10" /><g
     id="g10"
     inkscape:groupmode="layer"
     inkscape:label="ink_ext_XXXXXX"
     transform="matrix(1.3333333,0,0,-1.3333333,0,273.72)"><g
       id="g12"
       transform="scale(0.1)"><path
         d="m 1026.43,2047.87 c 564.11,0 1021.44,-457.32 1021.44,-1021.43 C 2047.87,462.332 1590.54,5 1026.43,5 462.32,5 5,462.332 5,1026.44 5,1590.55 462.32,2047.87 1026.43,2047.87"
         style="fill:#ffffff;fill-opacity:1;fill-rule:nonzero;stroke:none"
         id="path14"
         inkscape:connector-curvature="0" /><path
         d="m 1026.43,2047.87 c 564.11,0 1021.44,-457.32 1021.44,-1021.43 C 2047.87,462.332 1590.54,5 1026.43,5 462.32,5 5,462.332 5,1026.44 5,1590.55 462.32,2047.87 1026.43,2047.87 Z"
         style="fill:none;stroke:#1476c6;stroke-width:10;stroke-linecap:butt;stroke-linejoin:miter;stroke-miterlimit:4;stroke-dasharray:none;stroke-opacity:1"
         id="path16"
         inkscape:connector-curvature="0" /><path
         d="m 1026.43,2005.79 c 540.88,0 979.36,-438.48 979.36,-979.35 0,-540.881 -438.48,-979.358 -979.36,-979.358 -540.871,0 -979.348,438.477 -979.348,979.358 0,540.87 438.477,979.35 979.348,979.35"
         style="fill:#1476c6;fill-opacity:1;fill-rule:nonzero;stroke:none"
         id="path18"
         inkscape:connector-curvature="0" /><path
         d="M 1508.13,301.109 V 1313.46 c 0,94.77 -76.83,171.59 -171.59,171.59 H 669.883 l 221.535,221.54 H 548.754 l -339.992,-339.99 339.992,-340 h 342.664 l -221.535,221.53 h 565.037 c 18.95,0 34.31,-15.36 34.31,-34.31 V 301.109 h 238.9"
         style="fill:#ffffff;fill-opacity:1;fill-rule:nonzero;stroke:none"
         id="path20"
         inkscape:connector-curvature="0" /></g></g></svg>