<?xml version="1.0" encoding="UTF-8" standalone="no"?>
<!-- Created with Inkscape (http://www.inkscape.org/) -->

<svg
   xmlns:dc="http://purl.org/dc/elements/1.1/"
   xmlns:cc="http://creativecommons.org/ns#"
   xmlns:rdf="http://www.w3.org/1999/02/22-rdf-syntax-ns#"
   xmlns:svg="http://www.w3.org/2000/svg"
   xmlns="http://www.w3.org/2000/svg"
   xmlns:sodipodi="http://sodipodi.sourceforge.net/DTD/sodipodi-0.dtd"
   xmlns:inkscape="http://www.inkscape.org/namespaces/inkscape"
   version="1.1"
   id="svg2"
   xml:space="preserve"
   width="273.72"
   height="273.72"
   viewBox="0 0 273.72 273.72"
   sodipodi:docname="610_blue.svg"
   inkscape:version="0.92.4 (5da689c313, 2019-01-14)"><metadata
     id="metadata8"><rdf:RDF><cc:Work
         rdf:about=""><dc:format>image/svg+xml</dc:format><dc:type
           rdf:resource="http://purl.org/dc/dcmitype/StillImage" /><dc:title></dc:title></cc:Work></rdf:RDF></metadata><defs
     id="defs6" /><sodipodi:namedview
     pagecolor="#ffffff"
     bordercolor="#666666"
     borderopacity="1"
     objecttolerance="10"
     gridtolerance="10"
     guidetolerance="10"
     inkscape:pageopacity="0"
     inkscape:pageshadow="2"
     inkscape:window-width="1920"
     inkscape:window-height="1057"
     id="namedview4"
     showgrid="false"
     inkscape:zoom="1.7243899"
     inkscape:cx="40.909381"
     inkscape:cy="93.411712"
     inkscape:window-x="-8"
     inkscape:window-y="-8"
     inkscape:window-maximized="1"
     inkscape:current-layer="g10" /><g
     id="g10"
     inkscape:groupmode="layer"
     inkscape:label="ink_ext_XXXXXX"
     transform="matrix(1.3333333,0,0,-1.3333333,0,273.72)"><path
       style="fill:#1476c6;fill-opacity:1;fill-rule:nonzero;stroke:none;stroke-width:0.13333333"
       d="M 136.85742 6.2832031 C 103.43907 6.2832031 70.02057 19.031964 44.523438 44.529297 C -6.4708679 95.522629 -6.4708679 178.20407 44.523438 229.19727 C 95.51717 280.19104 178.19807 280.19104 229.19141 229.19727 C 280.18607 178.203 280.18607 95.522629 229.19141 44.529297 C 203.69474 19.031964 170.27577 6.2832031 136.85742 6.2832031 z M 202.58984 45.392578 L 228.14062 70.941406 L 118.53906 180.54297 L 170.67578 180.54297 L 132.11523 219.10352 L 54.429688 219.10352 L 54.429688 141.41602 L 92.990234 102.85547 L 92.990234 154.99414 L 202.58984 45.392578 z "
       transform="matrix(0.75000002,0,0,-0.75000002,0,205.29001)"
       id="path18" /></g></svg>