<?xml version="1.0" encoding="UTF-8" standalone="no"?>
<!-- Created with Inkscape (http://www.inkscape.org/) -->

<svg
   xmlns:dc="http://purl.org/dc/elements/1.1/"
   xmlns:cc="http://creativecommons.org/ns#"
   xmlns:rdf="http://www.w3.org/1999/02/22-rdf-syntax-ns#"
   xmlns:svg="http://www.w3.org/2000/svg"
   xmlns="http://www.w3.org/2000/svg"
   xmlns:sodipodi="http://sodipodi.sourceforge.net/DTD/sodipodi-0.dtd"
   xmlns:inkscape="http://www.inkscape.org/namespaces/inkscape"
   version="1.1"
   id="svg2"
   xml:space="preserve"
   width="273.72"
   height="273.72"
   viewBox="0 0 273.72 273.72"
   sodipodi:docname="610_white.svg"
   inkscape:version="0.92.4 (5da689c313, 2019-01-14)"><metadata
     id="metadata8"><rdf:RDF><cc:Work
         rdf:about=""><dc:format>image/svg+xml</dc:format><dc:type
           rdf:resource="http://purl.org/dc/dcmitype/StillImage" /><dc:title></dc:title></cc:Work></rdf:RDF></metadata><defs
     id="defs6" /><sodipodi:namedview
     pagecolor="#ffffff"
     bordercolor="#666666"
     borderopacity="1"
     objecttolerance="10"
     gridtolerance="10"
     guidetolerance="10"
     inkscape:pageopacity="0"
     inkscape:pageshadow="2"
     inkscape:window-width="1920"
     inkscape:window-height="1057"
     id="namedview4"
     showgrid="false"
     inkscape:zoom="1.7243899"
     inkscape:cx="40.909381"
     inkscape:cy="93.411712"
     inkscape:window-x="-8"
     inkscape:window-y="-8"
     inkscape:window-maximized="1"
     inkscape:current-layer="g10" /><g
     id="g10"
     inkscape:groupmode="layer"
     inkscape:label="ink_ext_XXXXXX"
     transform="matrix(1.3333333,0,0,-1.3333333,0,273.72)"><path
       style="fill:none;stroke:#1476c6;stroke-width:1.33333325;stroke-linecap:butt;stroke-linejoin:miter;stroke-miterlimit:4;stroke-dasharray:none;stroke-opacity:1"
       d="M 136.85742 0.671875 C 102.00277 0.671875 67.149107 13.967881 40.556641 40.560547 C -12.629318 93.745879 -12.629318 179.98055 40.556641 233.16602 C 93.741573 286.34985 179.97482 286.34985 233.16016 233.16602 C 286.34415 179.98055 286.34282 93.745879 233.16016 40.560547 C 206.56749 13.967881 171.71207 0.671875 136.85742 0.671875 z M 136.85742 6.2832031 C 170.27577 6.2832031 203.69474 19.031964 229.19141 44.529297 C 280.18607 95.522629 280.18607 178.203 229.19141 229.19727 C 178.19807 280.19104 95.51717 280.19104 44.523438 229.19727 C -6.4708679 178.20407 -6.4708679 95.522629 44.523438 44.529297 C 70.02057 19.031964 103.43907 6.2832031 136.85742 6.2832031 z "
       transform="matrix(0.75000002,0,0,-0.75000002,0,205.29001)"
       id="path16" /><path
       inkscape:connector-curvature="0"
       id="path20"
       style="fill:#ff5cff;fill-opacity:1;fill-rule:nonzero;stroke:none;stroke-width:0.1"
       d="M 171.105,152.084 88.9047,69.8828 H 128.007 L 99.0867,40.9629 H 40.8223 V 99.2281 L 69.7422,128.148 V 89.0449 l 82.1998,82.2011 19.163,-19.162" /></g></svg>