<?xml version="1.0" encoding="UTF-8" standalone="no"?>
<!-- Created with Inkscape (http://www.inkscape.org/) -->

<svg
   xmlns:dc="http://purl.org/dc/elements/1.1/"
   xmlns:cc="http://creativecommons.org/ns#"
   xmlns:rdf="http://www.w3.org/1999/02/22-rdf-syntax-ns#"
   xmlns:svg="http://www.w3.org/2000/svg"
   xmlns="http://www.w3.org/2000/svg"
   xmlns:sodipodi="http://sodipodi.sourceforge.net/DTD/sodipodi-0.dtd"
   xmlns:inkscape="http://www.inkscape.org/namespaces/inkscape"
   version="1.1"
   id="svg2"
   xml:space="preserve"
   width="273.72"
   height="273.72"
   viewBox="0 0 273.72 273.72"
   sodipodi:docname="610_base.svg"
   inkscape:version="0.92.4 (5da689c313, 2019-01-14)"><metadata
     id="metadata8"><rdf:RDF><cc:Work
         rdf:about=""><dc:format>image/svg+xml</dc:format><dc:type
           rdf:resource="http://purl.org/dc/dcmitype/StillImage" /><dc:title></dc:title></cc:Work></rdf:RDF></metadata><defs
     id="defs6" /><sodipodi:namedview
     pagecolor="#ffffff"
     bordercolor="#666666"
     borderopacity="1"
     objecttolerance="10"
     gridtolerance="10"
     guidetolerance="10"
     inkscape:pageopacity="0"
     inkscape:pageshadow="2"
     inkscape:window-width="1920"
     inkscape:window-height="1057"
     id="namedview4"
     showgrid="false"
     inkscape:zoom="1.7243899"
     inkscape:cx="40.909381"
     inkscape:cy="93.411712"
     inkscape:window-x="-8"
     inkscape:window-y="-8"
     inkscape:window-maximized="1"
     inkscape:current-layer="g10" /><g
     id="g10"
     inkscape:groupmode="layer"
     inkscape:label="ink_ext_XXXXXX"
     transform="matrix(1.3333333,0,0,-1.3333333,0,273.72)"><g
       id="g12"
       transform="scale(0.1)"><path
         d="m 304.172,1748.69 c 398.887,398.89 1045.638,398.89 1444.528,0 398.87,-398.89 398.88,-1045.639 0,-1444.53 -398.89,-398.8788 -1045.641,-398.8788 -1444.528,0 -398.8947,398.891 -398.8947,1045.64 0,1444.53"
         style="fill:#ffffff;fill-opacity:1;fill-rule:nonzero;stroke:none"
         id="path14"
         inkscape:connector-curvature="0" /><path
         d="m 304.172,1748.69 c 398.887,398.89 1045.638,398.89 1444.528,0 398.87,-398.89 398.88,-1045.639 0,-1444.53 -398.89,-398.8788 -1045.641,-398.8788 -1444.528,0 -398.8947,398.891 -398.8947,1045.64 0,1444.53 z"
         style="fill:none;stroke:#1476c6;stroke-width:10;stroke-linecap:butt;stroke-linejoin:miter;stroke-miterlimit:4;stroke-dasharray:none;stroke-opacity:1"
         id="path16"
         inkscape:connector-curvature="0" /><path
         d="m 333.926,1718.93 c 382.457,382.46 1002.554,382.46 1385.004,0 382.46,-382.45 382.46,-1002.551 0,-1385.008 -382.45,-382.4533 -1002.551,-382.4533 -1385.004,0 -382.4573,382.449 -382.4573,1002.558 0,1385.008"
         style="fill:#1476c6;fill-opacity:1;fill-rule:nonzero;stroke:none"
         id="path18"
         inkscape:connector-curvature="0" /><path
         d="M 1711.05,1520.84 889.047,698.828 H 1280.07 L 990.867,409.629 H 408.223 V 992.281 L 697.422,1281.48 V 890.449 l 821.998,822.011 191.63,-191.62"
         style="fill:#ffffff;fill-opacity:1;fill-rule:nonzero;stroke:none"
         id="path20"
         inkscape:connector-curvature="0" /></g></g></svg>