<?xml version="1.0" encoding="UTF-8" standalone="no"?>
<!-- Created with Inkscape (http://www.inkscape.org/) -->

<svg
   xmlns:dc="http://purl.org/dc/elements/1.1/"
   xmlns:cc="http://creativecommons.org/ns#"
   xmlns:rdf="http://www.w3.org/1999/02/22-rdf-syntax-ns#"
   xmlns:svg="http://www.w3.org/2000/svg"
   xmlns="http://www.w3.org/2000/svg"
   xmlns:sodipodi="http://sodipodi.sourceforge.net/DTD/sodipodi-0.dtd"
   xmlns:inkscape="http://www.inkscape.org/namespaces/inkscape"
   version="1.1"
   id="svg2"
   xml:space="preserve"
   width="366.57333"
   height="366.57333"
   viewBox="0 0 366.57333 366.57333"
   sodipodi:docname="611.1.svg"
   inkscape:version="0.92.4 (5da689c313, 2019-01-14)"><metadata
     id="metadata8"><rdf:RDF><cc:Work
         rdf:about=""><dc:format>image/svg+xml</dc:format><dc:type
           rdf:resource="http://purl.org/dc/dcmitype/StillImage" /><dc:title></dc:title></cc:Work></rdf:RDF></metadata><defs
     id="defs6" /><sodipodi:namedview
     pagecolor="#ffffff"
     bordercolor="#666666"
     borderopacity="1"
     objecttolerance="10"
     gridtolerance="10"
     guidetolerance="10"
     inkscape:pageopacity="0"
     inkscape:pageshadow="2"
     inkscape:window-width="1920"
     inkscape:window-height="1057"
     id="namedview4"
     showgrid="false"
     inkscape:zoom="1.8209421"
     inkscape:cx="95.835738"
     inkscape:cy="248.5991"
     inkscape:window-x="-8"
     inkscape:window-y="-8"
     inkscape:window-maximized="1"
     inkscape:current-layer="g10" /><g
     id="g10"
     inkscape:groupmode="layer"
     inkscape:label="ink_ext_XXXXXX"
     transform="matrix(1.3333333,0,0,-1.3333333,0,366.57333)"><g
       id="g12"
       transform="scale(0.1)"><path
         d="M 1374.64,2744.29 C 618.223,2744.29 5,2131.07 5,1374.65 5,618.219 618.223,5 1374.64,5 c 756.43,0 1369.65,613.219 1369.65,1369.65 0,756.42 -613.22,1369.64 -1369.65,1369.64"
         style="fill:#ffffff;fill-opacity:1;fill-rule:nonzero;stroke:none"
         id="path14"
         inkscape:connector-curvature="0" /><path
         d="M 1374.64,2744.29 C 618.223,2744.29 5,2131.07 5,1374.65 5,618.219 618.223,5 1374.64,5 c 756.43,0 1369.65,613.219 1369.65,1369.65 0,756.42 -613.22,1369.64 -1369.65,1369.64 z"
         style="fill:none;stroke:#1476c6;stroke-width:10;stroke-linecap:butt;stroke-linejoin:miter;stroke-miterlimit:4;stroke-dasharray:none;stroke-opacity:1"
         id="path16"
         inkscape:connector-curvature="0" /><path
         d="m 1374.64,2684.29 c 723.28,0 1309.63,-586.36 1309.63,-1309.64 C 2684.27,651.371 2097.92,65.0117 1374.64,65.0117 651.363,65.0117 65.0117,651.371 65.0117,1374.65 c 0,723.28 586.3513,1309.64 1309.6283,1309.64"
         style="fill:#1476c6;fill-opacity:1;fill-rule:nonzero;stroke:none"
         id="path18"
         inkscape:connector-curvature="0" /><path
         d="M 2046.36,693.43 1917.87,822.922 C 1778.1,685.289 1586.28,600.379 1374.64,600.379 c -113.88,0 -222.01,24.609 -319.39,68.762 l 242.72,127.16 -259.65,81 L 697.656,698.66 876.301,358 1135.95,276.988 1028.09,482.668 c 107.46,-41.777 224.32,-64.719 346.55,-64.719 261.77,0 498.98,105.129 671.72,275.481"
         style="fill:#ffffff;fill-opacity:1;fill-rule:nonzero;stroke:none"
         id="path20"
         inkscape:connector-curvature="0" /><path
         d="m 1628.75,2296.98 -47.92,-176.03 c 189.09,-52.23 358.53,-175.88 464.35,-359.17 56.94,-98.63 89.7,-204.57 100.15,-310.99 l -231.49,146.63 59.68,-265.37 325.04,-205.7 205.7,325.04 -59.67,265.37 -124.2,-196.25 c -17.54,113.95 -56.1,226.63 -117.21,332.49 -130.89,226.69 -340.55,379.56 -574.43,443.98"
         style="fill:#ffffff;fill-opacity:1;fill-rule:nonzero;stroke:none"
         id="path22"
         inkscape:connector-curvature="0" /><path
         d="m 448.824,1133.53 176.403,46.54 c -49.309,189.85 -26.946,398.42 78.878,581.72 56.942,98.62 132.321,179.96 219.254,242.22 l -11.25,-273.78 199.981,184.36 15.62,384.34 -384.343,15.62 -199.976,-184.36 232.058,-9.43 C 685.535,2048.59 607.23,1958.86 546.113,1853 415.23,1626.31 387.672,1368.3 448.824,1133.53"
         style="fill:#ffffff;fill-opacity:1;fill-rule:nonzero;stroke:none"
         id="path24"
         inkscape:connector-curvature="0" /></g></g></svg>