<?xml version="1.0" encoding="UTF-8" standalone="no"?>
<!-- Created with Inkscape (http://www.inkscape.org/) -->

<svg
   xmlns:dc="http://purl.org/dc/elements/1.1/"
   xmlns:cc="http://creativecommons.org/ns#"
   xmlns:rdf="http://www.w3.org/1999/02/22-rdf-syntax-ns#"
   xmlns:svg="http://www.w3.org/2000/svg"
   xmlns="http://www.w3.org/2000/svg"
   xmlns:sodipodi="http://sodipodi.sourceforge.net/DTD/sodipodi-0.dtd"
   xmlns:inkscape="http://www.inkscape.org/namespaces/inkscape"
   version="1.1"
   id="svg2"
   xml:space="preserve"
   width="366.57333"
   height="366.57333"
   viewBox="0 0 366.57333 366.57333"
   sodipodi:docname="611.1_inner.svg"
   inkscape:version="0.92.4 (5da689c313, 2019-01-14)"><metadata
     id="metadata8"><rdf:RDF><cc:Work
         rdf:about=""><dc:format>image/svg+xml</dc:format><dc:type
           rdf:resource="http://purl.org/dc/dcmitype/StillImage" /><dc:title></dc:title></cc:Work></rdf:RDF></metadata><defs
     id="defs6" /><sodipodi:namedview
     pagecolor="#ffffff"
     bordercolor="#666666"
     borderopacity="1"
     objecttolerance="10"
     gridtolerance="10"
     guidetolerance="10"
     inkscape:pageopacity="0"
     inkscape:pageshadow="2"
     inkscape:window-width="1920"
     inkscape:window-height="1057"
     id="namedview4"
     showgrid="false"
     inkscape:zoom="1.8209421"
     inkscape:cx="155.54664"
     inkscape:cy="152.50896"
     inkscape:window-x="-8"
     inkscape:window-y="-8"
     inkscape:window-maximized="1"
     inkscape:current-layer="g10" /><g
     id="g10"
     inkscape:groupmode="layer"
     inkscape:label="ink_ext_XXXXXX"
     transform="matrix(1.3333333,0,0,-1.3333333,0,366.57333)"><path
       style="fill:#58ff4e;fill-opacity:1;stroke:#1476c6;stroke-width:1.33333325;stroke-linecap:butt;stroke-linejoin:miter;stroke-miterlimit:4;stroke-dasharray:none;stroke-opacity:1"
       d="M 183.28516 0.66796875 C 82.429559 0.66796875 0.66601562 82.431112 0.66601562 183.28711 C 0.66601562 284.14457 82.429559 365.90625 183.28516 365.90625 C 284.14249 365.90625 365.90625 284.14457 365.90625 183.28711 C 365.90625 82.431112 284.14249 0.66796875 183.28516 0.66796875 z M 183.28516 8.6679688 C 279.72249 8.6679688 357.90234 86.849778 357.90234 183.28711 C 357.90234 279.72431 279.72249 357.9043 183.28516 357.9043 C 86.848225 357.9043 8.6679688 279.72431 8.6679688 183.28711 C 8.6679688 86.849778 86.848225 8.6679688 183.28516 8.6679688 z "
       id="path16"
       transform="matrix(0.75000002,0,0,-0.75000002,0,274.93)" /><path
       inkscape:connector-curvature="0"
       id="path20"
       style="fill:#50ffff;fill-opacity:1;fill-rule:nonzero;stroke:none;stroke-width:0.1"
       d="M 204.636,69.343 191.787,82.2922 C 177.81,68.5289 158.628,60.0379 137.464,60.0379 c -11.388,0 -22.201,2.4609 -31.939,6.8762 l 24.272,12.716 -25.965,8.1 L 69.7656,69.866 87.6301,35.8 113.595,27.6988 102.809,48.2668 c 10.746,-4.1777 22.432,-6.4719 34.655,-6.4719 26.177,0 49.898,10.5129 67.172,27.5481" /><path
       inkscape:connector-curvature="0"
       id="path22"
       style="fill:#50ffff;fill-opacity:1;fill-rule:nonzero;stroke:none;stroke-width:0.1"
       d="m 162.875,229.698 -4.792,-17.603 c 18.909,-5.223 35.853,-17.588 46.435,-35.917 5.694,-9.863 8.97,-20.457 10.015,-31.099 l -23.149,14.663 5.968,-26.537 32.504,-20.57 20.57,32.504 -5.967,26.537 -12.42,-19.625 c -1.754,11.395 -5.61,22.663 -11.721,33.249 -13.089,22.669 -34.055,37.956 -57.443,44.398" /><path
       inkscape:connector-curvature="0"
       id="path24"
       style="fill:#50ffff;fill-opacity:1;fill-rule:nonzero;stroke:none;stroke-width:0.1"
       d="m 44.8824,113.353 17.6403,4.654 c -4.9309,18.985 -2.6946,39.842 7.8878,58.172 5.6942,9.862 13.2321,17.996 21.9254,24.222 l -1.125,-27.378 19.9981,18.436 1.562,38.434 -38.4343,1.562 -19.9976,-18.436 23.2058,-0.943 C 68.5535,204.859 60.723,195.886 54.6113,185.3 41.523,162.631 38.7672,136.83 44.8824,113.353" /></g></svg>