<?xml version="1.0" encoding="UTF-8" standalone="no"?>
<!-- Created with Inkscape (http://www.inkscape.org/) -->

<svg
   xmlns:dc="http://purl.org/dc/elements/1.1/"
   xmlns:cc="http://creativecommons.org/ns#"
   xmlns:rdf="http://www.w3.org/1999/02/22-rdf-syntax-ns#"
   xmlns:svg="http://www.w3.org/2000/svg"
   xmlns="http://www.w3.org/2000/svg"
   xmlns:sodipodi="http://sodipodi.sourceforge.net/DTD/sodipodi-0.dtd"
   xmlns:inkscape="http://www.inkscape.org/namespaces/inkscape"
   version="1.1"
   id="svg2"
   xml:space="preserve"
   width="370.66666"
   height="369.33334"
   viewBox="0 0 370.66666 369.33334"
   sodipodi:docname="614_base.svg"
   inkscape:version="0.92.4 (5da689c313, 2019-01-14)"><metadata
     id="metadata8"><rdf:RDF><cc:Work
         rdf:about=""><dc:format>image/svg+xml</dc:format><dc:type
           rdf:resource="http://purl.org/dc/dcmitype/StillImage" /><dc:title></dc:title></cc:Work></rdf:RDF></metadata><defs
     id="defs6" /><sodipodi:namedview
     pagecolor="#ffffff"
     bordercolor="#666666"
     borderopacity="1"
     objecttolerance="10"
     gridtolerance="10"
     guidetolerance="10"
     inkscape:pageopacity="0"
     inkscape:pageshadow="2"
     inkscape:window-width="1599"
     inkscape:window-height="1027"
     id="namedview4"
     showgrid="false"
     inkscape:zoom="1.2779783"
     inkscape:cx="105.4467"
     inkscape:cy="243.37152"
     inkscape:window-x="1993"
     inkscape:window-y="-8"
     inkscape:window-maximized="1"
     inkscape:current-layer="g10" /><g
     id="g10"
     inkscape:groupmode="layer"
     inkscape:label="ink_ext_XXXXXX"
     transform="matrix(1.3333333,0,0,-1.3333333,0,369.33333)"><g
       id="g12"
       transform="scale(0.1)"><path
         d="m 1390.25,2754.25 c 755.78,-0.31 1368.69,-613.22 1369,-1369 -0.31,-756.281 -613.22,-1369.1875 -1369,-1369 -756.281,-0.1875 -1369.1875,612.719 -1369,1369 -0.1875,755.78 612.719,1368.69 1369,1369"
         style="fill:#ff0000;fill-opacity:1;fill-rule:nonzero;stroke:none"
         id="path14"
         inkscape:connector-curvature="0" /><path
         d="m 1390.25,2754.25 c 755.78,-0.31 1368.69,-613.22 1369,-1369 -0.31,-756.281 -613.22,-1369.1875 -1369,-1369 -756.281,-0.1875 -1369.1875,612.719 -1369,1369 -0.1875,755.78 612.719,1368.69 1369,1369 z"
         style="fill:none;stroke:#ffffff;stroke-width:10;stroke-linecap:butt;stroke-linejoin:miter;stroke-miterlimit:4;stroke-dasharray:none;stroke-opacity:1"
         id="path16"
         inkscape:connector-curvature="0" /><path
         d="m 1445.25,1480.25 936,-540 c 60.84,135.46 94.85,286.13 95,445 -0.15,599.58 -486.42,1085.85 -1086,1086 -362.75,-0.15 -683.762,-177.76 -881,-451 l 936,-540"
         style="fill:#ffffff;fill-opacity:1;fill-rule:nonzero;stroke:none"
         id="path18"
         inkscape:connector-curvature="0" /><path
         d="m 1335.25,1289.25 -936,541 c -61.336,-135.96 -95.348,-286.63 -95,-445 -0.348,-600.078 485.922,-1086.348 1086,-1086 362.25,-0.348 683.26,177.262 881,450 l -936,540"
         style="fill:#ffffff;fill-opacity:1;fill-rule:nonzero;stroke:none"
         id="path20"
         inkscape:connector-curvature="0" /><path
         d="m 1164.25,1642.25 c 9.18,42.29 30.36,80.79 62,112 43.27,43.7 101.41,67.78 163,68 62.09,-0.22 120.23,-24.3 164,-68 43.7,-43.77 67.78,-101.91 68,-164 v -212 l 360,-207 v 419 c -0.22,158.25 -61.75,306.79 -173,419 -112.2,111.25 -260.75,172.77 -419,173 -157.75,-0.23 -306.3,-61.75 -418,-173 -53.551,-54.01 -95.523,-116.01 -125,-183 l 318,-184"
         style="fill:#000000;fill-opacity:1;fill-rule:nonzero;stroke:none"
         id="path22"
         inkscape:connector-curvature="0" /><path
         d="m 1621.25,1124.25 v -375 l 180,-183 180,183 v 167 l -360,208"
         style="fill:#000000;fill-opacity:1;fill-rule:nonzero;stroke:none"
         id="path24"
         inkscape:connector-curvature="0" /><path
         d="m 798.25,1599.25 c -0.211,-2.59 -0.277,-5.67 0,-9 v -1024 l 180,179 180,-179 v 826 l -360,207"
         style="fill:#000000;fill-opacity:1;fill-rule:nonzero;stroke:none"
         id="path26"
         inkscape:connector-curvature="0" /></g></g></svg>