<?xml version="1.0" encoding="UTF-8" standalone="no"?>
<!-- Created with Inkscape (http://www.inkscape.org/) -->

<svg
   xmlns:dc="http://purl.org/dc/elements/1.1/"
   xmlns:cc="http://creativecommons.org/ns#"
   xmlns:rdf="http://www.w3.org/1999/02/22-rdf-syntax-ns#"
   xmlns:svg="http://www.w3.org/2000/svg"
   xmlns="http://www.w3.org/2000/svg"
   xmlns:sodipodi="http://sodipodi.sourceforge.net/DTD/sodipodi-0.dtd"
   xmlns:inkscape="http://www.inkscape.org/namespaces/inkscape"
   version="1.1"
   id="svg2"
   xml:space="preserve"
   width="370.66666"
   height="369.33334"
   viewBox="0 0 370.66666 369.33334"
   sodipodi:docname="614_red.svg"
   inkscape:version="0.92.4 (5da689c313, 2019-01-14)"><metadata
     id="metadata8"><rdf:RDF><cc:Work
         rdf:about=""><dc:format>image/svg+xml</dc:format><dc:type
           rdf:resource="http://purl.org/dc/dcmitype/StillImage" /><dc:title></dc:title></cc:Work></rdf:RDF></metadata><defs
     id="defs6" /><sodipodi:namedview
     pagecolor="#ffffff"
     bordercolor="#666666"
     borderopacity="1"
     objecttolerance="10"
     gridtolerance="10"
     guidetolerance="10"
     inkscape:pageopacity="0"
     inkscape:pageshadow="2"
     inkscape:window-width="1599"
     inkscape:window-height="1027"
     id="namedview4"
     showgrid="false"
     inkscape:zoom="1.2779783"
     inkscape:cx="105.4467"
     inkscape:cy="135.07671"
     inkscape:window-x="1993"
     inkscape:window-y="-8"
     inkscape:window-maximized="1"
     inkscape:current-layer="g10" /><g
     id="g10"
     inkscape:groupmode="layer"
     inkscape:label="ink_ext_XXXXXX"
     transform="matrix(1.3333333,0,0,-1.3333333,0,369.33333)"><path
       style="fill:#ff0000;fill-opacity:1;fill-rule:nonzero;stroke:none;stroke-width:0.13333333"
       d="M 185.36719 2.0996094 C 84.52972 2.1409427 2.8089844 83.86215 2.8339844 184.63281 C 2.8089844 285.47028 84.52972 367.19102 185.36719 367.16602 C 286.13785 367.19102 367.85906 285.47028 367.90039 184.63281 C 367.85906 83.86215 286.13785 2.1409427 185.36719 2.0996094 z M 185.36719 39.833984 C 265.31119 39.853984 330.14602 104.68881 330.16602 184.63281 C 330.14602 205.81548 325.612 225.90546 317.5 243.9668 L 192.69922 171.9668 L 67.900391 99.966797 C 94.19879 63.534798 137.00052 39.853984 185.36719 39.833984 z M 53.232422 125.30078 L 178.0332 197.43359 L 302.83398 269.43359 C 276.46865 305.79866 233.66719 329.47999 185.36719 329.43359 C 105.35679 329.47999 40.520006 264.64321 40.566406 184.63281 C 40.520006 163.51681 45.054289 143.42878 53.232422 125.30078 z "
       id="path14"
       transform="matrix(0.75000002,0,0,-0.75000002,0,277)" /></g></svg>