<?xml version="1.0" encoding="UTF-8" standalone="no"?>
<!-- Created with Inkscape (http://www.inkscape.org/) -->

<svg
   xmlns:dc="http://purl.org/dc/elements/1.1/"
   xmlns:cc="http://creativecommons.org/ns#"
   xmlns:rdf="http://www.w3.org/1999/02/22-rdf-syntax-ns#"
   xmlns:svg="http://www.w3.org/2000/svg"
   xmlns="http://www.w3.org/2000/svg"
   xmlns:sodipodi="http://sodipodi.sourceforge.net/DTD/sodipodi-0.dtd"
   xmlns:inkscape="http://www.inkscape.org/namespaces/inkscape"
   version="1.1"
   id="svg2"
   xml:space="preserve"
   width="370.66666"
   height="369.33334"
   viewBox="0 0 370.66666 369.33334"
   sodipodi:docname="614_black.svg"
   inkscape:version="0.92.4 (5da689c313, 2019-01-14)"><metadata
     id="metadata8"><rdf:RDF><cc:Work
         rdf:about=""><dc:format>image/svg+xml</dc:format><dc:type
           rdf:resource="http://purl.org/dc/dcmitype/StillImage" /><dc:title></dc:title></cc:Work></rdf:RDF></metadata><defs
     id="defs6" /><sodipodi:namedview
     pagecolor="#ffffff"
     bordercolor="#666666"
     borderopacity="1"
     objecttolerance="10"
     gridtolerance="10"
     guidetolerance="10"
     inkscape:pageopacity="0"
     inkscape:pageshadow="2"
     inkscape:window-width="1599"
     inkscape:window-height="1027"
     id="namedview4"
     showgrid="false"
     inkscape:zoom="1.2779783"
     inkscape:cx="30.80599"
     inkscape:cy="135.07671"
     inkscape:window-x="1993"
     inkscape:window-y="-8"
     inkscape:window-maximized="1"
     inkscape:current-layer="g10" /><g
     id="g10"
     inkscape:groupmode="layer"
     inkscape:label="ink_ext_XXXXXX"
     transform="matrix(1.3333333,0,0,-1.3333333,0,369.33333)"><path
       inkscape:connector-curvature="0"
       id="path22"
       style="fill:#000000;fill-opacity:1;fill-rule:nonzero;stroke:none;stroke-width:0.1"
       d="m 116.425,164.225 c 0.918,4.229 3.036,8.079 6.2,11.2 4.327,4.37 10.141,6.778 16.3,6.8 6.209,-0.022 12.023,-2.43 16.4,-6.8 4.37,-4.377 6.778,-10.191 6.8,-16.4 v -21.2 l 36,-20.7 v 41.9 c -0.022,15.825 -6.175,30.679 -17.3,41.9 -11.22,11.125 -26.075,17.277 -41.9,17.3 -15.775,-0.023 -30.63,-6.175 -41.8,-17.3 -5.3551,-5.401 -9.5523,-11.601 -12.5,-18.3 l 31.8,-18.4" /><path
       inkscape:connector-curvature="0"
       id="path24"
       style="fill:#000000;fill-opacity:1;fill-rule:nonzero;stroke:none;stroke-width:0.1"
       d="m 162.125,112.425 v -37.5 l 18,-18.3 18,18.3 v 16.7 l -36,20.8" /><path
       inkscape:connector-curvature="0"
       id="path26"
       style="fill:#000000;fill-opacity:1;fill-rule:nonzero;stroke:none;stroke-width:0.1"
       d="m 79.825,159.925 c -0.0211,-0.259 -0.0277,-0.567 0,-0.9 v -102.4 l 18,17.9 18,-17.9 v 82.6 l -36,20.7" /></g></svg>