<?xml version="1.0" encoding="UTF-8" standalone="no"?>
<!-- Created with Inkscape (http://www.inkscape.org/) -->

<svg
   xmlns:dc="http://purl.org/dc/elements/1.1/"
   xmlns:cc="http://creativecommons.org/ns#"
   xmlns:rdf="http://www.w3.org/1999/02/22-rdf-syntax-ns#"
   xmlns:svg="http://www.w3.org/2000/svg"
   xmlns="http://www.w3.org/2000/svg"
   xmlns:sodipodi="http://sodipodi.sourceforge.net/DTD/sodipodi-0.dtd"
   xmlns:inkscape="http://www.inkscape.org/namespaces/inkscape"
   version="1.1"
   id="svg2"
   xml:space="preserve"
   width="237.33333"
   height="233.33333"
   viewBox="0 0 237.33333 233.33333"
   sodipodi:docname="616_base.svg"
   inkscape:version="0.92.4 (5da689c313, 2019-01-14)"><metadata
     id="metadata8"><rdf:RDF><cc:Work
         rdf:about=""><dc:format>image/svg+xml</dc:format><dc:type
           rdf:resource="http://purl.org/dc/dcmitype/StillImage" /><dc:title></dc:title></cc:Work></rdf:RDF></metadata><defs
     id="defs6" /><sodipodi:namedview
     pagecolor="#ffffff"
     bordercolor="#666666"
     borderopacity="1"
     objecttolerance="10"
     gridtolerance="10"
     guidetolerance="10"
     inkscape:pageopacity="0"
     inkscape:pageshadow="2"
     inkscape:window-width="893"
     inkscape:window-height="480"
     id="namedview4"
     showgrid="false"
     inkscape:zoom="1.0114286"
     inkscape:cx="-4.4265535"
     inkscape:cy="116.66666"
     inkscape:window-x="0"
     inkscape:window-y="0"
     inkscape:window-maximized="0"
     inkscape:current-layer="g10" /><g
     id="g10"
     inkscape:groupmode="layer"
     inkscape:label="ink_ext_XXXXXX"
     transform="matrix(1.3333333,0,0,-1.3333333,0,233.33333)"><g
       id="g12"
       transform="scale(0.1)"><path
         d="m 890.25,1735.25 c 475.08,0.43 860.43,-384.92 860,-860 0.43,-475.582 -384.92,-860.9297 -860,-861 -475.582,0.0703 -860.9297,385.418 -861,861 0.0703,475.08 385.418,860.43 861,860"
         style="fill:#ffffff;fill-opacity:1;fill-rule:nonzero;stroke:none"
         id="path14"
         inkscape:connector-curvature="0" /><path
         d="m 890.25,1735.25 c 475.08,0.43 860.43,-384.92 860,-860 0.43,-475.582 -384.92,-860.9297 -860,-861 -475.582,0.0703 -860.9297,385.418 -861,861 0.0703,475.08 385.418,860.43 861,860 z"
         style="fill:none;stroke:#000000;stroke-width:10;stroke-linecap:butt;stroke-linejoin:miter;stroke-miterlimit:4;stroke-dasharray:none;stroke-opacity:1"
         id="path16"
         inkscape:connector-curvature="0" /><path
         d="m 890.25,1700.25 c 455.5,-0.03 824.97,-369.5 825,-825 -0.03,-456 -369.5,-825.4727 -825,-825 -456,-0.4727 -825.4727,369 -825,825 -0.4727,455.5 369,824.97 825,825"
         style="fill:#ff0000;fill-opacity:1;fill-rule:nonzero;stroke:none"
         id="path18"
         inkscape:connector-curvature="0" /><path
         d="m 1578.25,1042.25 c 21.83,0.25 39.74,-17.66 40,-40 v -255 c -0.26,-21.84 -18.17,-39.746 -40,-40 h -1376 c -22.332,0.254 -40.238,18.16 -40,40 v 255 c -0.238,22.34 17.668,40.25 40,40 h 1376"
         style="fill:#ffffff;fill-opacity:1;fill-rule:nonzero;stroke:none"
         id="path20"
         inkscape:connector-curvature="0" /></g></g></svg>