<?xml version="1.0" encoding="UTF-8" standalone="no"?>
<!-- Created with Inkscape (http://www.inkscape.org/) -->

<svg
   xmlns:dc="http://purl.org/dc/elements/1.1/"
   xmlns:cc="http://creativecommons.org/ns#"
   xmlns:rdf="http://www.w3.org/1999/02/22-rdf-syntax-ns#"
   xmlns:svg="http://www.w3.org/2000/svg"
   xmlns="http://www.w3.org/2000/svg"
   xmlns:sodipodi="http://sodipodi.sourceforge.net/DTD/sodipodi-0.dtd"
   xmlns:inkscape="http://www.inkscape.org/namespaces/inkscape"
   version="1.1"
   id="svg2"
   xml:space="preserve"
   width="237.33333"
   height="233.33333"
   viewBox="0 0 237.33333 233.33333"
   sodipodi:docname="616_red.svg"
   inkscape:version="0.92.4 (5da689c313, 2019-01-14)"><metadata
     id="metadata8"><rdf:RDF><cc:Work
         rdf:about=""><dc:format>image/svg+xml</dc:format><dc:type
           rdf:resource="http://purl.org/dc/dcmitype/StillImage" /><dc:title></dc:title></cc:Work></rdf:RDF></metadata><defs
     id="defs6" /><sodipodi:namedview
     pagecolor="#ffffff"
     bordercolor="#666666"
     borderopacity="1"
     objecttolerance="10"
     gridtolerance="10"
     guidetolerance="10"
     inkscape:pageopacity="0"
     inkscape:pageshadow="2"
     inkscape:window-width="1920"
     inkscape:window-height="1057"
     id="namedview4"
     showgrid="false"
     inkscape:zoom="2.8607521"
     inkscape:cx="54.614212"
     inkscape:cy="138.2958"
     inkscape:window-x="-8"
     inkscape:window-y="-8"
     inkscape:window-maximized="1"
     inkscape:current-layer="g10" /><g
     id="g10"
     inkscape:groupmode="layer"
     inkscape:label="ink_ext_XXXXXX"
     transform="matrix(1.3333333,0,0,-1.3333333,0,233.33333)"><path
       style="fill:#ff0000;fill-opacity:1;fill-rule:nonzero;stroke:none;stroke-width:0.13333333"
       d="M 118.69922 6.6328125 C 57.89922 6.6368125 8.6361921 55.899481 8.6992188 116.63281 C 8.6361921 177.43281 57.89922 226.69584 118.69922 226.63281 C 179.43255 226.69584 228.69522 177.43281 228.69922 116.63281 C 228.69522 55.899481 179.43255 6.6368125 118.69922 6.6328125 z M 26.966797 94.017578 L 210.43359 94.017578 C 213.34426 93.984245 215.73291 96.370943 215.76758 99.349609 L 215.76758 133.34961 C 215.73291 136.26161 213.34426 138.64973 210.43359 138.68359 L 26.966797 138.68359 C 23.989197 138.64973 21.601079 136.26161 21.632812 133.34961 L 21.632812 99.349609 C 21.601079 96.370943 23.989197 93.984245 26.966797 94.017578 z "
       transform="matrix(0.75000002,0,0,-0.75000002,0,175)"
       id="path18" /></g></svg>