<?xml version="1.0" encoding="UTF-8" standalone="no"?>
<!-- Created with Inkscape (http://www.inkscape.org/) -->

<svg
   xmlns:dc="http://purl.org/dc/elements/1.1/"
   xmlns:cc="http://creativecommons.org/ns#"
   xmlns:rdf="http://www.w3.org/1999/02/22-rdf-syntax-ns#"
   xmlns:svg="http://www.w3.org/2000/svg"
   xmlns="http://www.w3.org/2000/svg"
   xmlns:sodipodi="http://sodipodi.sourceforge.net/DTD/sodipodi-0.dtd"
   xmlns:inkscape="http://www.inkscape.org/namespaces/inkscape"
   version="1.1"
   id="svg2"
   xml:space="preserve"
   width="368"
   height="364"
   viewBox="0 0 368 364"
   sodipodi:docname="619_red.svg"
   inkscape:version="0.92.4 (5da689c313, 2019-01-14)"><metadata
     id="metadata8"><rdf:RDF><cc:Work
         rdf:about=""><dc:format>image/svg+xml</dc:format><dc:type
           rdf:resource="http://purl.org/dc/dcmitype/StillImage" /><dc:title></dc:title></cc:Work></rdf:RDF></metadata><defs
     id="defs6" /><sodipodi:namedview
     pagecolor="#ffffff"
     bordercolor="#666666"
     borderopacity="1"
     objecttolerance="10"
     gridtolerance="10"
     guidetolerance="10"
     inkscape:pageopacity="0"
     inkscape:pageshadow="2"
     inkscape:window-width="1920"
     inkscape:window-height="1057"
     id="namedview4"
     showgrid="false"
     inkscape:zoom="1.2967033"
     inkscape:cx="116.41462"
     inkscape:cy="146.58184"
     inkscape:window-x="-8"
     inkscape:window-y="-8"
     inkscape:window-maximized="1"
     inkscape:current-layer="g10" /><g
     id="g10"
     inkscape:groupmode="layer"
     inkscape:label="ink_ext_XXXXXX"
     transform="matrix(1.3333333,0,0,-1.3333333,0,364)"><path
       style="fill:#ff0000;fill-opacity:1;fill-rule:nonzero;stroke:none;stroke-width:0.13333333"
       d="M 184.0332 0.23242188 C 83.612406 0.22842188 2.2285223 81.612133 2.1660156 181.9668 C 2.2285223 282.38759 83.612406 363.77148 184.0332 363.83398 C 284.38787 363.77148 365.77158 282.38759 365.76758 181.9668 C 365.77158 81.612133 284.38787 0.22842188 184.0332 0.23242188 z M 184.0332 36.367188 C 264.3932 36.432521 329.56748 101.6068 329.63281 181.9668 C 329.56748 262.39333 264.3932 327.56694 184.0332 327.56641 C 103.60667 327.56694 38.432527 262.39333 38.433594 181.9668 C 38.432527 101.6068 103.60667 36.432521 184.0332 36.367188 z "
       id="path14"
       transform="matrix(0.75000002,0,0,-0.75000002,0,273.00001)" /></g></svg>