<?xml version="1.0" encoding="UTF-8" standalone="no"?>
<!-- Created with Inkscape (http://www.inkscape.org/) -->

<svg
   xmlns:dc="http://purl.org/dc/elements/1.1/"
   xmlns:cc="http://creativecommons.org/ns#"
   xmlns:rdf="http://www.w3.org/1999/02/22-rdf-syntax-ns#"
   xmlns:svg="http://www.w3.org/2000/svg"
   xmlns="http://www.w3.org/2000/svg"
   xmlns:sodipodi="http://sodipodi.sourceforge.net/DTD/sodipodi-0.dtd"
   xmlns:inkscape="http://www.inkscape.org/namespaces/inkscape"
   version="1.1"
   id="svg2"
   xml:space="preserve"
   width="368"
   height="364"
   viewBox="0 0 368 364"
   sodipodi:docname="619_base.svg"
   inkscape:version="0.92.4 (5da689c313, 2019-01-14)"><metadata
     id="metadata8"><rdf:RDF><cc:Work
         rdf:about=""><dc:format>image/svg+xml</dc:format><dc:type
           rdf:resource="http://purl.org/dc/dcmitype/StillImage" /><dc:title></dc:title></cc:Work></rdf:RDF></metadata><defs
     id="defs6" /><sodipodi:namedview
     pagecolor="#ffffff"
     bordercolor="#666666"
     borderopacity="1"
     objecttolerance="10"
     gridtolerance="10"
     guidetolerance="10"
     inkscape:pageopacity="0"
     inkscape:pageshadow="2"
     inkscape:window-width="893"
     inkscape:window-height="480"
     id="namedview4"
     showgrid="false"
     inkscape:zoom="0.64835165"
     inkscape:cx="-8.0254237"
     inkscape:cy="182"
     inkscape:window-x="-8"
     inkscape:window-y="-8"
     inkscape:window-maximized="1"
     inkscape:current-layer="g10" /><g
     id="g10"
     inkscape:groupmode="layer"
     inkscape:label="ink_ext_XXXXXX"
     transform="matrix(1.3333333,0,0,-1.3333333,0,364)"><g
       id="g12"
       transform="scale(0.1)"><path
         d="m 1380.25,2728.25 c 752.66,0.03 1363.03,-610.34 1363,-1363 0.03,-753.156 -610.34,-1363.53125 -1363,-1364 -753.156,0.46875 -1363.5312,610.844 -1364,1364 0.4688,752.66 610.844,1363.03 1364,1363"
         style="fill:#ff0000;fill-opacity:1;fill-rule:nonzero;stroke:none"
         id="path14"
         inkscape:connector-curvature="0" /><path
         d="m 1380.25,2457.25 c 602.7,-0.49 1091.51,-489.3 1092,-1092 -0.49,-603.199 -489.3,-1092.004 -1092,-1092 -603.199,-0.004 -1092.008,488.801 -1092,1092 -0.008,602.7 488.801,1091.51 1092,1092"
         style="fill:#ffffff;fill-opacity:1;fill-rule:nonzero;stroke:none"
         id="path16"
         inkscape:connector-curvature="0" /><path
         d="m 1911.25,1965.25 c 82.9,-34.9 140.8,-116.61 141,-212 h -36 c -0.12,-106.97 -86.98,-193.82 -194,-194 -72.95,0.18 -136.41,40.32 -170,100 h -337 c 0,0 -93.62,-5.99 -94,94 0.38,66.85 -30.06,126.44 -78,166 l -11,-18 c 42.3,-35.57 68.85,-88.6 69,-148 -0.15,-106.97 -87,-193.82 -194,-194 -107.27,0.18 -194.121,87.03 -194,194 -0.121,107.3 86.73,194.15 194,194 23.98,0.15 47.07,-4.25 68,-12 l 11,18 c -24.51,9.34 -51.2,14.68 -79,15 -2.36,-0.32 -4.58,-0.36 -7,0 v 78 h 49 c 0,0 90.34,-3.17 141,84 15.72,26.93 83,135 83,135 0,0 4.45,7.47 9,6 5.13,-2.4 4.52,-7.14 4,-10 -1.41,-2.95 -38,-171 -38,-171 -0.91,-5.53 -4.54,-21.5 8,-29 12.14,-7.73 24.47,2.43 28,5 l 56,44 51,90 c 0,0 5.6,11.48 0,11 -11.1,0.48 -47.02,2.29 -47,42 v 48 h -17 c 0.08,2.75 -0.03,5.05 0,7 -0.03,41.47 33.29,74.79 74,75 41.48,-0.21 74.8,-33.53 75,-75 -0.2,-16.27 -5.67,-31.64 -15,-44 v -29 h 15 l 94,-41 92,-99 c 0,0 27.08,-19.96 27,-74 h 181 c 0,0 41.38,2.71 41,-56"
         style="fill:#000000;fill-opacity:1;fill-rule:nonzero;stroke:none"
         id="path18"
         inkscape:connector-curvature="0" /><path
         d="m 1092.25,1832.25 c 19.01,-20.44 30.84,-48.25 31,-79 -0.16,-63.89 -52.08,-115.82 -116,-116 -64.191,0.18 -116.117,52.11 -116,116 -0.117,64.22 51.809,116.14 116,116 9.32,0.14 18.52,-0.99 27,-3 l -23,-39 c -1.3,0.02 -2.71,0.06 -4,0 -40.949,0.06 -74.035,-33.02 -74,-74 -0.035,-40.65 33.051,-73.73 74,-74 40.68,0.27 73.76,33.35 74,74 -0.24,15.11 -4.68,29.02 -12,41 l 23,38"
         style="fill:#ffffff;fill-opacity:1;fill-rule:nonzero;stroke:none"
         id="path20"
         inkscape:connector-curvature="0" /><path
         d="m 1814.25,1869.25 c 2.42,0.05 5.14,0.14 8,0 63.95,0.14 115.87,-51.78 116,-116 -0.13,-63.89 -52.05,-115.82 -116,-116 -64.16,0.18 -116.09,52.11 -116,116 -0.09,37.65 17.7,70.98 45,92 l 16,-42 c -11.79,-13.39 -19.01,-30.77 -19,-50 -0.01,-40.65 33.08,-73.73 74,-74 40.7,0.27 73.79,33.35 74,74 -0.21,38.43 -29.29,69.89 -67,74 l -15,42"
         style="fill:#ffffff;fill-opacity:1;fill-rule:nonzero;stroke:none"
         id="path22"
         inkscape:connector-curvature="0" /><path
         d="m 1632.25,1792.25 c 6.11,42.25 31.7,76.88 61,106 3.43,3.61 5.27,15.55 -3,16 -8.18,-0.45 -74,0 -74,0 v -123 c 0,0 -0.46,-9.05 7,-9 7.05,-0.05 8.5,7.89 9,10"
         style="fill:#ffffff;fill-opacity:1;fill-rule:nonzero;stroke:none"
         id="path24"
         inkscape:connector-curvature="0" /><path
         d="m 1483.25,2021.25 c 0,0 -34.87,14.85 -48,62 l -156,-91 154,-50 50,79"
         style="fill:#ffffff;fill-opacity:1;fill-rule:nonzero;stroke:none"
         id="path26"
         inkscape:connector-curvature="0" /><path
         d="m 1384.25,654.25 c 104.69,0.051 348,13 348,13 v -173 c 0,0 23.15,-41.926 84,-42 60.53,0.074 89,41 89,41 v 189 c 45.49,26.102 42,72 42,72 v 242 c -0.3,83.19 -79,88 -79,88 l -43,270 c -17.38,112.71 -108.41,132.3 -146,132 h -589 c -37.82,0.3 -128.855,-19.29 -147,-132 l -43,-270 c 0,0 -77.934,-4.81 -78,-88 v -242 c 0,0 -3.727,-45.898 42,-72 v -189 c 0,0 28.238,-40.926 89,-41 60.61,0.074 84,42 84,42 v 173 c 0,0 243.07,-12.949 347,-13"
         style="fill:#000000;fill-opacity:1;fill-rule:nonzero;stroke:none"
         id="path28"
         inkscape:connector-curvature="0" /><path
         d="m 966.25,1027.25 c 44.32,-0.14 80.39,-36.219 80,-81 0.39,-44.234 -35.68,-80.316 -80,-80 -44.699,-0.316 -80.781,35.766 -81,80 0.219,44.781 36.301,80.86 81,81"
         style="fill:#ffffff;fill-opacity:1;fill-rule:nonzero;stroke:none"
         id="path30"
         inkscape:connector-curvature="0" /><path
         d="m 1384.25,1146.25 c 73.71,0.2 290.23,-12.45 349,-12 74.62,-0.45 61,70 61,70 l -12,81 c -12.96,68.54 -68.97,98.16 -118,104 -8.73,0.58 -170.88,11.96 -186,12 h -187 c -15.35,-0.04 -177.5,-11.42 -186,-12 -49.26,-5.84 -105.27,-35.46 -119,-104 l -12,-81 c 0,0 -12.855,-70.45 62,-70 58.53,-0.45 275.05,12.2 348,12"
         style="fill:#ffffff;fill-opacity:1;fill-rule:nonzero;stroke:none"
         id="path32"
         inkscape:connector-curvature="0" /><path
         d="m 1384.25,957.25 c 31.36,0.176 253.57,-2.984 288,-7 v -40 h -576 v 40 c 35.2,4.016 257.41,7.176 288,7"
         style="fill:#ffffff;fill-opacity:1;fill-rule:nonzero;stroke:none"
         id="path34"
         inkscape:connector-curvature="0" /><path
         d="m 1384.25,733.25 c 31.36,-0.32 253.57,2.84 288,7 v 39 h -576 v -39 c 35.2,-4.16 257.41,-7.32 288,-7"
         style="fill:#ffffff;fill-opacity:1;fill-rule:nonzero;stroke:none"
         id="path36"
         inkscape:connector-curvature="0" /><path
         d="m 1673.25,823.25 v 46 h -577 v -46 h 577"
         style="fill:#ffffff;fill-opacity:1;fill-rule:nonzero;stroke:none"
         id="path38"
         inkscape:connector-curvature="0" /><path
         d="m 1803.25,1027.25 c -44.55,-0.14 -80.63,-36.219 -81,-81 0.37,-44.234 36.45,-80.316 81,-80 44.47,-0.316 80.55,35.766 81,80 -0.45,44.781 -36.53,80.86 -81,81"
         style="fill:#ffffff;fill-opacity:1;fill-rule:nonzero;stroke:none"
         id="path40"
         inkscape:connector-curvature="0" /></g></g></svg>