<?xml version="1.0" encoding="UTF-8" standalone="no"?>
<!-- Created with Inkscape (http://www.inkscape.org/) -->

<svg
   xmlns:dc="http://purl.org/dc/elements/1.1/"
   xmlns:cc="http://creativecommons.org/ns#"
   xmlns:rdf="http://www.w3.org/1999/02/22-rdf-syntax-ns#"
   xmlns:svg="http://www.w3.org/2000/svg"
   xmlns="http://www.w3.org/2000/svg"
   xmlns:sodipodi="http://sodipodi.sourceforge.net/DTD/sodipodi-0.dtd"
   xmlns:inkscape="http://www.inkscape.org/namespaces/inkscape"
   version="1.1"
   id="svg2"
   xml:space="preserve"
   width="368"
   height="364"
   viewBox="0 0 368 364"
   sodipodi:docname="619_black.svg"
   inkscape:version="0.92.4 (5da689c313, 2019-01-14)"><metadata
     id="metadata8"><rdf:RDF><cc:Work
         rdf:about=""><dc:format>image/svg+xml</dc:format><dc:type
           rdf:resource="http://purl.org/dc/dcmitype/StillImage" /><dc:title></dc:title></cc:Work></rdf:RDF></metadata><defs
     id="defs6" /><sodipodi:namedview
     pagecolor="#ffffff"
     bordercolor="#666666"
     borderopacity="1"
     objecttolerance="10"
     gridtolerance="10"
     guidetolerance="10"
     inkscape:pageopacity="0"
     inkscape:pageshadow="2"
     inkscape:window-width="1920"
     inkscape:window-height="1057"
     id="namedview4"
     showgrid="false"
     inkscape:zoom="3.6676308"
     inkscape:cx="152.23132"
     inkscape:cy="240.93175"
     inkscape:window-x="-8"
     inkscape:window-y="-8"
     inkscape:window-maximized="1"
     inkscape:current-layer="g10" /><g
     id="g10"
     inkscape:groupmode="layer"
     inkscape:label="ink_ext_XXXXXX"
     transform="matrix(1.3333333,0,0,-1.3333333,0,364)"><path
       style="fill:#000000;fill-opacity:1;fill-rule:nonzero;stroke:none;stroke-width:0.13333333"
       d="M 186.83398 46.232422 C 181.40598 46.260422 176.9628 50.703089 176.9668 56.232422 C 176.9628 56.492422 176.97746 56.799349 176.9668 57.166016 L 179.23242 57.166016 L 179.23242 63.566406 C 179.22976 68.861073 184.02 69.102016 185.5 69.166016 C 186.24667 69.102016 185.5 70.632812 185.5 70.632812 L 178.69922 82.632812 L 171.23242 88.5 C 170.76176 88.842667 169.11867 90.196682 167.5 89.166016 C 165.828 88.166016 166.31226 86.038115 166.43359 85.300781 C 166.43359 85.300781 171.312 62.893333 171.5 62.5 C 171.56933 62.118667 171.6508 61.486016 170.9668 61.166016 C 170.36013 60.970016 169.76758 61.966797 169.76758 61.966797 C 169.76758 61.966797 160.79522 76.37613 158.69922 79.966797 C 151.94455 91.589463 139.90039 91.166016 139.90039 91.166016 L 133.36719 91.166016 L 133.36719 101.56641 C 133.68985 101.61441 133.98611 101.60907 134.30078 101.56641 C 138.00745 101.60907 141.56598 102.32107 144.83398 103.56641 L 143.36719 105.9668 C 140.57652 104.93346 137.49811 104.34719 134.30078 104.36719 C 119.99811 104.34719 108.41746 115.92576 108.43359 130.23242 C 108.41746 144.49509 119.99811 156.07561 134.30078 156.09961 C 148.56745 156.07561 160.14602 144.49509 160.16602 130.23242 C 160.14602 122.31242 156.6068 115.24267 150.9668 110.5 L 152.43359 108.09961 C 158.82559 113.37428 162.88465 121.31909 162.83398 130.23242 C 162.88465 143.56442 175.36719 142.76758 175.36719 142.76758 L 220.30078 142.76758 C 224.77945 150.72491 233.24013 156.07561 242.9668 156.09961 C 257.23613 156.07561 268.81798 144.49509 268.83398 130.23242 L 273.63281 130.23242 C 273.60615 117.51376 265.88732 106.62013 254.83398 101.9668 C 254.88465 94.138788 249.36719 94.5 249.36719 94.5 L 225.23242 94.5 C 225.24309 87.294667 221.63281 84.632812 221.63281 84.632812 L 209.36719 71.433594 L 196.83398 65.966797 L 194.83398 65.966797 L 194.83398 62.099609 C 196.07798 60.451609 196.80732 58.401755 196.83398 56.232422 C 196.80732 50.703089 192.36465 46.260422 186.83398 46.232422 z M 191.36719 86.232422 C 193.11785 92.519088 197.76758 94.5 197.76758 94.5 L 191.09961 105.0332 L 170.56641 98.367188 L 191.36719 86.232422 z M 215.5 108.76758 C 215.5 108.76758 224.27652 108.82758 225.36719 108.76758 C 226.46985 108.82758 226.22491 110.41906 225.76758 110.90039 C 221.86091 114.78306 218.44748 119.39987 217.63281 125.0332 C 217.56615 125.31454 217.37359 126.37385 216.43359 126.36719 C 215.43893 126.37385 215.5 125.16602 215.5 125.16602 L 215.5 108.76758 z M 134.30078 114.76758 C 135.54345 114.74891 136.76972 114.89802 137.90039 115.16602 L 134.83398 120.36719 C 134.66065 120.36452 134.47278 120.35919 134.30078 120.36719 C 128.84091 120.35919 124.42893 124.76842 124.43359 130.23242 C 124.42893 135.65242 128.84091 140.06361 134.30078 140.09961 C 139.72478 140.06361 144.13402 135.65242 144.16602 130.23242 C 144.13402 128.21776 143.54241 126.36491 142.56641 124.76758 L 145.63281 119.69922 C 148.16748 122.42455 149.74624 126.13242 149.76758 130.23242 C 149.74624 138.75109 142.82345 145.67522 134.30078 145.69922 C 125.74198 145.67522 118.81838 138.75109 118.83398 130.23242 C 118.81838 121.66976 125.74198 114.74891 134.30078 114.76758 z M 241.90039 114.76758 C 242.22306 114.76091 242.58546 114.74891 242.9668 114.76758 C 251.49346 114.74891 258.41626 121.66976 258.43359 130.23242 C 258.41626 138.75109 251.49346 145.67522 242.9668 145.69922 C 234.41213 145.67522 227.488 138.75109 227.5 130.23242 C 227.488 125.21242 229.86 120.76946 233.5 117.9668 L 235.63281 123.56641 C 234.06081 125.35174 233.09828 127.66842 233.09961 130.23242 C 233.09828 135.65242 237.5108 140.06361 242.9668 140.09961 C 248.39346 140.06361 252.80598 135.65242 252.83398 130.23242 C 252.80598 125.10842 248.92839 120.91519 243.90039 120.36719 L 241.90039 114.76758 z "
       transform="matrix(0.75000002,0,0,-0.75000002,0,273.00001)"
       id="path18" /><path
       style="fill:#000000;fill-opacity:1;fill-rule:nonzero;stroke:none;stroke-width:0.13333333"
       d="M 145.36719 165.83398 C 140.32452 165.79398 128.18691 168.40559 125.76758 183.43359 L 120.0332 219.43359 C 120.0332 219.43359 109.64161 220.07402 109.63281 231.16602 L 109.63281 263.43359 C 109.63281 263.43359 109.13549 269.55294 115.23242 273.0332 L 115.23242 298.23242 C 115.23242 298.23242 118.99801 303.68935 127.09961 303.69922 C 135.18094 303.68935 138.30078 298.09961 138.30078 298.09961 L 138.30078 275.0332 C 138.30078 275.0332 170.70907 276.76078 184.56641 276.76758 C 198.52507 276.76078 230.9668 275.0332 230.9668 275.0332 L 230.9668 298.09961 C 230.9668 298.09961 234.05268 303.68935 242.16602 303.69922 C 250.23668 303.68935 254.0332 298.23242 254.0332 298.23242 L 254.0332 273.0332 C 260.09854 269.55294 259.63281 263.43359 259.63281 263.43359 L 259.63281 231.16602 C 259.59281 220.07402 249.09961 219.43359 249.09961 219.43359 L 243.36719 183.43359 C 241.04985 168.40559 228.91239 165.79398 223.90039 165.83398 L 145.36719 165.83398 z M 172.16602 177.16602 L 197.09961 177.16602 C 199.11561 177.17135 220.73639 178.69024 221.90039 178.76758 C 228.43772 179.54624 235.90481 183.49415 237.63281 192.63281 L 239.23242 203.43359 C 239.23242 203.43359 241.04894 212.82758 231.09961 212.76758 C 223.26361 212.82758 194.39441 211.13935 184.56641 211.16602 C 174.83974 211.13935 145.97002 212.82758 138.16602 212.76758 C 128.18535 212.82758 129.90039 203.43359 129.90039 203.43359 L 131.5 192.63281 C 133.33067 183.49415 140.79919 179.54624 147.36719 178.76758 C 148.50052 178.69024 170.11935 177.17135 172.16602 177.16602 z M 128.83398 227.0332 C 134.74332 227.05187 139.552 231.86318 139.5 237.83398 C 139.552 243.73185 134.74332 248.54213 128.83398 248.5 C 122.87412 248.54213 118.0624 243.73185 118.0332 237.83398 C 118.0624 231.86318 122.87412 227.05187 128.83398 227.0332 z M 240.43359 227.0332 C 246.36293 227.05187 251.17242 231.86318 251.23242 237.83398 C 251.17242 243.73185 246.36293 248.54213 240.43359 248.5 C 234.49359 248.54213 229.68215 243.73185 229.63281 237.83398 C 229.68215 231.86318 234.49359 227.05187 240.43359 227.0332 z M 184.56641 236.36719 C 188.74774 236.34372 218.37613 236.76531 222.9668 237.30078 L 222.9668 242.63281 L 146.16602 242.63281 L 146.16602 237.30078 C 150.85935 236.76531 180.48774 236.34372 184.56641 236.36719 z M 146.16602 248.09961 L 223.09961 248.09961 L 223.09961 254.23242 L 146.16602 254.23242 L 146.16602 248.09961 z M 146.16602 260.09961 L 222.9668 260.09961 L 222.9668 265.30078 C 218.37613 265.85545 188.74774 266.27509 184.56641 266.23242 C 180.48774 266.27509 150.85935 265.85545 146.16602 265.30078 L 146.16602 260.09961 z "
       transform="matrix(0.75000002,0,0,-0.75000002,0,273.00001)"
       id="path28" /></g></svg>