<?xml version="1.0" encoding="UTF-8" standalone="no"?>
<!-- Created with Inkscape (http://www.inkscape.org/) -->

<svg
   xmlns:dc="http://purl.org/dc/elements/1.1/"
   xmlns:cc="http://creativecommons.org/ns#"
   xmlns:rdf="http://www.w3.org/1999/02/22-rdf-syntax-ns#"
   xmlns:svg="http://www.w3.org/2000/svg"
   xmlns="http://www.w3.org/2000/svg"
   xmlns:sodipodi="http://sodipodi.sourceforge.net/DTD/sodipodi-0.dtd"
   xmlns:inkscape="http://www.inkscape.org/namespaces/inkscape"
   version="1.1"
   id="svg2"
   xml:space="preserve"
   width="366.66666"
   height="364"
   viewBox="0 0 366.66666 364"
   sodipodi:docname="622.2_base.svg"
   inkscape:version="0.92.4 (5da689c313, 2019-01-14)"><metadata
     id="metadata8"><rdf:RDF><cc:Work
         rdf:about=""><dc:format>image/svg+xml</dc:format><dc:type
           rdf:resource="http://purl.org/dc/dcmitype/StillImage" /><dc:title></dc:title></cc:Work></rdf:RDF></metadata><defs
     id="defs6" /><sodipodi:namedview
     pagecolor="#ffffff"
     bordercolor="#666666"
     borderopacity="1"
     objecttolerance="10"
     gridtolerance="10"
     guidetolerance="10"
     inkscape:pageopacity="0"
     inkscape:pageshadow="2"
     inkscape:window-width="1920"
     inkscape:window-height="1057"
     id="namedview4"
     showgrid="false"
     inkscape:zoom="0.64835165"
     inkscape:cx="-8.6920955"
     inkscape:cy="182"
     inkscape:window-x="-8"
     inkscape:window-y="-8"
     inkscape:window-maximized="1"
     inkscape:current-layer="g10" /><g
     id="g10"
     inkscape:groupmode="layer"
     inkscape:label="ink_ext_XXXXXX"
     transform="matrix(1.3333333,0,0,-1.3333333,0,364)"><g
       id="g12"
       transform="scale(0.1)"><path
         d="m 1375.25,2728.25 c 752.66,0.03 1363.03,-610.34 1363,-1363 0.03,-753.156 -610.34,-1363.53125 -1363,-1364 -753.16,0.46875 -1363.5312,610.844 -1364,1364 0.4688,752.66 610.84,1363.03 1364,1363"
         style="fill:#808080;fill-opacity:1;fill-rule:nonzero;stroke:none"
         id="path14"
         inkscape:connector-curvature="0" /><path
         d="m 1375.25,2457.25 c 602.7,-0.49 1091.51,-489.3 1092,-1092 -0.49,-603.199 -489.3,-1092.004 -1092,-1092 -603.203,-0.004 -1092.008,488.801 -1092,1092 -0.008,602.7 488.797,1091.51 1092,1092"
         style="fill:#ffffff;fill-opacity:1;fill-rule:nonzero;stroke:none"
         id="path16"
         inkscape:connector-curvature="0" /><path
         d="m 713.25,1217.25 c 82.961,-0.2 149.895,-67.12 150,-150 -0.105,-82.254 -67.039,-149.184 -150,-149 -82.164,-0.184 -149.098,66.746 -149,149 -0.098,82.88 66.836,149.8 149,150"
         style="fill:#808080;fill-opacity:1;fill-rule:nonzero;stroke:none"
         id="path18"
         inkscape:connector-curvature="0" /><path
         d="m 1896.25,1217.25 c 82.58,-0.2 149.52,-67.12 150,-150 -0.48,-82.254 -67.42,-149.184 -150,-149 -82.54,-0.184 -149.48,66.746 -149,149 -0.48,82.88 66.46,149.8 149,150"
         style="fill:#808080;fill-opacity:1;fill-rule:nonzero;stroke:none"
         id="path20"
         inkscape:connector-curvature="0" /><path
         d="m 612.25,1692.25 c 0,0 -81.074,2.96 -97,-88 l -39,-220 c 0,0 -41.977,-10.57 -42,-55 0.023,-10.32 2,-22 2,-22 l 52,-239 h 60 c -0.113,91.19 73.988,164.82 165,165 91.809,-0.18 165.91,-74.28 166,-166 h 852 c -0.49,91.72 73.61,165.82 165,166 91.43,-0.18 165.53,-74.28 166,-166 h 173 v 708 c 0,0 1.11,42.03 -37,42 h -1178 c -38.203,0.03 -38,-42 -38,-42 v -331 h -76 v 204 c 0,0 -0.691,42.24 -36,42 l -258,2"
         style="fill:#808080;fill-opacity:1;fill-rule:nonzero;stroke:none"
         id="path22"
         inkscape:connector-curvature="0" /><path
         d="m 713.25,1142.25 c 41.68,0.06 75.145,-33.41 75,-75 0.145,-40.97 -33.32,-74.437 -75,-74 -40.883,-0.437 -74.352,33.03 -74,74 -0.352,41.59 33.117,75.06 74,75"
         style="fill:#ffffff;fill-opacity:1;fill-rule:nonzero;stroke:none"
         id="path24"
         inkscape:connector-curvature="0" /><path
         d="m 1896.25,1142.25 c 41.3,0.06 74.77,-33.41 75,-75 -0.23,-40.97 -33.7,-74.437 -75,-74 -41.26,-0.437 -74.73,33.03 -75,74 0.27,41.59 33.74,75.06 75,75"
         style="fill:#ffffff;fill-opacity:1;fill-rule:nonzero;stroke:none"
         id="path26"
         inkscape:connector-curvature="0" /><path
         d="m 546.25,1444.25 h 226 v 187 l -149,1 c 0,0 -44.098,-0.59 -48,-28 l -29,-160"
         style="fill:#ffffff;fill-opacity:1;fill-rule:nonzero;stroke:none"
         id="path28"
         inkscape:connector-curvature="0" /><path
         d="m 600.25,243.25 c -15.406,10.527 -30.473,21.418 -45,33 l 1909,1909 c 11.1,-15.05 21.95,-30.06 32,-45 l -1896,-1897"
         style="fill:#000000;fill-opacity:1;fill-rule:nonzero;stroke:none"
         id="path30"
         inkscape:connector-curvature="0" /><path
         d="m 511.25,310.25 c -13.98,11.426 -27.992,23.387 -42,36 l 1925,1924 c 12.14,-13.54 24.05,-27.5 36,-42 l -1919,-1918"
         style="fill:#000000;fill-opacity:1;fill-rule:nonzero;stroke:none"
         id="path32"
         inkscape:connector-curvature="0" /><path
         d="m 429.25,383.25 c -12.988,12.383 -25.914,25.34 -39,39 l 1928,1927 c 13.2,-12.62 26.2,-25.59 39,-39 l -1928,-1927"
         style="fill:#000000;fill-opacity:1;fill-rule:nonzero;stroke:none"
         id="path34"
         inkscape:connector-curvature="0" /><path
         d="m 354.25,461.25 c -11.961,13.566 -23.914,27.609 -36,42 l 1919,1918 c 13.85,-11.55 27.88,-23.49 42,-36 l -1925,-1924"
         style="fill:#000000;fill-opacity:1;fill-rule:nonzero;stroke:none"
         id="path36"
         inkscape:connector-curvature="0" /><path
         d="m 285.25,546.25 c -11.41,14.656 -22.27,29.715 -33,45 l 1897,1896 c 14.83,-10.26 29.93,-21.15 45,-32 l -1909,-1909"
         style="fill:#000000;fill-opacity:1;fill-rule:nonzero;stroke:none"
         id="path38"
         inkscape:connector-curvature="0" /></g></g></svg>