<?xml version="1.0" encoding="UTF-8" standalone="no"?>
<!-- Created with Inkscape (http://www.inkscape.org/) -->

<svg
   xmlns:dc="http://purl.org/dc/elements/1.1/"
   xmlns:cc="http://creativecommons.org/ns#"
   xmlns:rdf="http://www.w3.org/1999/02/22-rdf-syntax-ns#"
   xmlns:svg="http://www.w3.org/2000/svg"
   xmlns="http://www.w3.org/2000/svg"
   xmlns:sodipodi="http://sodipodi.sourceforge.net/DTD/sodipodi-0.dtd"
   xmlns:inkscape="http://www.inkscape.org/namespaces/inkscape"
   version="1.1"
   id="svg2"
   xml:space="preserve"
   width="366.66666"
   height="364"
   viewBox="0 0 366.66666 364"
   sodipodi:docname="622.2_black.svg"
   inkscape:version="0.92.4 (5da689c313, 2019-01-14)"><metadata
     id="metadata8"><rdf:RDF><cc:Work
         rdf:about=""><dc:format>image/svg+xml</dc:format><dc:type
           rdf:resource="http://purl.org/dc/dcmitype/StillImage" /><dc:title></dc:title></cc:Work></rdf:RDF></metadata><defs
     id="defs6" /><sodipodi:namedview
     pagecolor="#ffffff"
     bordercolor="#666666"
     borderopacity="1"
     objecttolerance="10"
     gridtolerance="10"
     guidetolerance="10"
     inkscape:pageopacity="0"
     inkscape:pageshadow="2"
     inkscape:window-width="1920"
     inkscape:window-height="1057"
     id="namedview4"
     showgrid="false"
     inkscape:zoom="1.2967033"
     inkscape:cx="-14.557646"
     inkscape:cy="191.30287"
     inkscape:window-x="-8"
     inkscape:window-y="-8"
     inkscape:window-maximized="1"
     inkscape:current-layer="g10" /><g
     id="g10"
     inkscape:groupmode="layer"
     inkscape:label="ink_ext_XXXXXX"
     transform="matrix(1.3333333,0,0,-1.3333333,0,364)"><path
       inkscape:connector-curvature="0"
       id="path30"
       style="fill:#000000;fill-opacity:1;fill-rule:nonzero;stroke:none;stroke-width:0.1"
       d="m 60.025,24.325 c -1.5406,1.0527 -3.0473,2.1418 -4.5,3.3 l 190.9,190.9 c 1.11,-1.505 2.195,-3.006 3.2,-4.5 l -189.6,-189.7" /><path
       inkscape:connector-curvature="0"
       id="path32"
       style="fill:#000000;fill-opacity:1;fill-rule:nonzero;stroke:none;stroke-width:0.1"
       d="m 51.125,31.025 c -1.398,1.1426 -2.7992,2.3387 -4.2,3.6 l 192.5,192.4 c 1.214,-1.354 2.405,-2.75 3.6,-4.2 l -191.9,-191.8" /><path
       inkscape:connector-curvature="0"
       id="path34"
       style="fill:#000000;fill-opacity:1;fill-rule:nonzero;stroke:none;stroke-width:0.1"
       d="m 42.925,38.325 c -1.2988,1.2383 -2.5914,2.534 -3.9,3.9 l 192.8,192.7 c 1.32,-1.262 2.62,-2.559 3.9,-3.9 l -192.8,-192.7" /><path
       inkscape:connector-curvature="0"
       id="path36"
       style="fill:#000000;fill-opacity:1;fill-rule:nonzero;stroke:none;stroke-width:0.1"
       d="m 35.425,46.125 c -1.1961,1.3566 -2.3914,2.7609 -3.6,4.2 l 191.9,191.8 c 1.385,-1.155 2.788,-2.349 4.2,-3.6 l -192.5,-192.4" /><path
       inkscape:connector-curvature="0"
       id="path38"
       style="fill:#000000;fill-opacity:1;fill-rule:nonzero;stroke:none;stroke-width:0.1"
       d="m 28.525,54.625 c -1.141,1.4656 -2.227,2.9715 -3.3,4.5 l 189.7,189.6 c 1.483,-1.026 2.993,-2.115 4.5,-3.2 l -190.9,-190.9" /></g></svg>