<?xml version="1.0" encoding="UTF-8" standalone="no"?>
<!-- Created with Inkscape (http://www.inkscape.org/) -->

<svg
   xmlns:dc="http://purl.org/dc/elements/1.1/"
   xmlns:cc="http://creativecommons.org/ns#"
   xmlns:rdf="http://www.w3.org/1999/02/22-rdf-syntax-ns#"
   xmlns:svg="http://www.w3.org/2000/svg"
   xmlns="http://www.w3.org/2000/svg"
   xmlns:sodipodi="http://sodipodi.sourceforge.net/DTD/sodipodi-0.dtd"
   xmlns:inkscape="http://www.inkscape.org/namespaces/inkscape"
   version="1.1"
   id="svg2"
   xml:space="preserve"
   width="363.54666"
   height="363.54666"
   viewBox="0 0 363.54666 363.54666"
   sodipodi:docname="642_red.svg"
   inkscape:version="0.92.4 (5da689c313, 2019-01-14)"><metadata
     id="metadata8"><rdf:RDF><cc:Work
         rdf:about=""><dc:format>image/svg+xml</dc:format><dc:type
           rdf:resource="http://purl.org/dc/dcmitype/StillImage" /><dc:title></dc:title></cc:Work></rdf:RDF></metadata><defs
     id="defs6" /><sodipodi:namedview
     pagecolor="#ffffff"
     bordercolor="#666666"
     borderopacity="1"
     objecttolerance="10"
     gridtolerance="10"
     guidetolerance="10"
     inkscape:pageopacity="0"
     inkscape:pageshadow="2"
     inkscape:window-width="1920"
     inkscape:window-height="1057"
     id="namedview4"
     showgrid="false"
     inkscape:zoom="0.64916014"
     inkscape:cx="-10.012938"
     inkscape:cy="305.00949"
     inkscape:window-x="-8"
     inkscape:window-y="-8"
     inkscape:window-maximized="1"
     inkscape:current-layer="g10" /><g
     id="g10"
     inkscape:groupmode="layer"
     inkscape:label="ink_ext_XXXXXX"
     transform="matrix(1.3333333,0,0,-1.3333333,0,363.54667)"><path
       style="fill:#e51636;fill-opacity:1;fill-rule:nonzero;stroke:none;stroke-width:0.13333333"
       d="M 181.77148 0.005859375 C 81.383632 0.005859375 0 81.387393 0 181.77539 C -1.8947806e-14 282.16325 81.383632 363.54688 181.77148 363.54688 C 282.15948 363.54687 363.54102 282.16325 363.54102 181.77539 C 363.54102 81.387393 282.15948 0.005859375 181.77148 0.005859375 z M 181.77148 36.208984 C 214.67548 36.208984 245.02882 47.127063 269.41016 65.539062 L 181.77148 153.17578 L 94.132812 65.539062 C 118.51308 47.127063 148.86749 36.208984 181.77148 36.208984 z M 65.533203 94.138672 L 153.16992 181.77539 L 65.533203 269.41406 C 47.12227 245.0338 36.203125 214.67939 36.203125 181.77539 C 36.203125 148.87139 47.12227 118.51867 65.533203 94.138672 z M 298.00781 94.138672 C 316.41715 118.51867 327.33789 148.87139 327.33789 181.77539 C 327.33789 214.67939 316.41715 245.0338 298.00781 269.41406 L 210.36914 181.77539 L 298.00781 94.138672 z M 181.77148 210.375 L 269.41016 298.01367 C 245.02882 316.423 214.67548 327.34375 181.77148 327.34375 C 148.86749 327.34375 118.51308 316.423 94.132812 298.01367 L 181.77148 210.375 z "
       transform="matrix(0.75000002,0,0,-0.75000002,0,272.66001)"
       id="path14" /></g></svg>