<?xml version="1.0" encoding="UTF-8" standalone="no"?>
<!-- Created with Inkscape (http://www.inkscape.org/) -->

<svg
   xmlns:dc="http://purl.org/dc/elements/1.1/"
   xmlns:cc="http://creativecommons.org/ns#"
   xmlns:rdf="http://www.w3.org/1999/02/22-rdf-syntax-ns#"
   xmlns:svg="http://www.w3.org/2000/svg"
   xmlns="http://www.w3.org/2000/svg"
   xmlns:sodipodi="http://sodipodi.sourceforge.net/DTD/sodipodi-0.dtd"
   xmlns:inkscape="http://www.inkscape.org/namespaces/inkscape"
   version="1.1"
   id="svg2"
   xml:space="preserve"
   width="363.54666"
   height="363.54666"
   viewBox="0 0 363.54666 363.54666"
   sodipodi:docname="642_base.svg"
   inkscape:version="0.92.4 (5da689c313, 2019-01-14)"><metadata
     id="metadata8"><rdf:RDF><cc:Work
         rdf:about=""><dc:format>image/svg+xml</dc:format><dc:type
           rdf:resource="http://purl.org/dc/dcmitype/StillImage" /><dc:title></dc:title></cc:Work></rdf:RDF></metadata><defs
     id="defs6" /><sodipodi:namedview
     pagecolor="#ffffff"
     bordercolor="#666666"
     borderopacity="1"
     objecttolerance="10"
     gridtolerance="10"
     guidetolerance="10"
     inkscape:pageopacity="0"
     inkscape:pageshadow="2"
     inkscape:window-width="893"
     inkscape:window-height="480"
     id="namedview4"
     showgrid="false"
     inkscape:zoom="0.64916014"
     inkscape:cx="-10.012938"
     inkscape:cy="181.77333"
     inkscape:window-x="0"
     inkscape:window-y="0"
     inkscape:window-maximized="0"
     inkscape:current-layer="g10" /><g
     id="g10"
     inkscape:groupmode="layer"
     inkscape:label="ink_ext_XXXXXX"
     transform="matrix(1.3333333,0,0,-1.3333333,0,363.54667)"><g
       id="g12"
       transform="scale(0.1)"><path
         d="m 1363.28,2726.56 c 752.91,0 1363.28,-610.37 1363.28,-1363.28 C 2726.56,610.371 2116.19,0 1363.28,0 610.371,0 0,610.371 0,1363.28 0,2116.19 610.371,2726.56 1363.28,2726.56"
         style="fill:#e51636;fill-opacity:1;fill-rule:nonzero;stroke:none"
         id="path14"
         inkscape:connector-curvature="0" /><path
         d="m 1363.28,1577.78 657.29,657.27 c -182.86,138.09 -410.51,219.99 -657.29,219.99 -246.78,0 -474.428,-81.9 -657.28,-219.99 l 657.28,-657.27"
         style="fill:#1476c6;fill-opacity:1;fill-rule:nonzero;stroke:none"
         id="path16"
         inkscape:connector-curvature="0" /><path
         d="M 2235.06,2020.56 1577.77,1363.28 2235.06,706 c 138.07,182.852 219.98,410.5 219.98,657.28 0,246.78 -81.91,474.43 -219.98,657.28"
         style="fill:#1476c6;fill-opacity:1;fill-rule:nonzero;stroke:none"
         id="path18"
         inkscape:connector-curvature="0" /><path
         d="M 1148.78,1363.28 491.504,2020.56 C 353.422,1837.71 271.523,1610.06 271.523,1363.28 271.523,1116.5 353.422,888.852 491.504,706 l 657.276,657.28"
         style="fill:#1476c6;fill-opacity:1;fill-rule:nonzero;stroke:none"
         id="path20"
         inkscape:connector-curvature="0" /><path
         d="M 1363.28,1148.79 706,491.5 c 182.852,-138.07 410.5,-219.98 657.28,-219.98 246.78,0 474.43,81.91 657.29,219.98 l -657.29,657.29"
         style="fill:#1476c6;fill-opacity:1;fill-rule:nonzero;stroke:none"
         id="path22"
         inkscape:connector-curvature="0" /></g></g></svg>