<?xml version="1.0" encoding="UTF-8" standalone="no"?>
<!-- Created with Inkscape (http://www.inkscape.org/) -->

<svg
   xmlns:dc="http://purl.org/dc/elements/1.1/"
   xmlns:cc="http://creativecommons.org/ns#"
   xmlns:rdf="http://www.w3.org/1999/02/22-rdf-syntax-ns#"
   xmlns:svg="http://www.w3.org/2000/svg"
   xmlns="http://www.w3.org/2000/svg"
   xmlns:sodipodi="http://sodipodi.sourceforge.net/DTD/sodipodi-0.dtd"
   xmlns:inkscape="http://www.inkscape.org/namespaces/inkscape"
   version="1.1"
   id="svg2"
   xml:space="preserve"
   width="368"
   height="365.33334"
   viewBox="0 0 368 365.33334"
   sodipodi:docname="670V30_red.svg"
   inkscape:version="0.92.4 (5da689c313, 2019-01-14)"><metadata
     id="metadata8"><rdf:RDF><cc:Work
         rdf:about=""><dc:format>image/svg+xml</dc:format><dc:type
           rdf:resource="http://purl.org/dc/dcmitype/StillImage" /><dc:title></dc:title></cc:Work></rdf:RDF></metadata><defs
     id="defs6" /><sodipodi:namedview
     pagecolor="#ffffff"
     bordercolor="#666666"
     borderopacity="1"
     objecttolerance="10"
     gridtolerance="10"
     guidetolerance="10"
     inkscape:pageopacity="0"
     inkscape:pageshadow="2"
     inkscape:window-width="1920"
     inkscape:window-height="1057"
     id="namedview4"
     showgrid="false"
     inkscape:zoom="1.8271226"
     inkscape:cx="148.9908"
     inkscape:cy="195.3697"
     inkscape:window-x="-8"
     inkscape:window-y="-8"
     inkscape:window-maximized="1"
     inkscape:current-layer="g10" /><g
     id="g10"
     inkscape:groupmode="layer"
     inkscape:label="ink_ext_XXXXXX"
     transform="matrix(1.3333333,0,0,-1.3333333,0,365.33333)"><path
       style="fill:#ff0000;fill-opacity:1;fill-rule:nonzero;stroke:none;stroke-width:0.13333333"
       d="M 184.43359 1.0332031 C 84.027863 1.0865365 2.6434854 82.469726 2.6992188 182.90039 C 2.6434854 283.24572 84.027863 364.62812 184.43359 364.63281 C 284.80292 364.62812 366.18468 283.24572 366.16602 182.90039 C 366.18468 82.469726 284.80292 1.0865365 184.43359 1.0332031 z M 184.43359 37.300781 C 264.80959 37.291448 329.98254 102.46439 330.0332 182.90039 C 329.98254 263.25146 264.80959 328.42545 184.43359 328.36719 C 104.02213 328.42545 38.848518 263.25146 38.833984 182.90039 C 38.848518 102.46439 104.02213 37.291448 184.43359 37.300781 z "
       id="path14"
       transform="matrix(0.75000002,0,0,-0.75000002,0,274)" /></g></svg>