<?xml version="1.0" encoding="UTF-8" standalone="no"?>
<!-- Created with Inkscape (http://www.inkscape.org/) -->

<svg
   xmlns:dc="http://purl.org/dc/elements/1.1/"
   xmlns:cc="http://creativecommons.org/ns#"
   xmlns:rdf="http://www.w3.org/1999/02/22-rdf-syntax-ns#"
   xmlns:svg="http://www.w3.org/2000/svg"
   xmlns="http://www.w3.org/2000/svg"
   xmlns:sodipodi="http://sodipodi.sourceforge.net/DTD/sodipodi-0.dtd"
   xmlns:inkscape="http://www.inkscape.org/namespaces/inkscape"
   version="1.1"
   id="svg2"
   xml:space="preserve"
   width="368"
   height="365.33334"
   viewBox="0 0 368 365.33334"
   sodipodi:docname="670V30_black.svg"
   inkscape:version="0.92.4 (5da689c313, 2019-01-14)"><metadata
     id="metadata8"><rdf:RDF><cc:Work
         rdf:about=""><dc:format>image/svg+xml</dc:format><dc:type
           rdf:resource="http://purl.org/dc/dcmitype/StillImage" /><dc:title></dc:title></cc:Work></rdf:RDF></metadata><defs
     id="defs6" /><sodipodi:namedview
     pagecolor="#ffffff"
     bordercolor="#666666"
     borderopacity="1"
     objecttolerance="10"
     gridtolerance="10"
     guidetolerance="10"
     inkscape:pageopacity="0"
     inkscape:pageshadow="2"
     inkscape:window-width="1920"
     inkscape:window-height="1057"
     id="namedview4"
     showgrid="false"
     inkscape:zoom="1.8271226"
     inkscape:cx="148.9908"
     inkscape:cy="195.3697"
     inkscape:window-x="-8"
     inkscape:window-y="-8"
     inkscape:window-maximized="1"
     inkscape:current-layer="g10" /><g
     id="g10"
     inkscape:groupmode="layer"
     inkscape:label="ink_ext_XXXXXX"
     transform="matrix(1.3333333,0,0,-1.3333333,0,365.33333)"><path
       inkscape:connector-curvature="0"
       id="path18"
       style="fill:#000000;fill-opacity:1;fill-rule:nonzero;stroke:none;stroke-width:0.1"
       d="m 46.425,116.525 22,3.9 c 0.7184,-11.659 10.366,-17.131 19.7,-17.1 9.9617,-0.031 15.721,5.153 15.7,13.8 0.021,8.488 -4.8742,12.664 -15.1,12.7 h -9.8 v 18.4 c 24.058,-0.004 24.1,11.1 24.1,11.1 -0.042,8.191 -6.0902,12.943 -17,12.9 -9.8258,0.043 -16.1617,-3.557 -17.7,-16.2 l -21.6,3.1 c 2.5469,19.479 18.9625,31.287 39.7,31.3 22.318,-0.013 37.149,-13.405 37.1,-30 0.049,-6.012 -0.239,-15.948 -10.9,-21.3 11.813,-6.024 11.237,-11.928 11.2,-22.6 0.037,-20.4312 -9.611,-32.2391 -37.8,-32.2 -22.9297,-0.0391 -36.3211,10.7609 -39.6,32.2" /><path
       style="fill:#000000;fill-opacity:1;fill-rule:nonzero;stroke:none;stroke-width:0.13333333"
       d="M 253.5 112.63281 C 216.476 112.60215 196.50774 135.83255 196.56641 183.69922 C 196.50774 229.14322 215.70891 253.71895 253.76758 253.69922 C 292.12358 253.71895 310.9388 228.76026 310.9668 183.43359 C 310.9388 137.75493 292.50667 112.60215 253.5 112.63281 z M 253.90039 138.36719 C 273.69106 138.33119 282.71389 154.07412 282.69922 183.30078 C 282.71389 213.01678 273.69106 227.99213 253.90039 227.9668 C 234.33106 227.99213 224.92413 211.28878 224.9668 183.30078 C 224.92413 153.11412 233.75639 138.33119 253.90039 138.36719 z "
       transform="matrix(0.75000002,0,0,-0.75000002,0,274)"
       id="path20" /></g></svg>