<?xml version="1.0" encoding="UTF-8" standalone="no"?>
<!-- Created with Inkscape (http://www.inkscape.org/) -->

<svg
   xmlns:dc="http://purl.org/dc/elements/1.1/"
   xmlns:cc="http://creativecommons.org/ns#"
   xmlns:rdf="http://www.w3.org/1999/02/22-rdf-syntax-ns#"
   xmlns:svg="http://www.w3.org/2000/svg"
   xmlns="http://www.w3.org/2000/svg"
   xmlns:sodipodi="http://sodipodi.sourceforge.net/DTD/sodipodi-0.dtd"
   xmlns:inkscape="http://www.inkscape.org/namespaces/inkscape"
   version="1.1"
   id="svg2"
   xml:space="preserve"
   width="368"
   height="365.33334"
   viewBox="0 0 368 365.33334"
   sodipodi:docname="670V30_base.svg"
   inkscape:version="0.92.4 (5da689c313, 2019-01-14)"><metadata
     id="metadata8"><rdf:RDF><cc:Work
         rdf:about=""><dc:format>image/svg+xml</dc:format><dc:type
           rdf:resource="http://purl.org/dc/dcmitype/StillImage" /><dc:title></dc:title></cc:Work></rdf:RDF></metadata><defs
     id="defs6" /><sodipodi:namedview
     pagecolor="#ffffff"
     bordercolor="#666666"
     borderopacity="1"
     objecttolerance="10"
     gridtolerance="10"
     guidetolerance="10"
     inkscape:pageopacity="0"
     inkscape:pageshadow="2"
     inkscape:window-width="1599"
     inkscape:window-height="1027"
     id="namedview4"
     showgrid="false"
     inkscape:zoom="0.64598538"
     inkscape:cx="-204.55368"
     inkscape:cy="182.66667"
     inkscape:window-x="1993"
     inkscape:window-y="-8"
     inkscape:window-maximized="1"
     inkscape:current-layer="g10" /><g
     id="g10"
     inkscape:groupmode="layer"
     inkscape:label="ink_ext_XXXXXX"
     transform="matrix(1.3333333,0,0,-1.3333333,0,365.33333)"><g
       id="g12"
       transform="scale(0.1)"><path
         d="m 1383.25,2732.25 c 752.77,-0.4 1363.14,-610.77 1363,-1364 0.14,-752.59 -610.23,-1362.96484 -1363,-1363 -753.043,0.03516 -1363.418,610.41 -1363,1363 -0.418,753.23 609.957,1363.6 1363,1364"
         style="fill:#ff0000;fill-opacity:1;fill-rule:nonzero;stroke:none"
         id="path14"
         inkscape:connector-curvature="0" /><path
         d="m 1383.25,2460.25 c 602.82,0.07 1091.62,-488.73 1092,-1092 -0.38,-602.633 -489.18,-1091.437 -1092,-1091 -603.086,-0.437 -1091.891,488.367 -1092,1091 0.109,603.27 488.914,1092.07 1092,1092"
         style="fill:#ffffff;fill-opacity:1;fill-rule:nonzero;stroke:none"
         id="path16"
         inkscape:connector-curvature="0" /><path
         d="m 464.25,1165.25 220,39 c 7.184,-116.59 103.66,-171.31 197,-171 99.617,-0.31 157.21,51.53 157,138 0.21,84.88 -48.742,126.64 -151,127 h -98 v 184 c 240.58,-0.04 241,111 241,111 -0.42,81.91 -60.902,129.43 -170,129 -98.258,0.43 -161.617,-35.57 -177,-162 l -216,31 c 25.469,194.79 189.625,312.87 397,313 223.18,-0.13 371.49,-134.05 371,-300 0.49,-60.12 -2.39,-159.48 -109,-213 118.13,-60.24 112.37,-119.28 112,-226 0.37,-204.312 -96.11,-322.391 -378,-322 -229.297,-0.391 -363.211,107.609 -396,322"
         style="fill:#000000;fill-opacity:1;fill-rule:nonzero;stroke:none"
         id="path18"
         inkscape:connector-curvature="0" /><path
         d="m 1903.25,837.25 c -285.44,-0.148 -429.44,184.17 -429,525 -0.44,359 149.32,533.23 427,533 292.55,0.23 430.79,-188.41 431,-531 -0.21,-339.95 -141.33,-527.148 -429,-527"
         style="fill:#000000;fill-opacity:1;fill-rule:nonzero;stroke:none"
         id="path20"
         inkscape:connector-curvature="0" /><path
         d="m 1904.25,1702.25 c -151.08,0.27 -217.32,-110.6 -217,-337 -0.32,-209.91 70.23,-335.19 217,-335 148.43,-0.19 216.11,112.13 216,335 0.11,219.2 -67.57,337.27 -216,337"
         style="fill:#ffffff;fill-opacity:1;fill-rule:nonzero;stroke:none"
         id="path22"
         inkscape:connector-curvature="0" /></g></g></svg>