<?xml version="1.0" encoding="UTF-8" standalone="no"?>
<!-- Created with Inkscape (http://www.inkscape.org/) -->

<svg
   xmlns:dc="http://purl.org/dc/elements/1.1/"
   xmlns:cc="http://creativecommons.org/ns#"
   xmlns:rdf="http://www.w3.org/1999/02/22-rdf-syntax-ns#"
   xmlns:svg="http://www.w3.org/2000/svg"
   xmlns="http://www.w3.org/2000/svg"
   xmlns:sodipodi="http://sodipodi.sourceforge.net/DTD/sodipodi-0.dtd"
   xmlns:inkscape="http://www.inkscape.org/namespaces/inkscape"
   version="1.1"
   id="svg2"
   xml:space="preserve"
   width="418.66666"
   height="364"
   viewBox="0 0 418.66666 364"
   sodipodi:docname="771.svg"
   inkscape:version="0.92.4 (5da689c313, 2019-01-14)"><metadata
     id="metadata8"><rdf:RDF><cc:Work
         rdf:about=""><dc:format>image/svg+xml</dc:format><dc:type
           rdf:resource="http://purl.org/dc/dcmitype/StillImage" /><dc:title></dc:title></cc:Work></rdf:RDF></metadata><defs
     id="defs6" /><sodipodi:namedview
     pagecolor="#ffffff"
     bordercolor="#666666"
     borderopacity="1"
     objecttolerance="10"
     gridtolerance="10"
     guidetolerance="10"
     inkscape:pageopacity="0"
     inkscape:pageshadow="2"
     inkscape:window-width="732"
     inkscape:window-height="480"
     id="namedview4"
     showgrid="false"
     inkscape:zoom="0.64835165"
     inkscape:cx="209.33333"
     inkscape:cy="182"
     inkscape:window-x="0"
     inkscape:window-y="0"
     inkscape:window-maximized="0"
     inkscape:current-layer="g10" /><g
     id="g10"
     inkscape:groupmode="layer"
     inkscape:label="ink_ext_XXXXXX"
     transform="matrix(1.3333333,0,0,-1.3333333,0,364)"><g
       id="g12"
       transform="scale(0.1)"><path
         d="m 2912.25,2.25 c 68.7,1.44141 135.28,37.9844 172,102 37.42,64.395 35.77,140.324 3,201 l -1342,2324 c -36.19,59.32 -101.12,98.71 -175,99 -74.4,-0.29 -139.34,-39.68 -175,-99 l -1342,-2324 c -33.2734,-60.676 -34.9141,-136.605 2,-201 37.2227,-64.0156 103.801,-100.55859 173,-102 h 2684"
         style="fill:#ff0000;fill-opacity:1;fill-rule:nonzero;stroke:none"
         id="path14"
         inkscape:connector-curvature="0" /><path
         d="m 1570.25,2384.25 -1220,-2113 h 2439 z"
         style="fill:#ffffff;fill-opacity:1;fill-rule:nonzero;stroke:none"
         id="path16"
         inkscape:connector-curvature="0" /><path
         d="m 1956.25,554.25 c 53.64,-0.324 97.17,-43.855 97,-98 0.17,-53.254 -43.36,-96.789 -97,-97 -53.77,0.211 -97.3,43.746 -97,97 -0.3,54.145 43.23,97.676 97,98"
         style="fill:#000000;fill-opacity:1;fill-rule:nonzero;stroke:none"
         id="path18"
         inkscape:connector-curvature="0" /><path
         d="m 2168.25,554.25 c 54.15,-0.324 97.68,-43.855 98,-98 -0.32,-53.254 -43.85,-96.789 -98,-97 -53.25,0.211 -96.79,43.746 -97,97 0.21,54.145 43.75,97.676 97,98"
         style="fill:#000000;fill-opacity:1;fill-rule:nonzero;stroke:none"
         id="path20"
         inkscape:connector-curvature="0" /><path
         d="m 2276.25,670.25 h -59 v 303 h -81 c 0,0 -6.83,45.29 24,45 0.42,9.32 0,49 0,49 h -191 c 0,0 0.43,-39.68 0,-49 31.69,0.29 25,-45 25,-45 h -372 c 0,0 9.26,57.79 -44,95 h -90 c -53.28,-37.21 -44,-95 -44,-95 h -248 v 95 h -279 v -120 h 106 v -176 h -166 v -207 h 59 c -7.645,-18.406 -12.051,-38.484 -12,-60 -0.051,-81.773 66.57,-148.391 149,-148 81.93,-0.391 148.54,66.227 149,148 -0.46,21.516 -4.86,41.594 -13,60 h 48 c -7.79,-18.406 -12.2,-38.484 -12,-60 -0.2,-81.773 66.43,-148.391 149,-148 81.78,-0.391 148.4,66.227 148,148 0.4,21.516 -4,41.594 -12,60 h 46 c -8.02,-18.406 -12.42,-38.484 -12,-60 -0.42,-81.773 66.2,-148.391 148,-148 82.55,-0.391 149.17,66.227 149,148 0.17,21.516 -4.23,41.594 -12,60 h 447 v 105"
         style="fill:#000000;fill-opacity:1;fill-rule:nonzero;stroke:none"
         id="path22"
         inkscape:connector-curvature="0" /><path
         d="m 1856.25,1479.25 c -32.16,59.66 -98.82,100 -171,100 -8.71,0 -17.36,-0.61 -26,-2 -36.77,51.21 -96.79,84.38 -165,84 -111.84,0.38 -202.86,-90.64 -203,-203 0.14,-112.2 91.16,-203.23 203,-203 17.99,-0.23 35.01,1.99 51,6 34.93,-37.64 84.73,-61.36 140,-61 29.05,-0.36 56.5,6.15 81,18 24.79,-36 66.08,-59.45 113,-59 26.82,-0.45 51.97,7.35 73,21 0,0 14.35,9.83 28,10 13.44,-0.17 37.4,-24.13 37,-34 0.4,-8.88 0,-77 0,-77 h 94 c 0,0 38.7,299.38 -255,400"
         style="fill:#000000;fill-opacity:1;fill-rule:nonzero;stroke:none"
         id="path24"
         inkscape:connector-curvature="0" /></g></g></svg>