<?xml version="1.0" encoding="UTF-8" standalone="no"?>
<!-- Created with Inkscape (http://www.inkscape.org/) -->

<svg
   xmlns:dc="http://purl.org/dc/elements/1.1/"
   xmlns:cc="http://creativecommons.org/ns#"
   xmlns:rdf="http://www.w3.org/1999/02/22-rdf-syntax-ns#"
   xmlns:svg="http://www.w3.org/2000/svg"
   xmlns="http://www.w3.org/2000/svg"
   xmlns:sodipodi="http://sodipodi.sourceforge.net/DTD/sodipodi-0.dtd"
   xmlns:inkscape="http://www.inkscape.org/namespaces/inkscape"
   version="1.1"
   id="svg2"
   xml:space="preserve"
   width="418.66666"
   height="364"
   viewBox="0 0 418.66666 364"
   sodipodi:docname="771_outline.svg"
   inkscape:version="0.92.4 (5da689c313, 2019-01-14)"><metadata
     id="metadata8"><rdf:RDF><cc:Work
         rdf:about=""><dc:format>image/svg+xml</dc:format><dc:type
           rdf:resource="http://purl.org/dc/dcmitype/StillImage" /><dc:title></dc:title></cc:Work></rdf:RDF></metadata><defs
     id="defs6" /><sodipodi:namedview
     pagecolor="#ffffff"
     bordercolor="#666666"
     borderopacity="1"
     objecttolerance="10"
     gridtolerance="10"
     guidetolerance="10"
     inkscape:pageopacity="0"
     inkscape:pageshadow="2"
     inkscape:window-width="1920"
     inkscape:window-height="1057"
     id="namedview4"
     showgrid="false"
     inkscape:zoom="1.2967033"
     inkscape:cx="272.77109"
     inkscape:cy="272.05023"
     inkscape:window-x="-8"
     inkscape:window-y="-8"
     inkscape:window-maximized="1"
     inkscape:current-layer="g10" /><g
     id="g10"
     inkscape:groupmode="layer"
     inkscape:label="ink_ext_XXXXXX"
     transform="matrix(1.3333333,0,0,-1.3333333,0,364)"><path
       style="fill:#ff0000;fill-opacity:1;fill-rule:nonzero;stroke:none;stroke-width:0.13333333"
       d="M 209.36719 0.23242188 C 199.44719 0.27108854 190.78787 5.5242606 186.0332 13.433594 L 7.0996094 323.30078 C 2.6631562 331.39091 2.4453076 341.51361 7.3671875 350.09961 C 12.330214 358.63502 21.207061 363.50703 30.433594 363.69922 L 388.30078 363.69922 C 397.46078 363.50703 406.33642 358.63502 411.23242 350.09961 C 416.22176 341.51361 416.00215 331.39091 411.63281 323.30078 L 232.69922 13.433594 C 227.87389 5.5242606 219.21785 0.27108854 209.36719 0.23242188 z M 209.36719 46.099609 L 371.90039 327.83398 L 46.699219 327.83398 L 209.36719 46.099609 z "
       id="path14"
       transform="matrix(0.75000002,0,0,-0.75000002,0,273.00001)" /></g></svg>