<?xml version="1.0" encoding="UTF-8" standalone="no"?>
<!-- Created with Inkscape (http://www.inkscape.org/) -->

<svg
   xmlns:dc="http://purl.org/dc/elements/1.1/"
   xmlns:cc="http://creativecommons.org/ns#"
   xmlns:rdf="http://www.w3.org/1999/02/22-rdf-syntax-ns#"
   xmlns:svg="http://www.w3.org/2000/svg"
   xmlns="http://www.w3.org/2000/svg"
   xmlns:sodipodi="http://sodipodi.sourceforge.net/DTD/sodipodi-0.dtd"
   xmlns:inkscape="http://www.inkscape.org/namespaces/inkscape"
   version="1.1"
   id="svg2"
   xml:space="preserve"
   width="418.66666"
   height="364"
   viewBox="0 0 418.66666 364"
   sodipodi:docname="771_inner.svg"
   inkscape:version="0.92.4 (5da689c313, 2019-01-14)"><metadata
     id="metadata8"><rdf:RDF><cc:Work
         rdf:about=""><dc:format>image/svg+xml</dc:format><dc:type
           rdf:resource="http://purl.org/dc/dcmitype/StillImage" /><dc:title></dc:title></cc:Work></rdf:RDF></metadata><defs
     id="defs6" /><sodipodi:namedview
     pagecolor="#ffffff"
     bordercolor="#666666"
     borderopacity="1"
     objecttolerance="10"
     gridtolerance="10"
     guidetolerance="10"
     inkscape:pageopacity="0"
     inkscape:pageshadow="2"
     inkscape:window-width="1478"
     inkscape:window-height="842"
     id="namedview4"
     showgrid="false"
     inkscape:zoom="0.91690769"
     inkscape:cx="384.73831"
     inkscape:cy="63.388636"
     inkscape:window-x="145"
     inkscape:window-y="83"
     inkscape:window-maximized="0"
     inkscape:current-layer="g10" /><g
     id="g10"
     inkscape:groupmode="layer"
     inkscape:label="ink_ext_XXXXXX"
     transform="matrix(1.3333333,0,0,-1.3333333,0,364)"><path
       inkscape:connector-curvature="0"
       id="path18"
       style="fill:#000000;fill-opacity:1;fill-rule:nonzero;stroke:none;stroke-width:0.1"
       d="m 195.625,55.425 c 5.364,-0.0324 9.717,-4.3855 9.7,-9.8 0.017,-5.3254 -4.336,-9.6789 -9.7,-9.7 -5.377,0.0211 -9.73,4.3746 -9.7,9.7 -0.03,5.4145 4.323,9.7676 9.7,9.8" /><path
       inkscape:connector-curvature="0"
       id="path20"
       style="fill:#000000;fill-opacity:1;fill-rule:nonzero;stroke:none;stroke-width:0.1"
       d="m 216.825,55.425 c 5.415,-0.0324 9.768,-4.3855 9.8,-9.8 -0.032,-5.3254 -4.385,-9.6789 -9.8,-9.7 -5.325,0.0211 -9.679,4.3746 -9.7,9.7 0.021,5.4145 4.375,9.7676 9.7,9.8" /><path
       inkscape:connector-curvature="0"
       id="path22"
       style="fill:#000000;fill-opacity:1;fill-rule:nonzero;stroke:none;stroke-width:0.1"
       d="m 227.625,67.025 h -5.9 v 30.3 h -8.1 c 0,0 -0.683,4.529 2.4,4.5 0.042,0.932 0,4.9 0,4.9 h -19.1 c 0,0 0.043,-3.968 0,-4.9 3.169,0.029 2.5,-4.5 2.5,-4.5 h -37.2 c 0,0 0.926,5.779 -4.4,9.5 h -9 c -5.328,-3.721 -4.4,-9.5 -4.4,-9.5 h -24.8 v 9.5 h -27.9 v -12 h 10.6 v -17.6 h -16.6 v -20.7 h 5.9 c -0.7645,-1.8406 -1.2051,-3.8484 -1.2,-6 -0.0051,-8.1773 6.657,-14.8391 14.9,-14.8 8.193,-0.0391 14.854,6.6227 14.9,14.8 -0.046,2.1516 -0.486,4.1594 -1.3,6 h 4.8 c -0.779,-1.8406 -1.22,-3.8484 -1.2,-6 -0.02,-8.1773 6.643,-14.8391 14.9,-14.8 8.178,-0.0391 14.84,6.6227 14.8,14.8 0.04,2.1516 -0.4,4.1594 -1.2,6 h 4.6 c -0.802,-1.8406 -1.242,-3.8484 -1.2,-6 -0.042,-8.1773 6.62,-14.8391 14.8,-14.8 8.255,-0.0391 14.917,6.6227 14.9,14.8 0.017,2.1516 -0.423,4.1594 -1.2,6 h 44.7 v 10.5" /><path
       inkscape:connector-curvature="0"
       id="path24"
       style="fill:#000000;fill-opacity:1;fill-rule:nonzero;stroke:none;stroke-width:0.1"
       d="m 185.625,147.925 c -3.216,5.966 -9.882,10 -17.1,10 -0.871,0 -1.736,-0.061 -2.6,-0.2 -3.677,5.121 -9.679,8.438 -16.5,8.4 -11.184,0.038 -20.286,-9.064 -20.3,-20.3 0.014,-11.22 9.116,-20.323 20.3,-20.3 1.799,-0.023 3.501,0.199 5.1,0.6 3.493,-3.764 8.473,-6.136 14,-6.1 2.905,-0.036 5.65,0.615 8.1,1.8 2.479,-3.6 6.608,-5.945 11.3,-5.9 2.682,-0.045 5.197,0.735 7.3,2.1 0,0 1.435,0.983 2.8,1 1.344,-0.017 3.74,-2.413 3.7,-3.4 0.04,-0.888 0,-7.7 0,-7.7 h 9.4 c 0,0 3.87,29.938 -25.5,40" /></g></svg>