<?xml version="1.0" encoding="UTF-8" standalone="no"?>
<!-- Created with Inkscape (http://www.inkscape.org/) -->

<svg
   xmlns:dc="http://purl.org/dc/elements/1.1/"
   xmlns:cc="http://creativecommons.org/ns#"
   xmlns:rdf="http://www.w3.org/1999/02/22-rdf-syntax-ns#"
   xmlns:svg="http://www.w3.org/2000/svg"
   xmlns="http://www.w3.org/2000/svg"
   xmlns:sodipodi="http://sodipodi.sourceforge.net/DTD/sodipodi-0.dtd"
   xmlns:inkscape="http://www.inkscape.org/namespaces/inkscape"
   version="1.1"
   id="svg2"
   xml:space="preserve"
   width="418.66666"
   height="364"
   viewBox="0 0 418.66666 364"
   sodipodi:docname="950.svg"
   inkscape:version="0.92.4 (5da689c313, 2019-01-14)"><metadata
     id="metadata8"><rdf:RDF><cc:Work
         rdf:about=""><dc:format>image/svg+xml</dc:format><dc:type
           rdf:resource="http://purl.org/dc/dcmitype/StillImage" /><dc:title></dc:title></cc:Work></rdf:RDF></metadata><defs
     id="defs6" /><sodipodi:namedview
     pagecolor="#ffffff"
     bordercolor="#666666"
     borderopacity="1"
     objecttolerance="10"
     gridtolerance="10"
     guidetolerance="10"
     inkscape:pageopacity="0"
     inkscape:pageshadow="2"
     inkscape:window-width="1920"
     inkscape:window-height="1057"
     id="namedview4"
     showgrid="false"
     inkscape:zoom="0.91690769"
     inkscape:cx="56.091782"
     inkscape:cy="187.39252"
     inkscape:window-x="-8"
     inkscape:window-y="-8"
     inkscape:window-maximized="1"
     inkscape:current-layer="g10" /><g
     id="g10"
     inkscape:groupmode="layer"
     inkscape:label="ink_ext_XXXXXX"
     transform="matrix(1.3333333,0,0,-1.3333333,0,364)"><g
       id="g12"
       transform="scale(0.1)"><path
         d="m 2912.25,2.25 c 68.7,1.44141 135.28,37.9844 172,102 37.42,64.395 35.77,140.324 3,201 l -1342,2324 c -36.19,59.32 -101.12,98.71 -175,99 -74.4,-0.29 -139.34,-39.68 -175,-99 l -1342,-2324 c -33.2734,-60.676 -34.9141,-136.605 2,-201 37.2227,-64.0156 103.801,-100.55859 173,-102 h 2684"
         style="fill:#ff0000;fill-opacity:1;fill-rule:nonzero;stroke:none"
         id="path14"
         inkscape:connector-curvature="0" /><path
         d="m 1570.25,2384.25 -1220,-2113 h 2439 z"
         style="fill:#ffffff;fill-opacity:1;fill-rule:nonzero;stroke:none"
         id="path16"
         inkscape:connector-curvature="0" /><path
         d="m 2113.25,963.25 c -41.08,-0.297 -80.12,-8.434 -116,-23 l -119,207 23,62 c 59.34,5.62 80.73,60.1 81,69 -0.27,9.59 -11,10 -11,10 h -257 c -6.03,-0.41 -24.95,-5.25 -25,-25 0.05,-20.75 22,-24 22,-24 l 112,-25 -27,-75 h -546 c 6.64,25.05 11,41 11,41 0,0 4.51,14.87 5,21 -0.49,30.91 -23.19,53.77 -33,59 -1.68,0.96 -8.05,3.82 -8,12 -0.05,8.98 4.93,16.17 16,16 h 114 v 76 h -143 c 0,0 -75.59,-7.17 -76,-84 0.41,-44.98 22.71,-55.2 40,-66 6.18,-3.29 11.46,-17.96 9,-26 -1.26,-4.97 -36.22,-136.14 -65,-245 -32.91,12.895 -68.48,19.703 -106,20 -164.652,-0.297 -298.414,-134.062 -298,-299 -0.414,-165.059 133.348,-298.82 298,-299 165.35,0.18 299.11,133.941 299,299 0.11,100.25 -49.33,189.008 -125,243 3.08,12.316 6.39,24.688 10,37 l 347,-242 c -4.09,-12.191 -6.14,-24.883 -6,-38 -0.14,-69.152 55.87,-125.164 125,-125 12.32,-0.164 24.25,1.633 36,5 l 18,-40 h -32 v -41 h 36 c 5.53,-8.758 15.42,-14.645 27,-15 10.95,0.355 20.84,6.242 26,15 h 35 v 41 h -52 l -26,55 c 26.93,17.457 46.68,44.973 54,77 h 29 c 13.93,-151.809 142.53,-270.82 298,-271 164.88,0.18 298.64,133.941 299,299 -0.36,164.938 -134.12,298.703 -299,299"
         style="fill:#000000;fill-opacity:1;fill-rule:nonzero;stroke:none"
         id="path18"
         inkscape:connector-curvature="0" /><path
         d="m 1664.25,742.25 c 43.27,0.363 78.39,-34.746 78,-78 0.39,-43.371 -34.73,-78.484 -78,-78 -43.35,-0.484 -78.46,34.629 -78,78 -0.46,43.254 34.65,78.363 78,78"
         style="fill:#ffffff;fill-opacity:1;fill-rule:nonzero;stroke:none"
         id="path20"
         inkscape:connector-curvature="0" /><path
         d="m 1669.25,789.25 c -1.77,0.004 -3.4,0.047 -5,0 -13.09,0.047 -25.66,-1.953 -37,-6 l -19,40 h 34 v 40 h -35 c -5.51,9.172 -15.39,15.059 -27,15 -10.93,0.059 -20.82,-5.828 -26,-15 h -36 v -40 h 53 l 25,-54 c -2.8,-1.816 -5.64,-3.844 -8,-6 l -370,258 c 4.3,14.85 8.17,29.27 12,43 h 539 l -100,-275"
         style="fill:#ffffff;fill-opacity:1;fill-rule:nonzero;stroke:none"
         id="path22"
         inkscape:connector-curvature="0" /><path
         d="m 1932.25,902.25 -87,153 -106,-291 c 23.71,-17.875 40.69,-43.582 47,-73 h 29 c 8,85.875 52.18,161.453 117,211"
         style="fill:#ffffff;fill-opacity:1;fill-rule:nonzero;stroke:none"
         id="path24"
         inkscape:connector-curvature="0" /><path
         d="m 1976.25,824.25 c -38.7,-33.398 -66.02,-79.977 -73,-133 h 150 l -77,133"
         style="fill:#ffffff;fill-opacity:1;fill-rule:nonzero;stroke:none"
         id="path26"
         inkscape:connector-curvature="0" /><path
         d="m 2042.25,862.25 104,-182 c 0,0 5.39,-8.137 5,-17 0.39,-26.785 -26.9,-26.785 -40,-27 h -207 c 13.97,-103.227 102.03,-183.059 209,-183 116.41,-0.059 210.88,94.41 211,211 -0.12,116.473 -94.59,210.941 -211,211 -25.37,-0.059 -48.74,-5.285 -71,-13"
         style="fill:#ffffff;fill-opacity:1;fill-rule:nonzero;stroke:none"
         id="path28"
         inkscape:connector-curvature="0" /><path
         d="m 1163.25,814.25 c -10.36,-38.148 -17.4,-64.434 -18,-68 -23.45,-85.727 -111.5,-112.137 -129,-112 -19.844,-0.137 -31.578,12.777 -32,31 0.422,18.16 15.09,23.441 20,28 67.27,51.773 78,108 78,108 0,0 5.93,22.418 15,57 -25.27,10.922 -53.26,16.941 -83,17 -116.184,-0.059 -210.652,-94.527 -211,-211 0.348,-116.59 94.816,-211.059 211,-211 116.88,-0.059 211.35,94.41 211,211 0.35,58.57 -23.57,111.609 -62,150"
         style="fill:#ffffff;fill-opacity:1;fill-rule:nonzero;stroke:none"
         id="path30"
         inkscape:connector-curvature="0" /></g></g></svg>