<?xml version="1.0" encoding="UTF-8" standalone="no"?>
<!-- Created with Inkscape (http://www.inkscape.org/) -->

<svg
   xmlns:dc="http://purl.org/dc/elements/1.1/"
   xmlns:cc="http://creativecommons.org/ns#"
   xmlns:rdf="http://www.w3.org/1999/02/22-rdf-syntax-ns#"
   xmlns:svg="http://www.w3.org/2000/svg"
   xmlns="http://www.w3.org/2000/svg"
   xmlns:sodipodi="http://sodipodi.sourceforge.net/DTD/sodipodi-0.dtd"
   xmlns:inkscape="http://www.inkscape.org/namespaces/inkscape"
   version="1.1"
   id="svg2"
   xml:space="preserve"
   width="418.66666"
   height="364"
   viewBox="0 0 418.66666 364"
   sodipodi:docname="950_inner.svg"
   inkscape:version="0.92.4 (5da689c313, 2019-01-14)"><metadata
     id="metadata8"><rdf:RDF><cc:Work
         rdf:about=""><dc:format>image/svg+xml</dc:format><dc:type
           rdf:resource="http://purl.org/dc/dcmitype/StillImage" /><dc:title></dc:title></cc:Work></rdf:RDF></metadata><defs
     id="defs6" /><sodipodi:namedview
     pagecolor="#ffffff"
     bordercolor="#666666"
     borderopacity="1"
     objecttolerance="10"
     gridtolerance="10"
     guidetolerance="10"
     inkscape:pageopacity="0"
     inkscape:pageshadow="2"
     inkscape:window-width="1920"
     inkscape:window-height="1057"
     id="namedview4"
     showgrid="false"
     inkscape:zoom="1.8338154"
     inkscape:cx="154.0843"
     inkscape:cy="155.32925"
     inkscape:window-x="-8"
     inkscape:window-y="-8"
     inkscape:window-maximized="1"
     inkscape:current-layer="g10" /><g
     id="g10"
     inkscape:groupmode="layer"
     inkscape:label="ink_ext_XXXXXX"
     transform="matrix(1.3333333,0,0,-1.3333333,0,364)"><path
       style="fill:#000000;fill-opacity:1;fill-rule:nonzero;stroke:none;stroke-width:0.13333333"
       d="M 161.63281 182.09961 C 161.63281 182.09961 151.55467 183.05678 151.5 193.30078 C 151.55467 199.29811 154.52865 200.65961 156.83398 202.09961 C 157.65798 202.53828 158.3612 204.49441 158.0332 205.56641 C 157.8652 206.22907 153.20452 223.71776 149.36719 238.23242 C 144.97919 236.51309 140.23509 235.60601 135.23242 235.56641 C 113.27882 235.60601 95.4448 253.44186 95.5 275.43359 C 95.4448 297.44146 113.27882 315.27678 135.23242 315.30078 C 157.27909 315.27678 175.11428 297.44146 175.09961 275.43359 C 175.11428 262.06693 168.52293 250.23214 158.43359 243.0332 C 158.84426 241.39107 159.28624 239.74121 159.76758 238.09961 L 206.0332 270.36719 C 205.48787 271.99265 205.21376 273.68466 205.23242 275.43359 C 205.21376 284.65386 212.68306 292.12148 221.90039 292.09961 C 223.54306 292.12148 225.13255 291.88253 226.69922 291.43359 L 229.09961 296.76758 L 224.83398 296.76758 L 224.83398 302.23242 L 229.63281 302.23242 C 230.37015 303.40016 231.68842 304.18509 233.23242 304.23242 C 234.69242 304.18509 236.01122 303.40016 236.69922 302.23242 L 241.36719 302.23242 L 241.36719 296.76758 L 234.43359 296.76758 L 230.9668 289.43359 C 234.55746 287.10599 237.19002 283.43628 238.16602 279.16602 L 242.0332 279.16602 C 243.89054 299.40722 261.03825 315.27678 281.76758 315.30078 C 303.75158 315.27678 321.58481 297.44146 321.63281 275.43359 C 321.58481 253.44186 303.75158 235.60601 281.76758 235.56641 C 276.29024 235.60601 271.08478 236.69068 266.30078 238.63281 L 250.43359 211.0332 L 253.5 202.76758 C 261.412 202.01824 264.26478 194.75307 264.30078 193.56641 C 264.26478 192.28774 262.83398 192.23242 262.83398 192.23242 L 228.56641 192.23242 C 227.76241 192.28709 225.23909 192.93307 225.23242 195.56641 C 225.23909 198.33307 228.16602 198.76758 228.16602 198.76758 L 243.09961 202.09961 L 239.5 212.09961 L 166.69922 212.09961 C 167.58455 208.75961 168.16602 206.63281 168.16602 206.63281 C 168.16602 206.63281 168.76865 204.65132 168.83398 203.83398 C 168.76865 199.71265 165.74159 196.66413 164.43359 195.9668 C 164.20959 195.8388 163.36052 195.45785 163.36719 194.36719 C 163.36052 193.16985 164.024 192.20976 165.5 192.23242 L 180.69922 192.23242 L 180.69922 182.09961 L 161.63281 182.09961 z M 164.0332 222.09961 L 235.90039 222.09961 L 222.56641 258.76758 C 222.33041 258.76704 222.11372 258.76131 221.90039 258.76758 C 220.15506 258.76131 218.4788 259.02681 216.9668 259.56641 L 214.43359 254.23242 L 218.9668 254.23242 L 218.9668 248.90039 L 214.30078 248.90039 C 213.56611 247.67746 212.24722 246.89252 210.69922 246.90039 C 209.24189 246.89252 207.92309 247.67746 207.23242 248.90039 L 202.43359 248.90039 L 202.43359 254.23242 L 209.5 254.23242 L 212.83398 261.43359 C 212.46065 261.67573 212.08224 261.94496 211.76758 262.23242 L 162.43359 227.83398 C 163.00693 225.85398 163.52254 223.93028 164.0332 222.09961 z M 246.0332 223.30078 L 257.63281 243.69922 C 248.99015 250.30549 243.09987 260.38398 242.0332 271.83398 L 238.16602 271.83398 C 237.32468 267.91158 235.06172 264.48294 231.90039 262.09961 L 246.0332 223.30078 z M 135.23242 247.30078 C 139.19776 247.30865 142.93145 248.11014 146.30078 249.56641 C 145.09145 254.17734 144.30078 257.16602 144.30078 257.16602 C 144.30078 257.16602 142.86972 264.66334 133.90039 271.56641 C 133.24572 272.17427 131.28869 272.87945 131.23242 275.30078 C 131.28869 277.73051 132.85413 279.45186 135.5 279.43359 C 137.83333 279.45186 149.57255 275.93027 152.69922 264.5 C 152.77922 264.02453 153.71828 260.51999 155.09961 255.43359 C 160.22361 260.55239 163.41385 267.62426 163.36719 275.43359 C 163.41385 290.97893 150.81642 303.57427 135.23242 303.56641 C 119.74122 303.57427 107.14601 290.97893 107.09961 275.43359 C 107.14601 259.90386 119.74122 247.30865 135.23242 247.30078 z M 281.76758 247.30078 C 297.28891 247.30865 309.88439 259.90386 309.90039 275.43359 C 309.88439 290.97893 297.28891 303.57427 281.76758 303.56641 C 267.50491 303.57427 255.76306 292.92962 253.90039 279.16602 L 281.5 279.16602 C 283.24667 279.13735 286.88598 279.13774 286.83398 275.56641 C 286.88598 274.38467 286.16602 273.30078 286.16602 273.30078 L 272.30078 249.0332 C 275.26878 248.00454 278.38491 247.30865 281.76758 247.30078 z M 263.5 254.09961 L 273.76758 271.83398 L 253.76758 271.83398 C 254.69824 264.76425 258.34 258.55268 263.5 254.09961 z M 221.90039 265.0332 C 227.66972 264.9848 232.35278 269.66639 232.30078 275.43359 C 232.35278 281.21639 227.66972 285.89852 221.90039 285.83398 C 216.12039 285.89852 211.43867 281.21639 211.5 275.43359 C 211.43867 269.66639 216.12039 264.9848 221.90039 265.0332 z "
       transform="matrix(0.75000002,0,0,-0.75000002,0,273.00001)"
       id="path18" /></g></svg>