<?xml version="1.0" encoding="UTF-8" standalone="no"?>
<!-- Created with Inkscape (http://www.inkscape.org/) -->

<svg
   xmlns:dc="http://purl.org/dc/elements/1.1/"
   xmlns:cc="http://creativecommons.org/ns#"
   xmlns:rdf="http://www.w3.org/1999/02/22-rdf-syntax-ns#"
   xmlns:svg="http://www.w3.org/2000/svg"
   xmlns="http://www.w3.org/2000/svg"
   xmlns:sodipodi="http://sodipodi.sourceforge.net/DTD/sodipodi-0.dtd"
   xmlns:inkscape="http://www.inkscape.org/namespaces/inkscape"
   version="1.1"
   id="svg2"
   xml:space="preserve"
   width="364.85333"
   height="364.85333"
   viewBox="0 0 364.85333 364.85333"
   sodipodi:docname="953.1_base.svg"
   inkscape:version="0.92.4 (5da689c313, 2019-01-14)"><metadata
     id="metadata8"><rdf:RDF><cc:Work
         rdf:about=""><dc:format>image/svg+xml</dc:format><dc:type
           rdf:resource="http://purl.org/dc/dcmitype/StillImage" /><dc:title></dc:title></cc:Work></rdf:RDF></metadata><defs
     id="defs6" /><sodipodi:namedview
     pagecolor="#ffffff"
     bordercolor="#666666"
     borderopacity="1"
     objecttolerance="10"
     gridtolerance="10"
     guidetolerance="10"
     inkscape:pageopacity="0"
     inkscape:pageshadow="2"
     inkscape:window-width="893"
     inkscape:window-height="480"
     id="namedview4"
     showgrid="false"
     inkscape:zoom="0.64683526"
     inkscape:cx="-10.048927"
     inkscape:cy="182.42667"
     inkscape:window-x="0"
     inkscape:window-y="0"
     inkscape:window-maximized="0"
     inkscape:current-layer="g10" /><g
     id="g10"
     inkscape:groupmode="layer"
     inkscape:label="ink_ext_XXXXXX"
     transform="matrix(1.3333333,0,0,-1.3333333,0,364.85333)"><g
       id="g12"
       transform="scale(0.1)"><path
         d="m 1368.22,2731.44 c 752.87,0 1363.22,-610.35 1363.22,-1363.22 C 2731.44,615.352 2121.09,5 1368.22,5 615.344,5 5,615.352 5,1368.22 5,2121.09 615.344,2731.44 1368.22,2731.44"
         style="fill:#ffffff;fill-opacity:1;fill-rule:nonzero;stroke:none"
         id="path14"
         inkscape:connector-curvature="0" /><path
         d="m 1368.22,2731.44 c 752.87,0 1363.22,-610.35 1363.22,-1363.22 C 2731.44,615.352 2121.09,5 1368.22,5 615.344,5 5,615.352 5,1368.22 5,2121.09 615.344,2731.44 1368.22,2731.44 Z"
         style="fill:none;stroke:#1476c6;stroke-width:10;stroke-linecap:butt;stroke-linejoin:miter;stroke-miterlimit:4;stroke-dasharray:none;stroke-opacity:1"
         id="path16"
         inkscape:connector-curvature="0" /><path
         d="m 1368.22,2679.14 c 723.98,0 1310.92,-586.93 1310.92,-1310.92 C 2679.14,644.242 2092.2,57.3008 1368.22,57.3008 644.23,57.3008 57.3008,644.242 57.3008,1368.22 c 0,723.99 586.9292,1310.92 1310.9192,1310.92"
         style="fill:#1476c6;fill-opacity:1;fill-rule:nonzero;stroke:none"
         id="path18"
         inkscape:connector-curvature="0" /><path
         d="m 1775.48,989.43 c 0,0 4.63,-74.481 78.01,-74.481 73.39,0 78.02,74.481 78.02,74.481 h 105.12 c 0,0 4.63,-74.481 78.01,-74.481 73.39,0 78.02,74.481 78.02,74.481 h 111.73 v 36.59 h 189.08 v 339.83 l -63.46,253.22 c -12.56,50.25 -60.17,49.42 -60.17,49.42 h -741.13 l -22.48,22.64 c -18.19,17.77 -35.29,15.21 -35.29,15.21 h -151.81 l 185.78,132.22 -190.88,132.9 v 40 c 0,17.81 -14.45,32.25 -32.26,32.25 h -27.11 c -17.81,0 -32.25,-14.44 -32.25,-32.25 v -40 l -190.88,-132.9 185.78,-132.22 H 1165.5 c 0,0 -17.11,2.56 -35.29,-15.21 l -22.48,-22.64 H 366.594 c 0,0 -47.606,0.83 -60.168,-49.42 l -63.473,-253.22 v -339.83 h 189.09 v -36.59 h 111.73 c 0,0 4.629,-74.481 78.02,-74.481 73.383,0 78.012,74.481 78.012,74.481 h 105.121 c 0,0 4.629,-74.481 78.012,-74.481 73.39,0 78.019,74.481 78.019,74.481 h 814.523"
         style="fill:#ffffff;fill-opacity:1;fill-rule:nonzero;stroke:none"
         id="path20"
         inkscape:connector-curvature="0" /><path
         d="m 1160.29,1366.51 c 17.52,0 31.74,14.21 31.74,31.74 v 144.79 c 0,17.52 -14.22,31.73 -31.74,31.73 H 962.441 c -17.523,0 -31.734,-14.21 -31.734,-31.73 v -144.79 c 0,-17.53 14.211,-31.74 31.734,-31.74 h 197.849"
         style="fill:#1476c6;fill-opacity:1;fill-rule:nonzero;stroke:none"
         id="path22"
         inkscape:connector-curvature="0" /><path
         d="m 453.613,1366.51 c 17.524,0 31.735,14.21 31.735,31.74 v 144.79 c 0,17.52 -14.211,31.73 -31.735,31.73 l -54.504,-0.79 c -28.921,0 -32.515,-30.94 -32.515,-30.94 l -37.688,-144.79 c 0,-17.53 14.203,-31.74 31.735,-31.74 h 92.972"
         style="fill:#1476c6;fill-opacity:1;fill-rule:nonzero;stroke:none"
         id="path24"
         inkscape:connector-curvature="0" /><path
         d="m 851.91,1064.36 c 17.524,0 31.735,14.21 31.735,31.74 v 446.94 c 0,17.52 -14.211,31.73 -31.735,31.73 h -86.652 c -17.528,0 -31.738,-14.21 -31.738,-31.73 V 1096.1 c 0,-17.53 14.21,-31.74 31.738,-31.74 h 86.652"
         style="fill:#1476c6;fill-opacity:1;fill-rule:nonzero;stroke:none"
         id="path26"
         inkscape:connector-curvature="0" /><path
         d="m 663.523,1064.36 c 17.528,0 31.735,14.21 31.735,31.74 v 446.94 c 0,17.52 -14.207,31.73 -31.735,31.73 h -86.648 c -17.527,0 -31.738,-14.21 -31.738,-31.73 V 1096.1 c 0,-17.53 14.211,-31.74 31.738,-31.74 h 86.648"
         style="fill:#1476c6;fill-opacity:1;fill-rule:nonzero;stroke:none"
         id="path28"
         inkscape:connector-curvature="0" /><path
         d="m 1368.22,1968.15 185.78,-129.59 -185.78,-132.22 -185.78,132.22 185.78,129.59"
         style="fill:#1476c6;fill-opacity:1;fill-rule:nonzero;stroke:none"
         id="path30"
         inkscape:connector-curvature="0" /><path
         d="m 1576.15,1366.51 c -17.53,0 -31.74,14.21 -31.74,31.74 v 144.79 c 0,17.52 14.21,31.73 31.74,31.73 h 197.84 c 17.53,0 31.74,-14.21 31.74,-31.73 v -144.79 c 0,-17.53 -14.21,-31.74 -31.74,-31.74 h -197.84"
         style="fill:#1476c6;fill-opacity:1;fill-rule:nonzero;stroke:none"
         id="path32"
         inkscape:connector-curvature="0" /><path
         d="m 2282.82,1366.51 c -17.52,0 -31.73,14.21 -31.73,31.74 v 144.79 c 0,17.52 14.21,31.73 31.73,31.73 l 54.5,-0.79 c 28.93,0 32.52,-30.94 32.52,-30.94 l 37.69,-144.79 c 0,-17.53 -14.2,-31.74 -31.73,-31.74 h -92.98"
         style="fill:#1476c6;fill-opacity:1;fill-rule:nonzero;stroke:none"
         id="path34"
         inkscape:connector-curvature="0" /><path
         d="m 1884.53,1064.36 c -17.53,0 -31.74,14.21 -31.74,31.74 v 446.94 c 0,17.52 14.21,31.73 31.74,31.73 h 86.65 c 17.53,0 31.74,-14.21 31.74,-31.73 V 1096.1 c 0,-17.53 -14.21,-31.74 -31.74,-31.74 h -86.65"
         style="fill:#1476c6;fill-opacity:1;fill-rule:nonzero;stroke:none"
         id="path36"
         inkscape:connector-curvature="0" /><path
         d="m 2072.91,1064.36 c -17.52,0 -31.73,14.21 -31.73,31.74 v 446.94 c 0,17.52 14.21,31.73 31.73,31.73 h 86.66 c 17.51,0 31.73,-14.21 31.73,-31.73 V 1096.1 c 0,-17.53 -14.22,-31.74 -31.73,-31.74 h -86.66"
         style="fill:#1476c6;fill-opacity:1;fill-rule:nonzero;stroke:none"
         id="path38"
         inkscape:connector-curvature="0" /><path
         d="m 1467.06,1366.51 c 17.52,0 31.73,14.21 31.73,31.74 v 144.79 c 0,17.52 -14.21,31.73 -31.73,31.73 h -197.68 c -17.53,0 -31.74,-14.21 -31.74,-31.73 v -144.79 c 0,-17.53 14.21,-31.74 31.74,-31.74 h 197.68"
         style="fill:#1476c6;fill-opacity:1;fill-rule:nonzero;stroke:none"
         id="path40"
         inkscape:connector-curvature="0" /></g></g></svg>