<?xml version="1.0" encoding="UTF-8" standalone="no"?>
<!-- Created with Inkscape (http://www.inkscape.org/) -->

<svg
   xmlns:dc="http://purl.org/dc/elements/1.1/"
   xmlns:cc="http://creativecommons.org/ns#"
   xmlns:rdf="http://www.w3.org/1999/02/22-rdf-syntax-ns#"
   xmlns:svg="http://www.w3.org/2000/svg"
   xmlns="http://www.w3.org/2000/svg"
   xmlns:sodipodi="http://sodipodi.sourceforge.net/DTD/sodipodi-0.dtd"
   xmlns:inkscape="http://www.inkscape.org/namespaces/inkscape"
   version="1.1"
   id="svg2"
   xml:space="preserve"
   width="364.85333"
   height="364.85333"
   viewBox="0 0 364.85333 364.85333"
   sodipodi:docname="953.1_white.svg"
   inkscape:version="0.92.4 (5da689c313, 2019-01-14)"><metadata
     id="metadata8"><rdf:RDF><cc:Work
         rdf:about=""><dc:format>image/svg+xml</dc:format><dc:type
           rdf:resource="http://purl.org/dc/dcmitype/StillImage" /><dc:title></dc:title></cc:Work></rdf:RDF></metadata><defs
     id="defs6" /><sodipodi:namedview
     pagecolor="#ffffff"
     bordercolor="#666666"
     borderopacity="1"
     objecttolerance="10"
     gridtolerance="10"
     guidetolerance="10"
     inkscape:pageopacity="0"
     inkscape:pageshadow="2"
     inkscape:window-width="1920"
     inkscape:window-height="1057"
     id="namedview4"
     showgrid="false"
     inkscape:zoom="1.8295264"
     inkscape:cx="167.20021"
     inkscape:cy="238.88944"
     inkscape:window-x="-8"
     inkscape:window-y="-8"
     inkscape:window-maximized="1"
     inkscape:current-layer="g10" /><g
     id="g10"
     inkscape:groupmode="layer"
     inkscape:label="ink_ext_XXXXXX"
     transform="matrix(1.3333333,0,0,-1.3333333,0,364.85333)"><path
       style="fill:none;stroke:#1476c6;stroke-width:1.33333325;stroke-linecap:butt;stroke-linejoin:miter;stroke-miterlimit:4;stroke-dasharray:none;stroke-opacity:1"
       d="M 182.42969 0.66210938 C 82.046223 0.66210938 0.66601562 82.041164 0.66601562 182.42383 C 0.66601563 282.80623 82.046223 364.1875 182.42969 364.1875 C 282.81235 364.1875 364.19141 282.80623 364.19141 182.42383 C 364.19141 82.041164 282.81235 0.66210938 182.42969 0.66210938 z M 182.42969 7.6347656 C 278.96035 7.6347656 357.21875 85.891831 357.21875 182.42383 C 357.21875 278.95423 278.96035 357.21289 182.42969 357.21289 C 85.89769 357.21289 7.640625 278.95423 7.640625 182.42383 C 7.640625 85.891831 85.89769 7.6347656 182.42969 7.6347656 z "
       id="path16"
       transform="matrix(0.75000002,0,0,-0.75000002,0,273.64)" /><path
       style="fill:#ff0000;fill-opacity:1;fill-rule:nonzero;stroke:none;stroke-width:0.13333333"
       d="M 180.62109 92.359375 C 178.24643 92.359375 176.32227 94.283537 176.32227 96.658203 L 176.32227 101.99219 L 150.87109 119.71289 L 175.64062 137.3418 L 155.40039 137.3418 C 155.40039 137.3418 153.11931 136.99981 150.69531 139.36914 L 147.69727 142.38867 L 48.878906 142.38867 C 48.878906 142.38867 42.532355 142.27656 40.857422 148.97656 L 32.394531 182.74023 L 32.394531 228.05078 L 57.605469 228.05078 L 57.605469 232.92969 L 72.503906 232.92969 C 72.503906 232.92969 73.120784 242.85936 82.90625 242.85938 C 92.69065 242.85938 93.306641 232.92969 93.306641 232.92969 L 107.32422 232.92969 C 107.32422 232.92969 107.94021 242.85936 117.72461 242.85938 C 127.50994 242.85938 128.12695 232.92969 128.12695 232.92969 L 236.73047 232.92969 C 236.73047 232.92969 237.34881 242.85936 247.13281 242.85938 C 256.91815 242.85938 257.53516 232.92969 257.53516 232.92969 L 271.55078 232.92969 C 271.55078 232.92969 272.16717 242.85936 281.95117 242.85938 C 291.7365 242.85938 292.35547 232.92969 292.35547 232.92969 L 307.25195 232.92969 L 307.25195 228.05078 L 332.46289 228.05078 L 332.46289 182.74023 L 324.00195 148.97656 C 322.32729 142.27656 315.97852 142.38867 315.97852 142.38867 L 217.16211 142.38867 L 214.16406 139.36914 C 211.73873 136.99981 209.45898 137.3418 209.45898 137.3418 L 189.2168 137.3418 L 213.98828 119.71289 L 188.53711 101.99219 L 188.53711 96.658203 C 188.53711 94.283537 186.61099 92.359375 184.23633 92.359375 L 180.62109 92.359375 z M 182.42969 102.43359 L 207.19922 119.71289 L 182.42969 137.3418 L 157.6582 119.71289 L 182.42969 102.43359 z M 60.482422 154.88477 C 62.818955 154.88477 64.712891 156.77923 64.712891 159.11523 L 64.712891 178.41992 C 64.712891 180.75726 62.818955 182.65234 60.482422 182.65234 L 48.085938 182.65234 C 45.74833 182.65234 43.853516 180.75726 43.853516 178.41992 L 48.878906 159.11523 C 48.878906 159.11523 49.358711 154.99023 53.214844 154.99023 L 60.482422 154.88477 z M 76.916016 154.88477 L 88.470703 154.88477 C 90.80777 154.88477 92.701172 156.77923 92.701172 159.11523 L 92.701172 218.70703 C 92.701172 221.04436 90.80777 222.93945 88.470703 222.93945 L 76.916016 222.93945 C 74.579082 222.93945 72.685547 221.04436 72.685547 218.70703 L 72.685547 159.11523 C 72.685547 156.77923 74.579082 154.88477 76.916016 154.88477 z M 102.03516 154.88477 L 113.58789 154.88477 C 115.92442 154.88477 117.81836 156.77923 117.81836 159.11523 L 117.81836 218.70703 C 117.81836 221.04436 115.92442 222.93945 113.58789 222.93945 L 102.03516 222.93945 C 99.698066 222.93945 97.802734 221.04436 97.802734 218.70703 L 97.802734 159.11523 C 97.802734 156.77923 99.698066 154.88477 102.03516 154.88477 z M 128.32617 154.88477 L 154.70508 154.88477 C 157.04108 154.88477 158.9375 156.77923 158.9375 159.11523 L 158.9375 178.41992 C 158.9375 180.75726 157.04108 182.65234 154.70508 182.65234 L 128.32617 182.65234 C 125.98977 182.65234 124.09375 180.75726 124.09375 178.41992 L 124.09375 159.11523 C 124.09375 156.77923 125.98977 154.88477 128.32617 154.88477 z M 169.25 154.88477 L 195.60742 154.88477 C 197.94342 154.88477 199.83789 156.77923 199.83789 159.11523 L 199.83789 178.41992 C 199.83789 180.75726 197.94342 182.65234 195.60742 182.65234 L 169.25 182.65234 C 166.91267 182.65234 165.01953 180.75726 165.01953 178.41992 L 165.01953 159.11523 C 165.01953 156.77923 166.91267 154.88477 169.25 154.88477 z M 210.1543 154.88477 L 236.53125 154.88477 C 238.86858 154.88477 240.76367 156.77923 240.76367 159.11523 L 240.76367 178.41992 C 240.76367 180.75726 238.86858 182.65234 236.53125 182.65234 L 210.1543 182.65234 C 207.81696 182.65234 205.92185 180.75726 205.92188 178.41992 L 205.92188 159.11523 C 205.92188 156.77923 207.81696 154.88477 210.1543 154.88477 z M 251.27148 154.88477 L 262.82422 154.88477 C 265.16155 154.88477 267.05664 156.77923 267.05664 159.11523 L 267.05664 218.70703 C 267.05664 221.04436 265.16155 222.93945 262.82422 222.93945 L 251.27148 222.93945 C 248.93415 222.93945 247.03906 221.04436 247.03906 218.70703 L 247.03906 159.11523 C 247.03906 156.77923 248.93415 154.88477 251.27148 154.88477 z M 276.38867 154.88477 L 287.94336 154.88477 C 290.27803 154.88477 292.17383 156.77923 292.17383 159.11523 L 292.17383 218.70703 C 292.17383 221.04436 290.27803 222.93945 287.94336 222.93945 L 276.38867 222.93945 C 274.05267 222.93945 272.1582 221.04436 272.1582 218.70703 L 272.1582 159.11523 C 272.1582 156.77923 274.05267 154.88477 276.38867 154.88477 z M 304.37695 154.88477 L 311.64258 154.99023 C 315.49991 154.99023 315.97852 159.11523 315.97852 159.11523 L 321.00391 178.41992 C 321.00391 180.75726 319.11077 182.65234 316.77344 182.65234 L 304.37695 182.65234 C 302.04095 182.65234 300.14453 180.75726 300.14453 178.41992 L 300.14453 159.11523 C 300.14453 156.77923 302.04095 154.88477 304.37695 154.88477 z "
       transform="matrix(0.75000002,0,0,-0.75000002,0,273.64)"
       id="path20" /></g></svg>