<?xml version="1.0" encoding="UTF-8" standalone="no"?>
<!-- Created with Inkscape (http://www.inkscape.org/) -->

<svg
   xmlns:dc="http://purl.org/dc/elements/1.1/"
   xmlns:cc="http://creativecommons.org/ns#"
   xmlns:rdf="http://www.w3.org/1999/02/22-rdf-syntax-ns#"
   xmlns:svg="http://www.w3.org/2000/svg"
   xmlns="http://www.w3.org/2000/svg"
   xmlns:sodipodi="http://sodipodi.sourceforge.net/DTD/sodipodi-0.dtd"
   xmlns:inkscape="http://www.inkscape.org/namespaces/inkscape"
   version="1.1"
   id="svg2"
   xml:space="preserve"
   width="364.85333"
   height="364.85333"
   viewBox="0 0 364.85333 364.85333"
   sodipodi:docname="956_white.svg"
   inkscape:version="0.92.4 (5da689c313, 2019-01-14)"><metadata
     id="metadata8"><rdf:RDF><cc:Work
         rdf:about=""><dc:format>image/svg+xml</dc:format><dc:type
           rdf:resource="http://purl.org/dc/dcmitype/StillImage" /><dc:title></dc:title></cc:Work></rdf:RDF></metadata><defs
     id="defs6" /><sodipodi:namedview
     pagecolor="#ffffff"
     bordercolor="#666666"
     borderopacity="1"
     objecttolerance="10"
     gridtolerance="10"
     guidetolerance="10"
     inkscape:pageopacity="0"
     inkscape:pageshadow="2"
     inkscape:window-width="1599"
     inkscape:window-height="1027"
     id="namedview4"
     showgrid="false"
     inkscape:zoom="1.8295264"
     inkscape:cx="18.868575"
     inkscape:cy="198.72458"
     inkscape:window-x="1993"
     inkscape:window-y="-8"
     inkscape:window-maximized="1"
     inkscape:current-layer="g10" /><g
     id="g10"
     inkscape:groupmode="layer"
     inkscape:label="ink_ext_XXXXXX"
     transform="matrix(1.3333333,0,0,-1.3333333,0,364.85333)"><path
       style="fill:none;stroke:#1476c6;stroke-width:1.33333325;stroke-linecap:butt;stroke-linejoin:miter;stroke-miterlimit:4;stroke-dasharray:none;stroke-opacity:1"
       d="M 182.42578 0.66796875 C 82.043384 0.66796875 0.66601562 82.046404 0.66601562 182.42773 C 0.66601563 282.8088 82.043384 364.1875 182.42578 364.1875 C 282.80711 364.1875 364.18555 282.8088 364.18555 182.42773 C 364.18555 82.046404 282.80711 0.66796875 182.42578 0.66796875 z M 182.42578 7.640625 C 278.95511 7.640625 357.21289 85.89707 357.21289 182.42773 C 357.21289 278.9572 278.95511 357.21484 182.42578 357.21484 C 85.895517 357.21484 7.640625 278.9572 7.640625 182.42773 C 7.640625 85.89707 85.895517 7.640625 182.42578 7.640625 z "
       transform="matrix(0.75000002,0,0,-0.75000002,0,273.64)"
       id="path16" /><path
       style="fill:#ffffff;fill-opacity:1;fill-rule:nonzero;stroke:none;stroke-width:0.13333333"
       d="M 139.3418 31.808594 C 139.3418 31.808594 130.15039 32.670125 130.15039 42.078125 C 130.15039 47.576792 132.87845 48.827141 135.03125 50.119141 C 135.74992 50.551141 136.39799 52.346229 136.11133 53.351562 C 135.94333 53.936901 131.66366 69.988047 128.13086 83.248047 C 124.11419 81.730714 119.76284 80.896484 115.21484 80.896484 C 95.024864 80.896484 78.65625 97.265735 78.65625 117.45508 C 78.65625 137.64574 95.024864 154.01562 115.21484 154.01562 C 135.40484 154.01562 151.77148 137.64574 151.77148 117.45508 C 151.77148 105.18041 145.72336 94.322073 136.44336 87.691406 C 136.84069 86.207406 137.2463 84.693302 137.6543 83.167969 L 180.10938 112.83203 C 179.64666 114.2907 179.39648 115.84308 179.39648 117.45508 C 179.39648 125.90974 186.25041 132.76562 194.70508 132.76562 C 196.21708 132.76562 197.67797 132.54605 199.05664 132.13672 L 201.32617 137.07812 L 197.42383 137.07812 L 197.42383 142.03125 L 201.79688 142.03125 C 202.48487 143.11525 203.6936 143.83594 205.07227 143.83594 C 206.45093 143.83594 207.66099 143.11525 208.34766 142.03125 L 212.61133 142.03125 L 212.61133 137.07812 L 206.22461 137.07812 L 203.03711 130.30078 C 206.32644 128.16211 208.74339 124.79494 209.63672 120.84961 L 213.12891 120.90234 C 214.89024 139.45034 230.62605 154.01562 249.63672 154.01562 C 269.82738 154.01562 286.19531 137.64574 286.19531 117.45508 C 286.19531 97.265735 269.82738 80.896484 249.63672 80.896484 C 244.62472 80.896484 239.848 81.893417 235.5 83.71875 L 220.95508 58.376953 L 223.71875 50.777344 C 230.97208 50.07201 233.58789 43.406057 233.58789 42.275391 C 233.58789 41.143391 232.24219 41.142578 232.24219 41.142578 L 200.78906 41.142578 C 200.0904 41.142578 197.77539 41.735557 197.77539 44.212891 C 197.77539 46.690224 200.41406 47.121094 200.41406 47.121094 L 214.20117 50.158203 L 210.86328 59.345703 L 144.03516 59.345703 C 144.86182 56.259037 145.37305 54.355469 145.37305 54.355469 C 145.37305 54.355469 145.94727 52.488552 145.94727 51.699219 C 145.94727 47.956552 143.17005 45.159344 141.99805 44.527344 C 141.76471 44.40201 140.98438 44.051286 140.98438 43.001953 C 140.98438 41.951286 141.59431 41.072266 142.93164 41.072266 L 156.86328 41.072266 L 156.86328 31.808594 L 139.3418 31.808594 z M 141.58398 68.501953 L 207.53516 68.501953 L 195.30273 102.16016 C 195.1054 102.15349 194.90508 102.14844 194.70508 102.14844 C 193.10774 102.14844 191.56776 102.39237 190.12109 102.8457 L 187.84961 98.015625 L 192.01172 98.015625 L 192.01172 93.060547 L 187.74805 93.060547 C 187.06005 91.976547 185.85132 91.255859 184.47266 91.255859 C 183.09399 91.255859 181.88331 91.976547 181.19531 93.060547 L 176.82617 93.060547 L 176.82617 98.015625 L 183.38672 98.015625 L 186.40625 104.58984 C 186.04625 104.82184 185.69866 105.0707 185.36133 105.33203 L 140.17383 73.761719 C 140.65916 71.947052 141.13332 70.181953 141.58398 68.501953 z M 216.85742 69.654297 L 227.53906 88.333984 C 219.5724 94.388651 214.16718 103.63526 213.22852 114.16992 L 209.6582 114.16992 C 208.8662 110.54459 206.78711 107.40033 203.92578 105.23633 L 216.85742 69.654297 z M 115.21484 91.636719 C 118.81231 91.636719 122.23672 92.373792 125.34766 93.703125 C 124.21899 97.941792 123.47266 100.74414 123.47266 100.74414 C 123.47266 100.74414 122.18014 107.56441 113.99414 113.95508 C 113.34787 114.45774 111.55273 115.10474 111.55273 117.33008 C 111.55273 119.55541 112.98702 121.13672 115.35742 121.13672 C 117.55689 121.13672 128.33243 117.90587 131.1543 107.42188 C 131.27363 106.97917 132.13655 103.76261 133.38281 99.113281 C 138.10681 103.79195 141.0332 110.28041 141.0332 117.45508 C 141.0332 131.71508 129.47431 143.27539 115.21484 143.27539 C 100.95498 143.27539 89.394531 131.71508 89.394531 117.45508 C 89.394531 103.19641 100.95498 91.636719 115.21484 91.636719 z M 249.63672 91.636719 C 263.89672 91.636719 275.45508 103.19641 275.45508 117.45508 C 275.45508 131.71508 263.89672 143.27539 249.63672 143.27539 C 236.56205 143.27539 225.78736 133.50706 224.08203 120.90039 L 249.42188 120.84961 C 251.01121 120.84961 254.34961 120.84913 254.34961 117.5918 C 254.34961 116.48646 253.73047 115.46484 253.73047 115.46484 L 240.94141 93.271484 C 243.68807 92.276818 246.54739 91.636719 249.63672 91.636719 z M 232.90625 97.871094 L 242.3125 114.19922 L 224.00586 114.19922 C 224.80853 107.65789 228.15425 101.95643 232.90625 97.871094 z M 194.70508 107.85938 C 200.00374 107.85938 204.30078 112.15508 204.30078 117.45508 C 204.30078 122.75508 200.00374 127.05273 194.70508 127.05273 C 189.40508 127.05273 185.10742 122.75508 185.10742 117.45508 C 185.10742 112.15508 189.40508 107.85934 194.70508 107.85938 z "
       transform="matrix(0.75000002,0,0,-0.75000002,0,273.64)"
       id="path20" /><path
       inkscape:connector-curvature="0"
       id="path34"
       style="fill:#ffffff;fill-opacity:1;fill-rule:nonzero;stroke:none;stroke-width:0.1"
       d="m 151.425,149.399 c -5.327,0 -9.276,-4.232 -9.276,-9.455 0,-3.27 3.39,-7.968 3.686,-8.324 0.298,-0.357 0.714,-1.903 -0.356,-2.26 -2.608,-0.869 -6.515,-2.055 -9.514,-3.984 -0.833,-0.534 -2.557,-1.367 -2.914,-3.151 L 122.913,78.923 c 0,0 -2.527,-0.164 -2.527,-2.2449 0,-1.5461 0.386,-1.6359 0.386,-1.6359 0,0 -5.084,-0.4012 -6.689,0.0449 -1.605,0.4449 -2.274,1.427 -0.981,2.6758 1.294,1.248 2.141,2.943 2.141,4.816 0,1.8731 -2.23,6.4223 -6.467,6.4223 -4.236,0 -6.555,-3.791 -6.555,-6.2883 0,-2.4969 1.427,-4.4598 2.007,-5.0399 0.579,-0.5789 1.025,-1.4269 -0.536,-2.1851 -6.0654,-2.9457 -6.9893,-6.2731 -7.7596,-13.5129 -0.223,-2.0949 -0.3566,-12.0859 -0.2676,-12.8871 0.0895,-0.8039 1.2043,-2.5867 3.0774,-2.5867 1.8728,0 2.7198,1.159 2.7198,2.0508 0,0.8921 -0.713,1.3371 -1.025,1.65 -0.312,0.3121 -0.669,1.1601 -0.4464,1.8281 0.2234,0.6699 1.5164,8.2058 1.4714,8.7859 0.268,0.2231 1.026,1.5172 1.472,2.275 2.422,-4.541 0.67,-12.4211 -0.357,-18.241 -0.134,-0.757 -0.178,-1.2488 1.115,-1.6051 0,-0.4 -0.044,-16.3668 -0.044,-16.3668 0,0 -0.089,-1.1582 -0.357,-1.4269 -0.268,-0.268 -0.981,-0.8922 -0.981,-1.5172 0,-0.6231 0.49,-0.891 0.937,-0.891 0.445,0 0.713,0.223 0.981,0.4011 0.267,0.1789 2.586,1.8278 2.586,1.8278 0,0 0.847,0.759 1.115,1.8742 l 2.497,11.7289 c 0,0 0,0.7129 0.535,1.2039 0.536,0.4902 0.893,0.8031 1.205,0.9359 0.312,0.134 0.758,0.2684 0.758,-0.3558 0,-0.625 0,-14.0039 0,-14.0039 0,0 0.044,-0.7582 0.446,-1.1153 0.401,-0.3566 4.236,-2.8539 4.37,-3.0308 0.134,-0.1789 0.758,-0.3578 0.937,-0.3578 0.178,0 0.981,0.2679 0.981,0.9367 0,0.6691 -0.357,1.025 -0.58,1.3383 -0.223,0.3117 -1.115,1.4258 -1.249,1.5609 -0.134,0.134 -0.729,0.9961 -0.357,2.3629 0.134,0.491 1.874,9.9898 1.918,10.9711 0.535,0.1781 4.549,1.9168 3.256,6.6 l -5.04,20.6918 c 0,0 -0.564,1.234 0.58,1.6512 4.772,1.739 7.581,3.0328 11.55,6.0199 0.48,0.3609 1.873,1.65 -0.624,3.434 l 11.863,30.459 -0.714,-33.2239 c 0,0 -0.178,-2.0519 -0.045,-3.7011 l 3.569,-43.527 c 0,0 -0.09,-0.6238 -0.313,-0.9359 -0.222,-0.3129 -1.695,-2.4969 -1.873,-2.6762 -0.179,-0.1789 -0.446,-0.6238 -0.312,-0.9797 0.133,-0.3582 0.58,-1.0273 1.115,-1.0273 0.535,0 0.803,0.2691 1.204,0.491 l 6.511,4.7722 c 0,0 0.892,0.4899 0.936,2.3641 0,0 0.264,13.3637 0.535,21.6289 0.313,9.4981 0.892,11.9961 2.944,21.2719 l 1.383,-18.2848 c 0,0 0.356,-8.2941 0.356,-8.9183 0,-4.1809 0.107,-13.209 -0.669,-17.3477 -0.134,-0.7141 0.089,-0.7582 0.268,-0.9371 0.178,-0.1781 4.281,-4.1031 4.46,-4.3711 0.178,-0.266 0.846,-0.6238 1.159,-0.6238 0.312,0 1.649,0.4019 1.649,1.2039 0,0.2679 -0.044,0.6687 -0.311,1.0711 -0.268,0.4008 -0.758,1.2488 -0.847,1.382 -0.09,0.134 -0.268,0.3566 -0.135,1.1148 0.135,0.7579 3.435,28.4661 3.613,29.2399 0.178,0.773 1.249,18.1371 1.249,20.098 0,1.9621 -2.973,31.8721 -2.973,32.3471 0,0 7.373,-9.36 7.373,-22.6541 0,-2.082 -0.209,-5.1777 -0.298,-5.709 -0.059,-0.3558 -0.118,-1.0109 -0.297,-1.4269 -0.179,-0.4168 -0.654,-1.7239 -0.654,-2.616 0,-0.893 0.772,-3.8059 3.984,-3.8059 1.784,0 3.597,2.1699 3.597,3.5969 0,1.4281 -0.387,2.2902 -0.564,2.5281 -0.178,0.2379 -0.357,1.368 -0.12,2.4961 0.239,1.1297 0.774,8.9797 0.774,10.9418 0,7.239 -2.617,19.444 -4.341,27.055 -0.228,1 -1.368,3.151 -2.855,4.162 -4.3,2.924 -8.111,5.266 -12.546,6.006 -0.713,0.119 -2.2,0.713 -0.952,2.676 1.249,1.962 3.509,5.173 3.509,8.562 0,3.389 -2.438,8.979 -8.919,8.979" /></g></svg>