<?xml version="1.0" encoding="UTF-8" standalone="no"?>
<!-- Created with Inkscape (http://www.inkscape.org/) -->

<svg
   xmlns:dc="http://purl.org/dc/elements/1.1/"
   xmlns:cc="http://creativecommons.org/ns#"
   xmlns:rdf="http://www.w3.org/1999/02/22-rdf-syntax-ns#"
   xmlns:svg="http://www.w3.org/2000/svg"
   xmlns="http://www.w3.org/2000/svg"
   xmlns:sodipodi="http://sodipodi.sourceforge.net/DTD/sodipodi-0.dtd"
   xmlns:inkscape="http://www.inkscape.org/namespaces/inkscape"
   version="1.1"
   id="svg2"
   xml:space="preserve"
   width="364.85333"
   height="364.85333"
   viewBox="0 0 364.85333 364.85333"
   sodipodi:docname="956_base.svg"
   inkscape:version="0.92.4 (5da689c313, 2019-01-14)"><metadata
     id="metadata8"><rdf:RDF><cc:Work
         rdf:about=""><dc:format>image/svg+xml</dc:format><dc:type
           rdf:resource="http://purl.org/dc/dcmitype/StillImage" /><dc:title></dc:title></cc:Work></rdf:RDF></metadata><defs
     id="defs6" /><sodipodi:namedview
     pagecolor="#ffffff"
     bordercolor="#666666"
     borderopacity="1"
     objecttolerance="10"
     gridtolerance="10"
     guidetolerance="10"
     inkscape:pageopacity="0"
     inkscape:pageshadow="2"
     inkscape:window-width="1599"
     inkscape:window-height="1027"
     id="namedview4"
     showgrid="false"
     inkscape:zoom="1.8295264"
     inkscape:cx="156.06255"
     inkscape:cy="198.72458"
     inkscape:window-x="1993"
     inkscape:window-y="-8"
     inkscape:window-maximized="1"
     inkscape:current-layer="g10" /><g
     id="g10"
     inkscape:groupmode="layer"
     inkscape:label="ink_ext_XXXXXX"
     transform="matrix(1.3333333,0,0,-1.3333333,0,364.85333)"><path
       inkscape:connector-curvature="0"
       id="path14"
       style="fill:#ffffff;fill-opacity:1;fill-rule:nonzero;stroke:none;stroke-width:0.1"
       d="m 136.82,273.139 c 75.286,0 136.319,-61.034 136.319,-136.32 C 273.139,61.5332 212.106,0.5 136.82,0.5 61.5332,0.5 0.5,61.5332 0.5,136.819 c 0,75.286 61.0332,136.32 136.32,136.32" /><path
       inkscape:connector-curvature="0"
       id="path16"
       style="fill:none;stroke:#1476c6;stroke-width:1;stroke-linecap:butt;stroke-linejoin:miter;stroke-miterlimit:4;stroke-dasharray:none;stroke-opacity:1"
       d="m 136.82,273.139 c 75.286,0 136.319,-61.034 136.319,-136.32 C 273.139,61.5332 212.106,0.5 136.82,0.5 61.5332,0.5 0.5,61.5332 0.5,136.819 c 0,75.286 61.0332,136.32 136.32,136.32 z" /><path
       inkscape:connector-curvature="0"
       id="path18"
       style="fill:#1476c6;fill-opacity:1;fill-rule:nonzero;stroke:none;stroke-width:0.1"
       d="m 136.82,267.909 c 72.397,0 131.09,-58.692 131.09,-131.09 C 267.91,64.4219 209.217,5.72891 136.82,5.72891 64.4223,5.72891 5.73008,64.4219 5.73008,136.819 c 0,72.398 58.69222,131.09 131.08992,131.09" /><path
       inkscape:connector-curvature="0"
       id="path22"
       style="fill:#1476c6;fill-opacity:1;fill-rule:nonzero;stroke:none;stroke-width:0.1"
       d="m 146.029,192.745 c 3.974,0 7.197,-3.222 7.197,-7.197 0,-3.975 -3.223,-7.198 -7.197,-7.198 -3.975,0 -7.198,3.223 -7.198,7.198 0,3.975 3.223,7.197 7.198,7.197" /><path
       inkscape:connector-curvature="0"
       id="path24"
       style="fill:#1476c6;fill-opacity:1;fill-rule:nonzero;stroke:none;stroke-width:0.1"
       d="m 146.477,197.02 c -0.148,0.005 -0.298,0.009 -0.448,0.009 -1.198,0 -2.353,-0.183 -3.438,-0.523 l -1.704,3.623 h 3.122 v 3.716 h -3.198 c -0.516,0.813 -1.423,1.353 -2.457,1.353 -1.034,0 -1.941,-0.54 -2.457,-1.353 h -3.278 v -3.716 h 4.921 l 2.265,-4.932 c -0.27,-0.174 -0.531,-0.36 -0.784,-0.556 l -33.89,23.678 c 0.364,1.361 0.719,2.685 1.057,3.945 h 49.463 l -9.174,-25.244" /><path
       inkscape:connector-curvature="0"
       id="path26"
       style="fill:#1476c6;fill-opacity:1;fill-rule:nonzero;stroke:none;stroke-width:0.1"
       d="m 170.654,207.389 -8.011,14.01 -9.698,-26.686 c 2.146,-1.623 3.705,-3.982 4.299,-6.701 h 2.677 c 0.704,7.901 4.758,14.836 10.733,19.377" /><path
       inkscape:connector-curvature="0"
       id="path28"
       style="fill:#1476c6;fill-opacity:1;fill-rule:nonzero;stroke:none;stroke-width:0.1"
       d="m 174.679,200.236 c -3.564,-3.064 -6.072,-7.339 -6.674,-12.245 h 13.73 l -7.056,12.245" /><path
       inkscape:connector-curvature="0"
       id="path30"
       style="fill:#1476c6;fill-opacity:1;fill-rule:nonzero;stroke:none;stroke-width:0.1"
       d="m 180.706,203.686 9.592,-16.644 c 0,0 0.464,-0.767 0.464,-1.596 0,-2.443 -2.504,-2.443 -3.696,-2.443 l -19.005,-0.038 c 1.279,-9.455 9.361,-16.782 19.167,-16.782 10.695,0 19.364,8.67 19.364,19.365 0,10.694 -8.669,19.364 -19.364,19.364 -2.317,0 -4.462,-0.48 -6.522,-1.226" /><path
       inkscape:connector-curvature="0"
       id="path32"
       style="fill:#1476c6;fill-opacity:1;fill-rule:nonzero;stroke:none;stroke-width:0.1"
       d="m 100.037,199.305 c -0.9347,-3.487 -1.5815,-5.899 -1.671,-6.231 -2.1164,-7.863 -10.1976,-10.286 -11.8472,-10.286 -1.7778,0 -2.8547,1.185 -2.8547,2.854 0,1.669 1.3461,2.154 1.8308,2.531 6.1395,4.793 7.109,9.909 7.109,9.909 0,0 0.5598,2.102 1.4063,5.281 -2.3332,0.997 -4.9016,1.549 -7.5997,1.549 -10.6949,0 -19.3644,-8.67 -19.3644,-19.364 0,-10.695 8.6695,-19.365 19.3644,-19.365 10.6946,0 19.3645,8.67 19.3645,19.365 0,5.381 -2.195,10.248 -5.738,13.757" /></g></svg>