<?xml version="1.0" encoding="UTF-8" standalone="no"?>
<!-- Created with Inkscape (http://www.inkscape.org/) -->

<svg
   xmlns:dc="http://purl.org/dc/elements/1.1/"
   xmlns:cc="http://creativecommons.org/ns#"
   xmlns:rdf="http://www.w3.org/1999/02/22-rdf-syntax-ns#"
   xmlns:svg="http://www.w3.org/2000/svg"
   xmlns="http://www.w3.org/2000/svg"
   xmlns:sodipodi="http://sodipodi.sourceforge.net/DTD/sodipodi-0.dtd"
   xmlns:inkscape="http://www.inkscape.org/namespaces/inkscape"
   version="1.1"
   id="svg2"
   xml:space="preserve"
   width="364.85333"
   height="364.85333"
   viewBox="0 0 364.85333 364.85333"
   sodipodi:docname="956_blue.svg"
   inkscape:version="0.92.4 (5da689c313, 2019-01-14)"><metadata
     id="metadata8"><rdf:RDF><cc:Work
         rdf:about=""><dc:format>image/svg+xml</dc:format><dc:type
           rdf:resource="http://purl.org/dc/dcmitype/StillImage" /><dc:title></dc:title></cc:Work></rdf:RDF></metadata><defs
     id="defs6" /><sodipodi:namedview
     pagecolor="#ffffff"
     bordercolor="#666666"
     borderopacity="1"
     objecttolerance="10"
     gridtolerance="10"
     guidetolerance="10"
     inkscape:pageopacity="0"
     inkscape:pageshadow="2"
     inkscape:window-width="1599"
     inkscape:window-height="1027"
     id="namedview4"
     showgrid="false"
     inkscape:zoom="1.8295264"
     inkscape:cx="197.34416"
     inkscape:cy="198.72458"
     inkscape:window-x="1993"
     inkscape:window-y="-8"
     inkscape:window-maximized="1"
     inkscape:current-layer="g10" /><g
     id="g10"
     inkscape:groupmode="layer"
     inkscape:label="ink_ext_XXXXXX"
     transform="matrix(1.3333333,0,0,-1.3333333,0,364.85333)"><g
       id="g880"><g
         id="g869"><g
           id="g860"><path
             transform="matrix(0.75000002,0,0,-0.75000002,0,273.64)"
             id="path18"
             d="M 182.42578 7.640625 C 85.895518 7.640625 7.640625 85.897074 7.640625 182.42773 C 7.640625 278.9572 85.895518 357.21484 182.42578 357.21484 C 278.95511 357.21484 357.21289 278.9572 357.21289 182.42773 C 357.21289 85.897074 278.95511 7.640625 182.42578 7.640625 z M 139.3418 31.808594 L 156.86328 31.808594 L 156.86328 41.072266 L 142.93164 41.072266 C 141.59431 41.072266 140.98437 41.951286 140.98438 43.001953 C 140.98438 44.051286 141.76471 44.40201 141.99805 44.527344 C 143.17005 45.159344 145.94727 47.956552 145.94727 51.699219 C 145.94727 52.488552 145.37305 54.355469 145.37305 54.355469 C 145.37305 54.355469 144.86182 56.259037 144.03516 59.345703 L 210.86328 59.345703 L 214.20117 50.158203 L 200.41406 47.121094 C 200.41406 47.121094 197.77539 46.690224 197.77539 44.212891 C 197.77539 41.735557 200.0904 41.142578 200.78906 41.142578 L 232.24219 41.142578 C 232.24219 41.142578 233.58789 41.143391 233.58789 42.275391 C 233.58789 43.406057 230.97208 50.07201 223.71875 50.777344 L 220.95508 58.376953 L 235.5 83.71875 C 239.848 81.893417 244.62472 80.896484 249.63672 80.896484 C 269.82738 80.896484 286.19531 97.265743 286.19531 117.45508 C 286.19531 137.64574 269.82738 154.01562 249.63672 154.01562 C 230.62605 154.01562 214.89024 139.45034 213.12891 120.90234 L 209.63672 120.84961 C 208.74339 124.79494 206.32644 128.16211 203.03711 130.30078 L 206.22461 137.07812 L 212.61133 137.07812 L 212.61133 142.03125 L 208.34766 142.03125 C 207.66099 143.11525 206.45093 143.83594 205.07227 143.83594 C 203.6936 143.83594 202.48487 143.11525 201.79688 142.03125 L 197.42383 142.03125 L 197.42383 137.07812 L 201.32617 137.07812 L 199.05664 132.13672 C 197.67797 132.54605 196.21708 132.76562 194.70508 132.76562 C 186.25041 132.76562 179.39648 125.90974 179.39648 117.45508 C 179.39648 115.84308 179.6467 114.2907 180.10938 112.83203 L 137.6543 83.167969 C 137.2463 84.693302 136.84069 86.207406 136.44336 87.691406 C 145.72336 94.322073 151.77148 105.18041 151.77148 117.45508 C 151.77148 137.64574 135.40484 154.01562 115.21484 154.01562 C 95.024848 154.01562 78.65625 137.64574 78.65625 117.45508 C 78.65625 97.265743 95.024848 80.896484 115.21484 80.896484 C 119.76284 80.896484 124.11419 81.730714 128.13086 83.248047 C 131.66366 69.988047 135.94333 53.936897 136.11133 53.351562 C 136.39799 52.346229 135.74992 50.551141 135.03125 50.119141 C 132.87845 48.827141 130.15039 47.576792 130.15039 42.078125 C 130.15039 32.670125 139.3418 31.808594 139.3418 31.808594 z M 201.90039 165.6543 C 210.54172 165.6543 213.79297 173.10829 213.79297 177.62695 C 213.79297 182.14562 210.77861 186.42697 209.11328 189.04297 C 207.44928 191.6603 209.43215 192.45266 210.38281 192.61133 C 216.29615 193.59799 221.37799 196.72047 227.11133 200.61914 C 229.09399 201.96714 230.61397 204.83464 230.91797 206.16797 C 233.21664 216.31597 236.70508 232.59019 236.70508 242.24219 C 236.70508 244.85832 235.99249 255.32381 235.67383 256.83008 C 235.35783 258.33421 235.59665 259.841 235.83398 260.1582 C 236.06998 260.4754 236.58594 261.62516 236.58594 263.5293 C 236.58594 265.43196 234.16773 268.32617 231.78906 268.32617 C 227.5064 268.32617 226.47656 264.44067 226.47656 263.25 C 226.47656 262.06053 227.11094 260.31745 227.34961 259.76172 C 227.58828 259.20705 227.66743 258.33377 227.74609 257.85938 C 227.86476 257.15098 228.14258 253.02405 228.14258 250.24805 C 228.14258 232.52258 218.3125 220.04297 218.3125 220.04297 C 218.3125 220.6763 222.27539 260.55574 222.27539 263.17188 C 222.27539 265.78641 220.84866 288.93808 220.61133 289.96875 C 220.37399 291.00048 215.97297 327.94454 215.79297 328.95508 C 215.61564 329.96601 215.85266 330.26469 215.97266 330.44336 C 216.09132 330.62096 216.74618 331.75076 217.10352 332.28516 C 217.45952 332.82169 217.51758 333.35569 217.51758 333.71289 C 217.51758 334.78222 215.73436 335.31836 215.31836 335.31836 C 214.90103 335.31836 214.01077 334.84099 213.77344 334.48633 C 213.53477 334.12899 208.06351 328.89567 207.82617 328.6582 C 207.58751 328.41967 207.29008 328.36034 207.46875 327.4082 C 208.50342 321.88994 208.36133 309.85383 208.36133 304.2793 C 208.36133 303.44703 207.88672 292.38867 207.88672 292.38867 L 206.04297 268.00781 C 203.30697 280.37555 202.53452 283.70696 202.11719 296.37109 C 201.75585 307.39136 201.4043 325.20898 201.4043 325.20898 C 201.34563 327.70792 200.15625 328.36133 200.15625 328.36133 L 191.47461 334.72461 C 190.93994 335.02048 190.58247 335.37891 189.86914 335.37891 C 189.15581 335.37891 188.56015 334.48737 188.38281 334.00977 C 188.20415 333.53523 188.56016 332.94166 188.79883 332.70312 C 189.03616 332.46406 191.00088 329.55197 191.29688 329.13477 C 191.59421 328.71863 191.71289 327.88672 191.71289 327.88672 L 186.95508 269.85156 C 186.77774 267.65263 187.01562 264.91602 187.01562 264.91602 L 187.9668 220.61719 L 172.14844 261.22852 C 175.47777 263.60718 173.62047 265.32739 172.98047 265.80859 C 167.68847 269.79139 163.9447 271.51532 157.58203 273.83398 C 156.0567 274.39025 156.80859 276.03516 156.80859 276.03516 L 163.52734 303.625 C 165.25134 309.86927 159.90083 312.18831 159.1875 312.42578 C 159.12883 313.73418 156.80757 326.39807 156.62891 327.05273 C 156.13291 328.87513 156.9268 330.02446 157.10547 330.20312 C 157.28414 330.38326 158.47415 331.86956 158.77148 332.28516 C 159.06882 332.70289 159.54492 333.17818 159.54492 334.07031 C 159.54492 334.96205 158.47366 335.31836 158.23633 335.31836 C 157.99766 335.31836 157.16499 335.08033 156.98633 334.8418 C 156.80766 334.60593 151.69482 331.27625 151.16016 330.80078 C 150.62416 330.32465 150.56445 329.3125 150.56445 329.3125 L 150.56445 310.64062 C 150.56445 309.80836 149.97069 309.98735 149.55469 310.16602 C 149.13869 310.34308 148.66193 310.76046 147.94727 311.41406 C 147.23393 312.06873 147.23438 313.01953 147.23438 313.01953 L 143.90625 328.6582 C 143.54892 330.14514 142.41797 331.1582 142.41797 331.1582 C 142.41797 331.1582 139.3267 333.35522 138.9707 333.59375 C 138.61337 333.83122 138.25544 334.12891 137.66211 334.12891 C 137.06611 334.12891 136.41406 333.77221 136.41406 332.94141 C 136.41406 332.10807 137.36337 331.2753 137.7207 330.91797 C 138.07804 330.5597 138.19727 329.01562 138.19727 329.01562 C 138.19727 329.01562 138.25586 307.72669 138.25586 307.19336 C 136.53186 306.71829 136.59086 306.06207 136.76953 305.05273 C 138.13886 297.29287 140.47543 286.78709 137.24609 280.73242 C 136.65143 281.74282 135.64054 283.46816 135.2832 283.76562 C 135.3432 284.53909 133.61818 294.58727 133.32031 295.48047 C 133.02351 296.37114 133.50002 297.50184 133.91602 297.91797 C 134.33202 298.33517 135.2832 298.92772 135.2832 300.11719 C 135.2832 301.30625 134.15332 302.85156 131.65625 302.85156 C 129.15878 302.85156 127.67207 300.47421 127.55273 299.40234 C 127.43407 298.33408 127.61282 285.0139 127.91016 282.2207 C 128.93722 272.56764 130.16866 268.13072 138.25586 264.20312 C 140.33719 263.19219 139.7427 262.06093 138.9707 261.28906 C 138.19737 260.5156 136.29492 257.89951 136.29492 254.57031 C 136.29492 251.24058 139.38716 246.18555 145.03516 246.18555 C 150.68449 246.18555 153.6582 252.25058 153.6582 254.74805 C 153.6582 257.24538 152.52807 259.50592 150.80273 261.16992 C 149.07873 262.83499 149.97133 264.14313 152.11133 264.73633 C 154.25133 265.33113 161.0293 264.79688 161.0293 264.79688 C 161.0293 264.79688 160.51562 264.6767 160.51562 262.61523 C 160.51562 259.8407 163.88477 259.62305 163.88477 259.62305 L 177.40039 201.88672 C 177.87639 199.50805 180.17644 198.39755 181.28711 197.68555 C 185.28578 195.11355 190.49532 193.53171 193.97266 192.37305 C 195.39932 191.89705 194.8446 189.83537 194.44727 189.35938 C 194.0526 188.88471 189.53125 182.62172 189.53125 178.26172 C 189.53125 171.29772 194.79772 165.6543 201.90039 165.6543 z "
             style="fill:#1476c6;fill-opacity:1;fill-rule:nonzero;stroke:none;stroke-width:0.13333333" /><path
             d="m 146.029,192.745 c 3.974,0 7.197,-3.222 7.197,-7.197 0,-3.975 -3.223,-7.198 -7.197,-7.198 -3.975,0 -7.198,3.223 -7.198,7.198 0,3.975 3.223,7.197 7.198,7.197"
             style="fill:#1476c6;fill-opacity:1;fill-rule:nonzero;stroke:none;stroke-width:0.1"
             id="path22"
             inkscape:connector-curvature="0" /><path
             d="m 146.477,197.02 c -0.148,0.005 -0.298,0.009 -0.448,0.009 -1.198,0 -2.353,-0.183 -3.438,-0.523 l -1.704,3.623 h 3.122 v 3.716 h -3.198 c -0.516,0.813 -1.423,1.353 -2.457,1.353 -1.034,0 -1.941,-0.54 -2.457,-1.353 h -3.278 v -3.716 h 4.921 l 2.265,-4.932 c -0.27,-0.174 -0.531,-0.36 -0.784,-0.556 l -33.89,23.678 c 0.364,1.361 0.719,2.685 1.057,3.945 h 49.463 l -9.174,-25.244"
             style="fill:#1476c6;fill-opacity:1;fill-rule:nonzero;stroke:none;stroke-width:0.1"
             id="path24"
             inkscape:connector-curvature="0" /><path
             d="m 170.654,207.389 -8.011,14.01 -9.698,-26.686 c 2.146,-1.623 3.705,-3.982 4.299,-6.701 h 2.677 c 0.704,7.901 4.758,14.836 10.733,19.377"
             style="fill:#1476c6;fill-opacity:1;fill-rule:nonzero;stroke:none;stroke-width:0.1"
             id="path26"
             inkscape:connector-curvature="0" /><path
             d="m 174.679,200.236 c -3.564,-3.064 -6.072,-7.339 -6.674,-12.245 h 13.73 l -7.056,12.245"
             style="fill:#1476c6;fill-opacity:1;fill-rule:nonzero;stroke:none;stroke-width:0.1"
             id="path28"
             inkscape:connector-curvature="0" /></g><path
           inkscape:connector-curvature="0"
           id="path30"
           style="fill:#1476c6;fill-opacity:1;fill-rule:nonzero;stroke:none;stroke-width:0.1"
           d="m 180.706,203.686 9.592,-16.644 c 0,0 0.464,-0.767 0.464,-1.596 0,-2.443 -2.504,-2.443 -3.696,-2.443 l -19.005,-0.038 c 1.279,-9.455 9.361,-16.782 19.167,-16.782 10.695,0 19.364,8.67 19.364,19.365 0,10.694 -8.669,19.364 -19.364,19.364 -2.317,0 -4.462,-0.48 -6.522,-1.226" /></g><path
         d="m 100.037,199.305 c -0.9347,-3.487 -1.5815,-5.899 -1.671,-6.231 -2.1164,-7.863 -10.1976,-10.286 -11.8472,-10.286 -1.7778,0 -2.8547,1.185 -2.8547,2.854 0,1.669 1.3461,2.154 1.8308,2.531 6.1395,4.793 7.109,9.909 7.109,9.909 0,0 0.5598,2.102 1.4063,5.281 -2.3332,0.997 -4.9016,1.549 -7.5997,1.549 -10.6949,0 -19.3644,-8.67 -19.3644,-19.364 0,-10.695 8.6695,-19.365 19.3644,-19.365 10.6946,0 19.3645,8.67 19.3645,19.365 0,5.381 -2.195,10.248 -5.738,13.757"
         style="fill:#1476c6;fill-opacity:1;fill-rule:nonzero;stroke:none;stroke-width:0.1"
         id="path32"
         inkscape:connector-curvature="0" /></g></g></svg>