<?xml version="1.0" encoding="UTF-8" standalone="no"?>
<!-- Created with Inkscape (http://www.inkscape.org/) -->

<svg
   xmlns:dc="http://purl.org/dc/elements/1.1/"
   xmlns:cc="http://creativecommons.org/ns#"
   xmlns:rdf="http://www.w3.org/1999/02/22-rdf-syntax-ns#"
   xmlns:svg="http://www.w3.org/2000/svg"
   xmlns="http://www.w3.org/2000/svg"
   xmlns:sodipodi="http://sodipodi.sourceforge.net/DTD/sodipodi-0.dtd"
   xmlns:inkscape="http://www.inkscape.org/namespaces/inkscape"
   version="1.1"
   id="svg2"
   xml:space="preserve"
   width="454.50668"
   height="491.54666"
   viewBox="0 0 454.50668 491.54666"
   sodipodi:docname="965.svg"
   inkscape:version="0.92.4 (5da689c313, 2019-01-14)"><metadata
     id="metadata8"><rdf:RDF><cc:Work
         rdf:about=""><dc:format>image/svg+xml</dc:format><dc:type
           rdf:resource="http://purl.org/dc/dcmitype/StillImage" /><dc:title></dc:title></cc:Work></rdf:RDF></metadata><defs
     id="defs6" /><sodipodi:namedview
     pagecolor="#ffffff"
     bordercolor="#666666"
     borderopacity="1"
     objecttolerance="10"
     gridtolerance="10"
     guidetolerance="10"
     inkscape:pageopacity="0"
     inkscape:pageshadow="2"
     inkscape:window-width="1920"
     inkscape:window-height="1057"
     id="namedview4"
     showgrid="false"
     inkscape:zoom="1.9204687"
     inkscape:cx="211.48414"
     inkscape:cy="231.27593"
     inkscape:window-x="-8"
     inkscape:window-y="-8"
     inkscape:window-maximized="1"
     inkscape:current-layer="g10" /><g
     id="g10"
     inkscape:groupmode="layer"
     inkscape:label="ink_ext_XXXXXX"
     transform="matrix(1.3333333,0,0,-1.3333333,0,491.54667)"><g
       id="g12"
       transform="scale(0.1)"><path
         d="M 3403.75,248.75 C 3403.75,114.129 3294.62,5 3160,5 H 248.75 C 114.133,5 5,114.129 5,248.75 v 3189.07 c 0,134.62 109.133,243.75 243.75,243.75 H 3160 c 134.62,0 243.75,-109.13 243.75,-243.75 V 248.75"
         style="fill:#ffffff;fill-opacity:1;fill-rule:nonzero;stroke:none"
         id="path14"
         inkscape:connector-curvature="0" /><path
         d="M 3403.75,248.75 C 3403.75,114.129 3294.62,5 3160,5 H 248.75 C 114.133,5 5,114.129 5,248.75 v 3189.07 c 0,134.62 109.133,243.75 243.75,243.75 H 3160 c 134.62,0 243.75,-109.13 243.75,-243.75 z"
         style="fill:none;stroke:#1476c6;stroke-width:10;stroke-linecap:butt;stroke-linejoin:miter;stroke-miterlimit:4;stroke-dasharray:none;stroke-opacity:1"
         id="path16"
         inkscape:connector-curvature="0" /><path
         d="m 3277.17,248.75 c 0,-64.719 -52.46,-117.18 -117.17,-117.18 H 248.75 c -64.711,0 -117.172,52.461 -117.172,117.18 v 3189.07 c 0,64.71 52.461,117.18 117.172,117.18 H 3160 c 64.71,0 117.17,-52.47 117.17,-117.18 V 248.75"
         style="fill:#1476c6;fill-opacity:1;fill-rule:nonzero;stroke:none"
         id="path18"
         inkscape:connector-curvature="0" /><path
         d="m 732.48,3102.12 v -69.79 H 534.629 V 2897.5 h 228.34 V 2825 h -312.36 v 473.62 h 298.809 v -70.47 H 529.887 V 3102.12 H 732.48"
         style="fill:#ffffff;fill-opacity:1;fill-rule:nonzero;stroke:none"
         id="path20"
         inkscape:connector-curvature="0" /><path
         d="m 898.754,3296.58 h 88.086 l 233.08,-338.78 v 338.78 h 79.96 V 2825 h -88.09 L 978.031,3162.43 V 2825 h -79.277 v 471.58"
         style="fill:#ffffff;fill-opacity:1;fill-rule:nonzero;stroke:none"
         id="path22"
         inkscape:connector-curvature="0" /><path
         d="m 1861.18,3066.89 c 0,-136.87 -86.73,-241.89 -192.43,-241.89 h -200.56 v 471.58 h 200.56 c 107.73,0 192.43,-105.02 192.43,-229.69"
         style="fill:#ffffff;fill-opacity:1;fill-rule:nonzero;stroke:none"
         id="path24"
         inkscape:connector-curvature="0" /><path
         d="m 1779.87,3066.89 c 0,84.7 -48.1,159.23 -128.74,159.23 h -98.24 v -329.3 h 103.66 c 70.47,0 123.32,74.53 123.32,170.07"
         style="fill:#1476c6;fill-opacity:1;fill-rule:nonzero;stroke:none"
         id="path26"
         inkscape:connector-curvature="0" /><path
         d="m 2386.46,3316.91 c 146.35,0 223.6,-105.02 223.6,-249.34 0,-143.65 -71.83,-251.38 -224.28,-251.38 -137.55,0 -222.24,96.21 -222.24,251.38 0,140.93 77.24,249.34 222.92,249.34"
         style="fill:#ffffff;fill-opacity:1;fill-rule:nonzero;stroke:none"
         id="path28"
         inkscape:connector-curvature="0" /><path
         d="m 2245.52,3068.24 c 0,-113.15 40.65,-178.2 140.94,-178.2 103.66,0 140.93,70.47 140.93,178.2 0,115.87 -52.17,174.14 -141.61,174.14 -103.67,0 -140.26,-71.15 -140.26,-174.14"
         style="fill:#1476c6;fill-opacity:1;fill-rule:nonzero;stroke:none"
         id="path30"
         inkscape:connector-curvature="0" /><path
         d="M 3006.07,3099.41 V 3030.3 H 2810.25 V 2825 h -83.34 v 473.62 h 298.82 v -71.82 h -215.48 v -127.39 h 195.82"
         style="fill:#ffffff;fill-opacity:1;fill-rule:nonzero;stroke:none"
         id="path32"
         inkscape:connector-curvature="0" /><path
         d="M 782.773,619.301 H 698.754 V 435 h -79.277 v 469.551 h 169.394 c 111.117,0 158.551,-69.789 158.551,-149.071 0,0 0,-104.339 -82.664,-125.339 L 963.004,435 h -83.34 l -96.891,184.301"
         style="fill:#ffffff;fill-opacity:1;fill-rule:nonzero;stroke:none"
         id="path34"
         inkscape:connector-curvature="0" /><path
         d="m 872.887,760.898 c 0,48.122 -33.199,73.864 -79.274,73.864 H 698.754 V 690.43 h 93.504 c 52.172,0 80.629,21.011 80.629,70.468"
         style="fill:#1476c6;fill-opacity:1;fill-rule:nonzero;stroke:none"
         id="path36"
         inkscape:connector-curvature="0" /><path
         d="m 1284.79,926.91 c 146.35,0 223.59,-105.019 223.59,-249.351 0,-143.637 -71.82,-251.379 -224.27,-251.379 -137.55,0 -222.24,96.218 -222.24,251.379 0,140.941 77.24,249.351 222.92,249.351"
         style="fill:#ffffff;fill-opacity:1;fill-rule:nonzero;stroke:none"
         id="path38"
         inkscape:connector-curvature="0" /><path
         d="m 1143.85,678.238 c 0,-113.148 40.66,-178.199 140.94,-178.199 103.67,0 140.93,70.473 140.93,178.199 0,115.864 -52.17,174.141 -141.61,174.141 -103.67,0 -140.26,-71.149 -140.26,-174.141"
         style="fill:#1476c6;fill-opacity:1;fill-rule:nonzero;stroke:none"
         id="path40"
         inkscape:connector-curvature="0" /><path
         d="m 1810.22,498.012 c 75.89,0 103,72.5 103,122.636 v 289.321 h 78.6 V 607.09 c 0,-96.879 -71.16,-181.578 -181.6,-181.578 -108.4,0 -188.36,75.218 -188.36,181.578 v 302.879 h 79.96 V 620.648 c 0,-67.078 47.42,-122.636 108.4,-122.636"
         style="fill:#ffffff;fill-opacity:1;fill-rule:nonzero;stroke:none"
         id="path42"
         inkscape:connector-curvature="0" /><path
         d="M 2291.26,832.051 V 435 h -79.28 v 397.051 h -129.42 v 71.82 h 338.1 v -71.82 h -129.4"
         style="fill:#ffffff;fill-opacity:1;fill-rule:nonzero;stroke:none"
         id="path44"
         inkscape:connector-curvature="0" /><path
         d="M 2799.92,712.121 V 642.328 H 2602.07 V 507.5 h 228.34 V 435 h -312.36 v 473.621 h 298.81 V 838.148 H 2597.32 V 712.121 h 202.6"
         style="fill:#ffffff;fill-opacity:1;fill-rule:nonzero;stroke:none"
         id="path46"
         inkscape:connector-curvature="0" /><path
         d="m 2452.92,2020.69 c -55.92,0 -109.23,-11.11 -157.74,-31.47 l -162.28,282.77 30.81,84.78 c 80.95,7.87 110.15,82.26 110.15,94.88 0,12.62 -15.03,12.62 -15.03,12.62 H 1907.9 c -7.81,0 -33.65,-6.61 -33.65,-34.25 0,-27.64 29.44,-32.45 29.44,-32.45 l 153.85,-33.88 -37.27,-102.53 h -745.62 c 9.23,34.44 14.92,55.69 14.92,55.69 0,0 6.41,20.83 6.41,29.64 0,41.76 -30.99,72.98 -44.07,80.02 -2.6,1.4 -11.31,5.31 -11.31,17.03 0,11.72 6.8,21.53 21.73,21.53 h 155.43 v 103.36 h -195.49 c 0,0 -102.56,-9.62 -102.56,-114.58 0,-61.36 30.45,-75.31 54.48,-89.73 8.02,-4.81 15.23,-24.84 12.02,-36.06 -1.87,-6.54 -49.6,-185.63 -89.02,-333.59 -44.82,16.93 -93.39,26.22 -144.131,26.22 -225.278,0 -407.907,-182.63 -407.907,-407.9 0,-225.28 182.629,-407.91 407.907,-407.91 225.281,0 407.911,182.63 407.911,407.91 0,136.95 -67.5,258.13 -171.04,332.11 4.43,16.56 8.96,33.45 13.51,50.45 l 473.7,-330.96 c -5.15,-16.29 -7.96,-33.62 -7.96,-51.6 0,-94.34 76.48,-170.81 170.82,-170.81 16.87,0 33.16,2.45 48.55,7.01 l 25.32,-55.14 h -43.52 v -55.28 h 48.77 c 7.68,-12.1 21.17,-20.13 36.55,-20.13 15.38,0 28.89,8.03 36.56,20.13 h 47.57 v 55.28 h -71.26 l -35.57,75.63 c 36.7,23.86 63.66,61.42 73.62,105.44 l 39,-0.58 c 19.64,-206.97 195.22,-369.46 407.33,-369.46 225.27,0 407.91,182.63 407.91,407.91 0,225.27 -182.64,407.9 -407.91,407.9"
         style="fill:#ffffff;fill-opacity:1;fill-rule:nonzero;stroke:none"
         id="path48"
         inkscape:connector-curvature="0" /><path
         d="m 1840,1719.86 c 59.13,0 107.07,-47.93 107.07,-107.07 0,-59.14 -47.94,-107.08 -107.07,-107.08 -59.14,0 -107.08,47.94 -107.08,107.08 0,59.14 47.94,107.07 107.08,107.07"
         style="fill:#1476c6;fill-opacity:1;fill-rule:nonzero;stroke:none"
         id="path50"
         inkscape:connector-curvature="0" /><path
         d="m 1846.68,1783.45 c -2.23,0.09 -4.44,0.15 -6.68,0.15 -17.81,0 -34.99,-2.73 -51.14,-7.8 l -25.35,53.91 h 46.44 v 55.28 h -47.57 c -7.67,12.1 -21.17,20.13 -36.55,20.13 -15.39,0 -28.89,-8.03 -36.56,-20.13 h -48.77 v -55.28 h 73.21 l 33.69,-73.38 c -4,-2.59 -7.89,-5.36 -11.67,-8.26 l -504.17,352.25 c 5.42,20.24 10.7,39.94 15.73,58.69 h 735.86 l -136.47,-375.56"
         style="fill:#1476c6;fill-opacity:1;fill-rule:nonzero;stroke:none"
         id="path52"
         inkscape:connector-curvature="0" /><path
         d="m 2206.35,1937.72 -119.19,208.42 -144.27,-397.01 c 31.93,-24.14 55.12,-59.23 63.97,-99.69 h 39.81 c 10.47,117.54 70.79,220.72 159.68,288.28"
         style="fill:#1476c6;fill-opacity:1;fill-rule:nonzero;stroke:none"
         id="path54"
         inkscape:connector-curvature="0" /><path
         d="m 2266.23,1831.3 c -53.03,-45.58 -90.33,-109.17 -99.29,-182.17 h 204.25 l -104.96,182.17"
         style="fill:#1476c6;fill-opacity:1;fill-rule:nonzero;stroke:none"
         id="path56"
         inkscape:connector-curvature="0" /><path
         d="m 2355.9,1882.62 142.69,-247.61 c 0,0 6.91,-11.41 6.91,-23.73 0,-36.36 -37.26,-36.36 -54.98,-36.36 l -282.75,-0.56 c 19.04,-140.67 139.27,-249.66 285.15,-249.66 159.1,0 288.09,128.98 288.09,288.09 0,159.1 -128.99,288.08 -288.09,288.08 -34.48,0 -66.39,-7.14 -97.02,-18.25"
         style="fill:#1476c6;fill-opacity:1;fill-rule:nonzero;stroke:none"
         id="path58"
         inkscape:connector-curvature="0" /><path
         d="m 1155.78,1817.45 c -13.9,-51.87 -23.52,-87.76 -24.85,-92.69 -31.5,-116.98 -151.715,-153.04 -176.266,-153.04 -26.441,0 -42.469,17.63 -42.469,42.46 0,24.85 20.032,32.05 27.243,37.67 91.342,71.3 105.762,147.42 105.762,147.42 0,0 8.32,31.25 20.92,78.55 -34.71,14.83 -72.929,23.05 -113.061,23.05 -159.106,0 -288.082,-128.98 -288.082,-288.08 0,-159.11 128.976,-288.09 288.082,-288.09 159.101,0 288.081,128.98 288.081,288.09 0,80.04 -32.65,152.46 -85.36,204.66"
         style="fill:#1476c6;fill-opacity:1;fill-rule:nonzero;stroke:none"
         id="path60"
         inkscape:connector-curvature="0" /></g></g></svg>