<?xml version="1.0" encoding="UTF-8" standalone="no"?>
<!-- Created with Inkscape (http://www.inkscape.org/) -->

<svg
   xmlns:dc="http://purl.org/dc/elements/1.1/"
   xmlns:cc="http://creativecommons.org/ns#"
   xmlns:rdf="http://www.w3.org/1999/02/22-rdf-syntax-ns#"
   xmlns:svg="http://www.w3.org/2000/svg"
   xmlns="http://www.w3.org/2000/svg"
   xmlns:sodipodi="http://sodipodi.sourceforge.net/DTD/sodipodi-0.dtd"
   xmlns:inkscape="http://www.inkscape.org/namespaces/inkscape"
   version="1.1"
   id="svg2"
   xml:space="preserve"
   width="454.50668"
   height="491.54666"
   viewBox="0 0 454.50668 491.54666"
   sodipodi:docname="965_inner.svg"
   inkscape:version="0.92.4 (5da689c313, 2019-01-14)"><metadata
     id="metadata8"><rdf:RDF><cc:Work
         rdf:about=""><dc:format>image/svg+xml</dc:format><dc:type
           rdf:resource="http://purl.org/dc/dcmitype/StillImage" /></cc:Work></rdf:RDF></metadata><defs
     id="defs6" /><sodipodi:namedview
     pagecolor="#ffffff"
     bordercolor="#666666"
     borderopacity="1"
     objecttolerance="10"
     gridtolerance="10"
     guidetolerance="10"
     inkscape:pageopacity="0"
     inkscape:pageshadow="2"
     inkscape:window-width="1601"
     inkscape:window-height="1027"
     id="namedview4"
     showgrid="false"
     inkscape:zoom="0.96023437"
     inkscape:cx="114.46786"
     inkscape:cy="285.61159"
     inkscape:window-x="1991"
     inkscape:window-y="-8"
     inkscape:window-maximized="1"
     inkscape:current-layer="g10" /><g
     id="g10"
     inkscape:groupmode="layer"
     inkscape:label="ink_ext_XXXXXX"
     transform="matrix(1.3333333,0,0,-1.3333333,0,491.54667)"><path
       inkscape:connector-curvature="0"
       id="path20"
       style="fill:#ffffff;fill-opacity:1;fill-rule:nonzero;stroke:none;stroke-width:0.1"
       d="m 73.248,310.212 v -6.979 H 53.4629 V 289.75 h 22.834 v -7.25 h -31.236 v 47.362 h 29.8809 v -7.047 H 52.9887 V 310.212 H 73.248" /><path
       inkscape:connector-curvature="0"
       id="path22"
       style="fill:#ffffff;fill-opacity:1;fill-rule:nonzero;stroke:none;stroke-width:0.1"
       d="m 89.8754,329.658 h 8.8086 l 23.308,-33.878 v 33.878 h 7.996 V 282.5 h -8.809 L 97.8031,316.243 V 282.5 h -7.9277 v 47.158" /><path
       style="fill:#ffffff;fill-opacity:1;fill-rule:nonzero;stroke:none;stroke-width:0.13333333"
       d="M 195.75781 52.001953 L 195.75781 114.88086 L 222.5 114.88086 C 236.59333 114.88086 248.1582 100.87824 248.1582 82.628906 C 248.1582 66.00624 236.864 52.001953 222.5 52.001953 L 195.75781 52.001953 z M 207.05273 61.396484 L 220.15039 61.396484 C 230.90239 61.396484 237.31641 71.335573 237.31641 82.628906 C 237.31641 95.367573 230.26905 105.30469 220.87305 105.30469 L 207.05273 105.30469 L 207.05273 61.396484 z "
       transform="matrix(0.75000002,0,0,-0.75000002,0,368.66001)"
       id="path24" /><path
       style="fill:#ffffff;fill-opacity:1;fill-rule:nonzero;stroke:none;stroke-width:0.13333333"
       d="M 318.19531 49.292969 C 298.77131 49.292969 288.47266 63.746443 288.47266 82.537109 C 288.47266 103.22644 299.76352 116.05469 318.10352 116.05469 C 338.43018 116.05469 348.00781 101.69044 348.00781 82.537109 C 348.00781 63.294443 337.70865 49.292969 318.19531 49.292969 z M 318.10352 59.228516 C 330.02885 59.228516 336.98438 66.997933 336.98438 82.447266 C 336.98438 96.811265 332.01665 106.20898 318.19531 106.20898 C 304.82331 106.20898 299.40234 97.533932 299.40234 82.447266 C 299.40234 68.715266 304.28085 59.228516 318.10352 59.228516 z "
       transform="matrix(0.75000002,0,0,-0.75000002,0,368.66001)"
       id="path28" /><path
       inkscape:connector-curvature="0"
       id="path32"
       style="fill:#ffffff;fill-opacity:1;fill-rule:nonzero;stroke:none;stroke-width:0.1"
       d="M 300.607,309.941 V 303.03 H 281.025 V 282.5 h -8.334 v 47.362 h 29.882 v -7.182 h -21.548 v -12.739 h 19.582" /><path
       style="fill:#ffffff;fill-opacity:1;fill-rule:nonzero;stroke:none;stroke-width:0.13333333"
       d="M 82.597656 370.93945 L 82.597656 433.54688 L 93.167969 433.54688 L 93.167969 408.97266 L 104.36914 408.97266 L 117.28906 433.54688 L 128.40039 433.54688 L 115.30078 407.52734 C 126.32265 404.72734 126.32227 390.81641 126.32227 390.81641 C 126.32227 380.24547 119.99919 370.93945 105.18359 370.93945 L 82.597656 370.93945 z M 93.167969 380.24414 L 105.81445 380.24414 C 111.95779 380.24414 116.38477 383.67748 116.38477 390.09375 C 116.38477 396.68802 112.59103 399.49023 105.63477 399.49023 L 93.167969 399.49023 L 93.167969 380.24414 z "
       transform="matrix(0.75000002,0,0,-0.75000002,0,368.66001)"
       id="path34" /><path
       style="fill:#ffffff;fill-opacity:1;fill-rule:nonzero;stroke:none;stroke-width:0.13333333"
       d="M 171.30469 367.95898 C 151.88069 367.95898 141.58203 382.41295 141.58203 401.20508 C 141.58203 421.89321 152.87484 434.72266 171.21484 434.72266 C 191.54151 434.72266 201.11719 420.35668 201.11719 401.20508 C 201.11719 381.96081 190.81802 367.95898 171.30469 367.95898 z M 171.21484 377.89648 C 183.14018 377.89648 190.0957 385.6667 190.0957 401.11523 C 190.0957 415.4787 185.12735 424.875 171.30469 424.875 C 157.93402 424.875 152.51367 416.20163 152.51367 401.11523 C 152.51367 387.38297 157.39218 377.89648 171.21484 377.89648 z "
       transform="matrix(0.75000002,0,0,-0.75000002,0,368.66001)"
       id="path38" /><path
       inkscape:connector-curvature="0"
       id="path42"
       style="fill:#ffffff;fill-opacity:1;fill-rule:nonzero;stroke:none;stroke-width:0.1"
       d="m 181.022,49.8012 c 7.589,0 10.3,7.25 10.3,12.2636 v 28.9321 h 7.86 V 60.709 c 0,-9.6879 -7.116,-18.1578 -18.16,-18.1578 -10.84,0 -18.836,7.5218 -18.836,18.1578 v 30.2879 h 7.996 V 62.0648 c 0,-6.7078 4.742,-12.2636 10.84,-12.2636" /><path
       inkscape:connector-curvature="0"
       id="path44"
       style="fill:#ffffff;fill-opacity:1;fill-rule:nonzero;stroke:none;stroke-width:0.1"
       d="M 229.126,83.2051 V 43.5 h -7.928 v 39.7051 h -12.942 v 7.182 h 33.81 v -7.182 h -12.94" /><path
       inkscape:connector-curvature="0"
       id="path46"
       style="fill:#ffffff;fill-opacity:1;fill-rule:nonzero;stroke:none;stroke-width:0.1"
       d="M 279.992,71.2121 V 64.2328 H 260.207 V 50.75 h 22.834 V 43.5 h -31.236 v 47.3621 h 29.881 V 83.8148 H 259.732 V 71.2121 h 20.26" /><path
       style="fill:#00ffff;fill-opacity:1;fill-rule:nonzero;stroke:none;stroke-width:0.13333333"
       d="M 162.96875 149.08984 C 162.96875 149.08984 149.29492 150.37252 149.29492 164.36719 C 149.29492 172.54852 153.35459 174.40741 156.55859 176.33008 C 157.62793 176.97141 158.59011 179.64267 158.16211 181.13867 C 157.91278 182.01067 151.54897 205.88919 146.29297 225.61719 C 140.31697 223.35985 133.83969 222.12109 127.07422 222.12109 C 97.037148 222.12109 72.6875 246.47181 72.6875 276.50781 C 72.6875 306.54515 97.037148 330.89648 127.07422 330.89648 C 157.11168 330.89648 181.46289 306.54515 181.46289 276.50781 C 181.46289 258.24781 172.46354 242.09056 158.6582 232.22656 C 159.24887 230.01856 159.85232 227.76667 160.45898 225.5 L 223.61914 269.62891 C 222.93247 271.80091 222.55664 274.11048 222.55664 276.50781 C 222.55664 289.08648 232.75532 299.2832 245.33398 299.2832 C 247.58332 299.2832 249.75464 298.95566 251.80664 298.34766 L 255.18359 305.69922 L 249.38086 305.69922 L 249.38086 313.07031 L 255.88281 313.07031 C 256.90681 314.68365 258.70519 315.75391 260.75586 315.75391 C 262.80653 315.75391 264.60819 314.68365 265.63086 313.07031 L 271.97266 313.07031 L 271.97266 305.69922 L 262.47266 305.69922 L 257.72852 295.61523 C 262.62185 292.4339 266.21692 287.42597 267.54492 281.55664 L 272.74609 281.63477 C 275.36476 309.23076 298.77531 330.89648 327.05664 330.89648 C 357.09264 330.89648 381.44336 306.54515 381.44336 276.50781 C 381.44336 246.47181 357.09264 222.12109 327.05664 222.12109 C 319.60064 222.12109 312.49144 223.60174 306.02344 226.31641 L 284.38672 188.61523 L 288.49414 177.31055 C 299.28747 176.26121 303.18164 166.34282 303.18164 164.66016 C 303.18164 162.97749 301.17773 162.97656 301.17773 162.97656 L 254.38672 162.97656 C 253.34539 162.97656 249.90039 163.85959 249.90039 167.54492 C 249.90039 171.23026 253.82617 171.87109 253.82617 171.87109 L 274.33789 176.38867 L 269.36914 190.05859 L 169.95312 190.05859 C 171.18384 185.46659 171.94336 182.63281 171.94336 182.63281 C 171.94336 182.63281 172.79683 179.85631 172.79688 178.68164 C 172.79688 173.11364 168.66587 168.95039 166.92188 168.01172 C 166.57516 167.82505 165.41406 167.30485 165.41406 165.74219 C 165.41406 164.17952 166.31988 162.87109 168.31055 162.87109 L 189.03516 162.87109 L 189.03516 149.08984 L 162.96875 149.08984 z M 166.30469 203.67773 L 264.41992 203.67773 L 246.22461 253.75391 C 245.92728 253.74191 245.63265 253.73242 245.33398 253.73242 C 242.95932 253.73242 240.66898 254.09744 238.51562 254.77344 L 235.13477 247.58594 L 241.32617 247.58594 L 241.32617 240.21484 L 234.98438 240.21484 C 233.96169 238.60151 232.16199 237.53125 230.11133 237.53125 C 228.05933 237.53125 226.25899 238.60151 225.23633 240.21484 L 218.73242 240.21484 L 218.73242 247.58594 L 228.49414 247.58594 L 232.98633 257.36914 C 232.45299 257.71447 231.93369 258.08404 231.42969 258.4707 L 164.20703 211.50391 C 164.9297 208.80524 165.63402 206.17773 166.30469 203.67773 z M 278.28711 205.39453 L 294.17969 233.18359 C 282.32769 242.19159 274.28467 255.94909 272.88867 271.62109 L 267.58203 271.62109 C 266.40203 266.22643 263.31007 261.54874 259.05273 258.33008 L 278.28711 205.39453 z M 127.07422 238.09766 C 132.42515 238.09766 137.52044 239.19259 142.14844 241.16992 C 140.46844 247.47659 139.35938 251.64453 139.35938 251.64453 C 139.35938 251.64453 137.43675 261.79411 125.25781 271.30078 C 124.29635 272.05011 121.62695 273.00893 121.62695 276.32227 C 121.62695 279.63293 123.7636 281.98438 127.28906 281.98438 C 130.56253 281.98437 146.59102 277.17546 150.79102 261.57812 C 150.96835 260.92079 152.25018 256.1367 154.10352 249.2207 C 161.13152 256.1807 165.48438 265.83581 165.48438 276.50781 C 165.48438 297.72248 148.28768 314.91992 127.07422 314.91992 C 105.86009 314.91992 88.664062 297.72248 88.664062 276.50781 C 88.664062 255.29448 105.86009 238.09766 127.07422 238.09766 z M 327.05664 238.09766 C 348.26997 238.09766 365.46875 255.29448 365.46875 276.50781 C 365.46875 297.72248 348.26997 314.91992 327.05664 314.91992 C 307.60597 314.91992 291.57382 300.38881 289.03516 281.63281 L 326.73633 281.55664 C 329.09899 281.55664 334.06641 281.55698 334.06641 276.70898 C 334.06641 275.06632 333.14453 273.54492 333.14453 273.54492 L 314.11914 240.53125 C 318.20314 239.04992 322.45931 238.09766 327.05664 238.09766 z M 302.16406 247.37305 L 316.1582 271.66211 L 288.92578 271.66211 C 290.12045 261.92878 295.0934 253.45038 302.16406 247.37305 z M 245.33398 262.23242 C 253.21798 262.23242 259.60938 268.62248 259.60938 276.50781 C 259.60938 284.39315 253.21798 290.78516 245.33398 290.78516 C 237.44865 290.78516 231.05664 284.39315 231.05664 276.50781 C 231.05664 268.62248 237.44865 262.23242 245.33398 262.23242 z "
       transform="matrix(0.75000002,0,0,-0.75000002,0,368.66001)"
       id="path48" /><path
       inkscape:connector-curvature="0"
       style="fill:none;stroke:#1476c6;stroke-width:0.99999994;stroke-linecap:butt;stroke-linejoin:miter;stroke-miterlimit:4;stroke-dasharray:none;stroke-opacity:1"
       d="m 24.877021,368.15911 c -13.4617,0 -24.37499998,-10.913 -24.37499998,-24.375 V 24.87591 C 0.50202102,11.413807 11.415321,0.50090859 24.877021,0.50090859 H 316.003 c 13.46202,0 24.375,10.91289841 24.375,24.37500141 v 318.9082 c 0,13.462 -10.91298,24.375 -24.375,24.375 z m 0,-12.65771 H 316.003 c 6.47101,0 11.71583,-5.24629 11.71583,-11.71729 V 24.87591 c 0,-6.4719 -5.24482,-11.717288 -11.71583,-11.717288 H 24.877021 c -6.4711,0 -11.71729,5.245388 -11.71729,11.717288 v 318.9082 c 0,6.471 5.24619,11.71729 11.71729,11.71729 z"
       id="path16" /></g></svg>