<?xml version="1.0" encoding="UTF-8" standalone="no"?>
<!-- Created with Inkscape (http://www.inkscape.org/) -->

<svg
   xmlns:dc="http://purl.org/dc/elements/1.1/"
   xmlns:cc="http://creativecommons.org/ns#"
   xmlns:rdf="http://www.w3.org/1999/02/22-rdf-syntax-ns#"
   xmlns:svg="http://www.w3.org/2000/svg"
   xmlns="http://www.w3.org/2000/svg"
   xmlns:sodipodi="http://sodipodi.sourceforge.net/DTD/sodipodi-0.dtd"
   xmlns:inkscape="http://www.inkscape.org/namespaces/inkscape"
   width="14.993055mm"
   height="14.99094mm"
   viewBox="0 0 14.993055 14.99094"
   version="1.1"
   id="svg5057"
   inkscape:version="0.92.4 (5da689c313, 2019-01-14)"
   sodipodi:docname="children_stop.svg">
  <defs
     id="defs5051" />
  <sodipodi:namedview
     id="base"
     pagecolor="#ffffff"
     bordercolor="#666666"
     borderopacity="1.0"
     inkscape:pageopacity="0.0"
     inkscape:pageshadow="2"
     inkscape:zoom="7.9195959"
     inkscape:cx="57.700806"
     inkscape:cy="29.543278"
     inkscape:document-units="mm"
     inkscape:current-layer="layer1"
     showgrid="false"
     fit-margin-top="0"
     fit-margin-left="0"
     fit-margin-right="0"
     fit-margin-bottom="0"
     inkscape:window-width="1920"
     inkscape:window-height="1057"
     inkscape:window-x="-8"
     inkscape:window-y="-8"
     inkscape:window-maximized="1" />
  <metadata
     id="metadata5054">
    <rdf:RDF>
      <cc:Work
         rdf:about="">
        <dc:format>image/svg+xml</dc:format>
        <dc:type
           rdf:resource="http://purl.org/dc/dcmitype/StillImage" />
        <dc:title></dc:title>
      </cc:Work>
    </rdf:RDF>
  </metadata>
  <g
     inkscape:label="Layer 1"
     inkscape:groupmode="layer"
     id="layer1"
     transform="translate(-25.765377,-115.63548)">
    <path
       d="m 33.261905,115.63548 c 4.138083,0 7.496527,3.3581 7.496527,7.49547 0,4.13738 -3.358444,7.49547 -7.496527,7.49547 -4.138083,0 -7.496528,-3.35809 -7.496528,-7.49547 0,-4.13737 3.358445,-7.49547 7.496528,-7.49547"
       style="fill:#e22739;fill-opacity:1;fill-rule:evenodd;stroke:none;stroke-width:0.35277775"
       id="path276"
       inkscape:connector-curvature="0" />
    <path
       d="m 33.261905,117.13444 c 3.310466,0 5.997222,2.6864 5.997222,5.99651 0,3.31012 -2.686756,5.99617 -5.997222,5.99617 -3.310467,0 -5.997222,-2.68605 -5.997222,-5.99617 0,-3.31011 2.686755,-5.99651 5.997222,-5.99651"
       style="fill:#fcd313;fill-opacity:1;fill-rule:evenodd;stroke:none;stroke-width:0.35277775"
       id="path278"
       inkscape:connector-curvature="0" />
    <path
       d="m 29.020458,122.14035 v 0 c -0.554214,0 -1.004006,0.44979 -1.004006,1.00366 0,0.55386 0.449792,1.00365 1.004006,1.00365 h 8.50018 c 0.553861,0 1.003652,-0.44979 1.003652,-1.00365 0,-0.55387 -0.449791,-1.00366 -1.003652,-1.00366"
       style="fill:#231f20;fill-opacity:1;fill-rule:evenodd;stroke:none;stroke-width:0.35277775"
       id="path280"
       inkscape:connector-curvature="0" />
    <path
       d="m 34.318474,119.75205 c -0.3175,0 -0.6223,0.2413 -0.6223,0.74965 0,0.508 0.3175,0.762 0.6223,0.762 0.305153,0 0.609953,-0.254 0.609953,-0.762 0,-0.50835 -0.2921,-0.74965 -0.609953,-0.74965 m 0,-0.45756 c -0.4445,0 -1.105252,0.35596 -1.105252,1.19451 0,0.8509 0.635352,1.19415 1.105252,1.19415 0.457553,0 1.105606,-0.34325 1.105606,-1.19415 0,-0.83855 -0.660753,-1.19451 -1.105606,-1.19451"
       style="fill:#231f20;fill-opacity:1;fill-rule:evenodd;stroke:none;stroke-width:0.35277775"
       id="path282"
       inkscape:connector-curvature="0" />
    <path
       d="m 36.923385,119.73935 h -0.457553 v 0.6731 h 0.457553 c 0.2032,0 0.3556,-0.1778 0.3556,-0.3429 0,-0.1524 -0.1397,-0.3302 -0.3556,-0.3302 m 0.1651,-0.41946 h -1.079853 v 2.35056 h 0.4572 v -0.83855 h 0.533753 c 0.495653,0 0.749653,-0.36865 0.749653,-0.76235 0,-0.3937 -0.2794,-0.74966 -0.660753,-0.74966"
       style="fill:#231f20;fill-opacity:1;fill-rule:evenodd;stroke:none;stroke-width:0.35277775"
       id="path284"
       inkscape:connector-curvature="0" />
    <path
       d="m 28.778805,121.2764 0.330553,-0.3302 c 0.4318,0.3048 0.787753,0.3302 0.876653,0.3302 0.127,0 0.254,-0.1143 0.254,-0.2667 0,-0.1524 -0.1143,-0.2286 -0.1905,-0.254 -0.0762,-0.0127 -0.394053,-0.0762 -0.533753,-0.1143 -0.127,-0.0254 -0.559153,-0.1397 -0.559153,-0.66075 0,-0.5207 0.368653,-0.69886 0.787753,-0.69886 0.419453,0 0.724253,0.12736 1.004005,0.36866 l -0.330552,0.3048 c -0.1651,-0.127 -0.381,-0.2286 -0.698853,-0.2286 -0.1905,0 -0.2286,0.1778 -0.2286,0.2286 0,0.0635 0.0381,0.2032 0.1651,0.2286 0.127353,0.0254 0.444853,0.1016 0.495653,0.1143 0.1397,0.0127 0.597252,0.19085 0.597252,0.67345 0,0.4445 -0.292452,0.73695 -0.825852,0.73695 -0.546453,0 -0.965906,-0.25435 -1.143706,-0.43215"
       style="fill:#231f20;fill-opacity:1;fill-rule:evenodd;stroke:none;stroke-width:0.35277775"
       id="path286"
       inkscape:connector-curvature="0" />
    <path
       d="m 32.476269,119.76475 h -0.2413 v 1.893 h -0.457553 v -1.893 h -0.660753 v -0.44486 h 1.766359 v 0.44486 h -0.267053"
       style="fill:#231f20;fill-opacity:1;fill-rule:evenodd;stroke:none;stroke-width:0.35277775"
       id="path288"
       inkscape:connector-curvature="0" />
    <path
       d="m 33.619974,125.81171 c 0,0.29245 -0.06385,0.67345 -0.101952,0.78775 -0.0381,0.1143 -0.2159,0.50836 -0.2159,0.50836 0,0 0.1524,0.127 0.1524,0.1143 -0.1143,0.0635 -0.2921,0.1778 -0.3683,0.254 -0.0762,0.0635 -0.1651,0.1905 -0.2032,0.2667 -0.0508,0.0762 -0.178153,0.2413 -0.241653,0.2794 -0.0508,0.0254 -0.0762,0.0635 -0.0508,0.11465 0.0254,0.0508 0.0508,0.1778 0.0635,0.2032 0.0254,0.0381 -0.0508,0.1016 -0.0762,0.0254 -0.0254,-0.0762 -0.0381,-0.0889 -0.0381,-0.127 -0.0127,-0.0508 -0.0508,-0.33055 -0.0635,-0.39405 -0.0127,-0.0635 -0.0762,-0.3683 -0.0889,-0.4318 -0.0254,-0.0762 -0.1016,-0.3302 -0.1143,-0.4064 -0.0127,-0.0765 -0.0254,-0.22896 -0.0254,-0.26706 0,-0.0254 0,-0.1143 0.0127,-0.1143 0,0 0.2032,0.2921 0.254,0.3302 0.0635,0.0381 0.1524,0.0639 0.2286,0.0381 0.07655,-0.0254 0.406753,-0.127 0.470253,-0.1397 0.0762,-0.0254 0.1524,-0.1143 0.1651,-0.1651 0.0127,-0.0635 0,-0.127 -0.0254,-0.1651 -0.0127,-0.0508 -0.1143,-0.3048 -0.1143,-0.3556 -0.0127,-0.0635 -0.0508,-0.1143 0,-0.1524 0.0508,-0.0381 0.381352,-0.20355 0.381352,-0.20355 m 1.219553,1.38501 c -0.0381,0.0254 -0.127,0.0635 -0.1524,0.0635 -0.0254,0 -0.0127,0.0127 0,0.0381 0,0.0127 0.2667,1.01635 0.2667,1.05445 0.0127,0.0381 0.0508,0.0762 0.1016,0.0889 0.0635,0 0.216253,0.0127 0.267053,0.0254 0.0508,0.0127 0.0762,0.0127 0.0762,0.0508 0,0.0508 -0.0381,0.0508 -0.0635,0.0508 -0.0127,0 -0.355953,0.0889 -0.394053,0.1016 -0.0381,0.0127 -0.1016,0.0254 -0.1143,0.0254 -0.0254,0 -0.0889,-0.0254 -0.1016,-0.0762 0,-0.0508 -0.0127,-0.1524 -0.0381,-0.1905 -0.0127,-0.0508 -0.0762,-0.2032 -0.127,-0.254 -0.0381,-0.0639 -0.1143,-0.20355 -0.1397,-0.27975 -0.0254,-0.0762 -0.0635,-0.2413 -0.0635,-0.3937 0,-0.0635 0,-0.1651 -0.08925,-0.1651 -0.0889,0 -0.127,0.0254 -0.2159,0.0254 h -0.1651 c -0.0508,0 -0.1143,0.0127 -0.1397,0.0508 -0.0381,0.0381 -0.241653,0.2413 -0.279753,0.2794 -0.0508,0.0381 -0.2413,0.2159 -0.3048,0.254 -0.0508,0.0508 -0.1651,0.1397 -0.2032,0.1651 -0.0381,0.0257 -0.0508,0.0512 -0.0381,0.0892 0.0127,0.0381 0.0635,0.3175 0.0762,0.3556 0.0127,0.0762 -0.0127,0.0889 -0.0635,0.0889 -0.0381,0 -0.140053,-0.0762 -0.178153,-0.0889 l -0.4826,0.1143 c -0.0508,-0.4572 -0.267052,-1.11796 -0.419452,-1.37196 -0.0635,0.0889 -0.254,0.3302 -0.3429,0.3937 -0.0762,0.0635 -0.1524,0.0889 -0.228953,0.1016 -0.0762,0.0254 -0.4445,0.1524 -0.4826,0.1651 -0.0381,0.0127 -0.0635,0.0381 -0.0635,0.0762 -0.0127,0.0381 -0.0254,0.21626 -0.0254,0.25436 0,0.0254 -0.0127,0.0381 -0.0508,0.0508 -0.0508,0 -0.0508,-0.0508 -0.0508,-0.0508 l -0.127353,-0.58456 0.546453,-0.2286 c 0.1524,-0.0635 0.305153,-0.2032 0.381353,-0.4064 0.0889,-0.19085 0.1524,-0.41945 0.1651,-0.66075 -0.1143,0.0508 -0.2413,0.1524 -0.292453,0.2286 -0.0635,0.0762 -0.1397,0.2159 -0.1397,0.3048 0,0.10195 0.0635,0.10195 0.0635,0.19085 0,0.0889 -0.0762,0.1651 -0.1778,0.1651 -0.1016,0 -0.1524,-0.0508 -0.1524,-0.127 0,-0.0762 0.0508,-0.0508 0.0508,-0.127 0,-0.0765 -0.0127,-0.12735 -0.0127,-0.16545 0,-0.0381 0.0254,-0.2667 0.0635,-0.3683 0.0508,-0.1143 0.2032,-0.2921 0.2413,-0.3429 0.0508,-0.0635 0.165453,-0.1524 0.317853,-0.1905 0.1397,-0.0511 0.254,-0.0511 0.3175,-0.0511 0.0508,0 0.127,-0.0127 0.0762,-0.0762 -0.0508,-0.0635 -0.1143,-0.1524 -0.1143,-0.3048 0,-0.1651 0.1016,-0.3556 0.330552,-0.3556 0.2286,0 0.3302,0.1905 0.3302,0.3429 0,0.1524 -0.127,0.3175 -0.1905,0.3556 -0.0508,0.0254 -0.0254,0.0762 -0.0127,0.0892 0.0254,0.0254 0.2413,0.3175 0.2794,0.3683 0.0254,0.0635 0.1778,0.3048 0.1905,0.3429 0.0127,0.0381 0.0508,0.0635 0.127353,0.0381 0.0635,-0.0254 0.1778,-0.0762 0.2032,-0.0889 0.0254,-0.0254 0.0127,-0.0381 0,-0.0762 0,-0.0254 -0.1651,-0.4953 -0.1778,-0.5334 -0.0127,-0.0254 -0.0254,-0.0508 -0.0254,-0.0638 0,0 0.0127,-0.0254 0.0254,-0.0508 0.0254,-0.0127 0.1905,-0.1905 0.2286,-0.2286 0.0889,-0.0635 0.381,-0.3048 0.4445,-0.3302 0.05115,-0.0254 0.03845,-0.0254 0.07655,-0.0254 0.0508,0 0.1397,0.0254 0.1651,0.0254 0.0381,0 0.0635,-0.0508 0.0127,-0.0635 -0.0508,-0.0127 -0.1524,-0.0508 -0.1778,-0.1143 -0.0381,-0.0635 -0.0508,-0.1905 -0.0508,-0.2413 0,-0.0508 0.0254,-0.44485 0.3683,-0.44485 0.3556,0 0.3683,0.38135 0.3683,0.45755 0,0.0762 -0.0127,0.2032 -0.0508,0.254 -0.0381,0.0381 -0.0762,0.0635 -0.0889,0.0762 -0.0127,0.0127 -0.0381,0.0635 0.0127,0.0635 0.0381,0.0127 0.165453,0.0508 0.228953,0.1143 0.0889,0.0889 0.1905,0.2921 0.2413,0.4191 0.0635,0.12735 0.1651,0.34325 0.3175,0.48295 0.152753,0.1397 0.330553,0.254 0.355953,0.2794 0.0381,0.0127 0.0762,0.0127 0.0889,0.0254 0.0254,0.0127 0.0635,0.0635 0.0635,0.127 0,0.0635 -0.0635,0.127 -0.1397,0.127 -0.0762,0 -0.1016,-0.0508 -0.127,-0.0635 -0.0381,-0.0127 -0.1016,-0.0254 -0.140053,-0.0508 -0.0381,-0.0254 -0.2794,-0.1778 -0.3937,-0.2921 -0.1143,-0.127 -0.2667,-0.3302 -0.3048,-0.4572 0.0381,0.127 0.1397,0.4826 0.1651,0.5334 0.0127,0.0381 0.0635,0.1778 0.1016,0.254 0.0381,0.0889 0.1778,0.35596 0.1905,0.35596"
       style="fill:#231f20;fill-opacity:1;fill-rule:evenodd;stroke:none;stroke-width:0.35277775"
       id="path290"
       inkscape:connector-curvature="0" />
  </g>
</svg>
